<svg width="875" height="224" viewBox="0 0 875 224" fill="none" xmlns="http://www.w3.org/2000/svg">
<path d="M191.196 191.196C175.758 206.634 156.143 217.224 134.766 221.662C113.389 226.1 91.1802 224.193 70.8723 216.175C50.5644 208.158 33.0427 194.38 20.4622 176.535C7.88167 158.691 0.791038 137.559 0.0623893 115.738C-0.666259 93.9168 4.99886 72.3586 16.3609 53.7147C27.723 35.0709 44.2866 20.1546 64.0144 10.8003C83.7422 1.446 105.774 -1.93825 127.4 1.06377C149.026 4.0658 169.302 13.3232 185.736 27.6973L158.962 58.3082C148.496 49.1534 135.581 43.2575 121.808 41.3455C108.035 39.4335 94.0028 41.5889 81.4383 47.5466C68.8738 53.5043 58.3246 63.0044 51.0882 74.8785C43.8517 86.7526 40.2437 100.483 40.7077 114.381C41.1718 128.278 45.6878 141.737 53.7002 153.102C61.7126 164.467 72.8721 173.242 85.8061 178.349C98.74 183.455 112.884 184.669 126.5 181.843C140.115 179.016 152.607 172.272 162.439 162.439L191.196 191.196Z" fill="#80DAFD"/>
<circle cx="112.757" cy="112.751" r="24.5" fill="#80DAFD"/>
<mask id="path-3-outside-1_4368_61" maskUnits="userSpaceOnUse" x="198" y="78" width="673" height="84" fill="black">
<rect fill="white" x="198" y="78" width="673" height="84"/>
<path d="M241.7 160.32C230.26 160.32 220.433 156.433 212.22 148.66C204.007 140.813 199.9 131.17 199.9 119.73C199.9 108.217 203.493 98.5733 210.68 90.8C217.867 82.9533 227.07 79.03 238.29 79.03C247.09 79.03 256 80.4967 265.02 83.43L263.59 87.83C254.79 85.19 246.357 83.87 238.29 83.87C228.683 83.87 220.837 87.3167 214.75 94.21C208.663 101.103 205.62 109.537 205.62 119.51C205.62 129.483 209.14 137.99 216.18 145.03C223.293 151.997 231.8 155.48 241.7 155.48C250.353 155.48 257.833 154.16 264.14 151.52L265.79 155.26C263.003 156.873 259.337 158.12 254.79 159C250.317 159.88 245.953 160.32 241.7 160.32ZM291.034 148.55C283.774 140.703 280.144 131.06 280.144 119.62C280.144 108.18 283.774 98.5733 291.034 90.8C298.367 82.9533 307.607 79.03 318.754 79.03C329.901 79.03 339.141 82.9533 346.474 90.8C353.807 98.5733 357.474 108.18 357.474 119.62C357.474 131.06 353.807 140.703 346.474 148.55C339.141 156.397 329.901 160.32 318.754 160.32C307.607 160.32 298.367 156.397 291.034 148.55ZM294.994 94.21C288.907 101.03 285.864 109.5 285.864 119.62C285.864 129.74 288.907 138.247 294.994 145.14C301.154 152.033 309.074 155.48 318.754 155.48C328.507 155.48 336.427 152.033 342.514 145.14C348.674 138.247 351.754 129.74 351.754 119.62C351.754 109.5 348.674 101.03 342.514 94.21C336.427 87.3167 328.507 83.87 318.754 83.87C309.001 83.87 301.081 87.3167 294.994 94.21ZM407.064 155.15C417.404 155.15 425.69 152.363 431.924 146.79C438.23 141.143 441.384 132.673 441.384 121.38C441.384 110.087 437.827 101.103 430.714 94.43C423.674 87.7567 414.947 84.42 404.534 84.42C397.86 84.42 392.067 84.6033 387.154 84.97V154.27C391.92 154.857 398.557 155.15 407.064 155.15ZM404.534 79.58C416.634 79.58 426.754 83.3567 434.894 90.91C443.034 98.39 447.104 108.583 447.104 121.49C447.104 128.017 446.04 133.81 443.914 138.87C441.86 143.857 439 147.853 435.334 150.86C427.78 156.947 418.357 159.99 407.064 159.99C399.657 159.99 391.26 159.587 381.874 158.78V80.35C389.354 79.8367 396.907 79.58 404.534 79.58ZM471.571 159V80.35H508.091V84.97H476.851V113.9H505.121V118.41H476.851V154.38H509.301V159H471.571ZM550.788 139.97L573.558 81.89H576.748L596.658 140.41C598.198 145.03 599.225 148.367 599.738 150.42C600.325 148 601.351 144.7 602.818 140.52L623.058 80.35H628.558L601.168 159.66H598.088L577.738 101.36C577.445 100.407 577.115 99.4533 576.748 98.5C576.455 97.5467 576.198 96.7033 575.978 95.97C575.758 95.2367 575.538 94.6133 575.318 94.1L574.878 92.78C574.805 92.4133 574.768 92.1933 574.768 92.12C573.888 94.76 572.751 97.8033 571.358 101.25L548.368 159.66H545.288L517.678 80.35H523.508L543.638 139.53C544.591 142.17 545.361 144.553 545.948 146.68C546.608 148.807 546.975 149.98 547.048 150.2C547.415 148.513 548.661 145.103 550.788 139.97ZM650.253 148.55C642.993 140.703 639.363 131.06 639.363 119.62C639.363 108.18 642.993 98.5733 650.253 90.8C657.586 82.9533 666.826 79.03 677.973 79.03C689.12 79.03 698.36 82.9533 705.693 90.8C713.026 98.5733 716.693 108.18 716.693 119.62C716.693 131.06 713.026 140.703 705.693 148.55C698.36 156.397 689.12 160.32 677.973 160.32C666.826 160.32 657.586 156.397 650.253 148.55ZM654.213 94.21C648.126 101.03 645.083 109.5 645.083 119.62C645.083 129.74 648.126 138.247 654.213 145.14C660.373 152.033 668.293 155.48 677.973 155.48C687.726 155.48 695.646 152.033 701.733 145.14C707.893 138.247 710.973 129.74 710.973 119.62C710.973 109.5 707.893 101.03 701.733 94.21C695.646 87.3167 687.726 83.87 677.973 83.87C668.22 83.87 660.3 87.3167 654.213 94.21ZM741.092 159V80.68C748.059 80.1667 753.889 79.91 758.582 79.91C766.062 79.91 772.222 81.8533 777.062 85.74C781.902 89.5533 784.322 94.98 784.322 102.02C784.322 106.787 782.929 111.223 780.142 115.33C777.356 119.437 774.239 122.7 770.792 125.12C773.506 128.86 776.842 133.333 780.802 138.54C784.836 143.673 787.439 146.9 788.612 148.22C793.086 152.987 798.146 155.7 803.792 156.36L803.682 159.88C799.209 159.807 795.579 159.147 792.792 157.9C790.006 156.58 787.329 154.6 784.762 151.96C782.269 149.32 775.999 141.107 765.952 127.32C758.766 127.32 752.239 127.1 746.372 126.66V159H741.092ZM762.762 122.92C765.989 122.92 769.436 120.793 773.102 116.54C776.769 112.287 778.602 107.373 778.602 101.8C778.602 96.1533 776.696 91.9 772.882 89.04C769.142 86.1067 764.156 84.64 757.922 84.64C754.622 84.64 750.772 84.7867 746.372 85.08V122.37C752.239 122.737 757.702 122.92 762.762 122.92ZM860.795 80.35L827.355 118.41C831.828 123.763 836.961 129.74 842.755 136.34C848.621 142.94 852.398 147.01 854.085 148.55C855.845 150.09 857.201 151.263 858.155 152.07C859.181 152.803 860.721 153.647 862.775 154.6C864.828 155.48 867.028 156.067 869.375 156.36L869.265 159.88C864.865 159.807 861.235 159.147 858.375 157.9C855.515 156.58 853.021 154.893 850.895 152.84C848.768 150.713 844.111 145.58 836.925 137.44C829.811 129.227 824.458 122.957 820.865 118.63L854.635 80.35H860.795ZM818.775 80.35V159H813.495V80.35H818.775Z"/>
</mask>
<path d="M241.7 160.32C230.26 160.32 220.433 156.433 212.22 148.66C204.007 140.813 199.9 131.17 199.9 119.73C199.9 108.217 203.493 98.5733 210.68 90.8C217.867 82.9533 227.07 79.03 238.29 79.03C247.09 79.03 256 80.4967 265.02 83.43L263.59 87.83C254.79 85.19 246.357 83.87 238.29 83.87C228.683 83.87 220.837 87.3167 214.75 94.21C208.663 101.103 205.62 109.537 205.62 119.51C205.62 129.483 209.14 137.99 216.18 145.03C223.293 151.997 231.8 155.48 241.7 155.48C250.353 155.48 257.833 154.16 264.14 151.52L265.79 155.26C263.003 156.873 259.337 158.12 254.79 159C250.317 159.88 245.953 160.32 241.7 160.32ZM291.034 148.55C283.774 140.703 280.144 131.06 280.144 119.62C280.144 108.18 283.774 98.5733 291.034 90.8C298.367 82.9533 307.607 79.03 318.754 79.03C329.901 79.03 339.141 82.9533 346.474 90.8C353.807 98.5733 357.474 108.18 357.474 119.62C357.474 131.06 353.807 140.703 346.474 148.55C339.141 156.397 329.901 160.32 318.754 160.32C307.607 160.32 298.367 156.397 291.034 148.55ZM294.994 94.21C288.907 101.03 285.864 109.5 285.864 119.62C285.864 129.74 288.907 138.247 294.994 145.14C301.154 152.033 309.074 155.48 318.754 155.48C328.507 155.48 336.427 152.033 342.514 145.14C348.674 138.247 351.754 129.74 351.754 119.62C351.754 109.5 348.674 101.03 342.514 94.21C336.427 87.3167 328.507 83.87 318.754 83.87C309.001 83.87 301.081 87.3167 294.994 94.21ZM407.064 155.15C417.404 155.15 425.69 152.363 431.924 146.79C438.23 141.143 441.384 132.673 441.384 121.38C441.384 110.087 437.827 101.103 430.714 94.43C423.674 87.7567 414.947 84.42 404.534 84.42C397.86 84.42 392.067 84.6033 387.154 84.97V154.27C391.92 154.857 398.557 155.15 407.064 155.15ZM404.534 79.58C416.634 79.58 426.754 83.3567 434.894 90.91C443.034 98.39 447.104 108.583 447.104 121.49C447.104 128.017 446.04 133.81 443.914 138.87C441.86 143.857 439 147.853 435.334 150.86C427.78 156.947 418.357 159.99 407.064 159.99C399.657 159.99 391.26 159.587 381.874 158.78V80.35C389.354 79.8367 396.907 79.58 404.534 79.58ZM471.571 159V80.35H508.091V84.97H476.851V113.9H505.121V118.41H476.851V154.38H509.301V159H471.571ZM550.788 139.97L573.558 81.89H576.748L596.658 140.41C598.198 145.03 599.225 148.367 599.738 150.42C600.325 148 601.351 144.7 602.818 140.52L623.058 80.35H628.558L601.168 159.66H598.088L577.738 101.36C577.445 100.407 577.115 99.4533 576.748 98.5C576.455 97.5467 576.198 96.7033 575.978 95.97C575.758 95.2367 575.538 94.6133 575.318 94.1L574.878 92.78C574.805 92.4133 574.768 92.1933 574.768 92.12C573.888 94.76 572.751 97.8033 571.358 101.25L548.368 159.66H545.288L517.678 80.35H523.508L543.638 139.53C544.591 142.17 545.361 144.553 545.948 146.68C546.608 148.807 546.975 149.98 547.048 150.2C547.415 148.513 548.661 145.103 550.788 139.97ZM650.253 148.55C642.993 140.703 639.363 131.06 639.363 119.62C639.363 108.18 642.993 98.5733 650.253 90.8C657.586 82.9533 666.826 79.03 677.973 79.03C689.12 79.03 698.36 82.9533 705.693 90.8C713.026 98.5733 716.693 108.18 716.693 119.62C716.693 131.06 713.026 140.703 705.693 148.55C698.36 156.397 689.12 160.32 677.973 160.32C666.826 160.32 657.586 156.397 650.253 148.55ZM654.213 94.21C648.126 101.03 645.083 109.5 645.083 119.62C645.083 129.74 648.126 138.247 654.213 145.14C660.373 152.033 668.293 155.48 677.973 155.48C687.726 155.48 695.646 152.033 701.733 145.14C707.893 138.247 710.973 129.74 710.973 119.62C710.973 109.5 707.893 101.03 701.733 94.21C695.646 87.3167 687.726 83.87 677.973 83.87C668.22 83.87 660.3 87.3167 654.213 94.21ZM741.092 159V80.68C748.059 80.1667 753.889 79.91 758.582 79.91C766.062 79.91 772.222 81.8533 777.062 85.74C781.902 89.5533 784.322 94.98 784.322 102.02C784.322 106.787 782.929 111.223 780.142 115.33C777.356 119.437 774.239 122.7 770.792 125.12C773.506 128.86 776.842 133.333 780.802 138.54C784.836 143.673 787.439 146.9 788.612 148.22C793.086 152.987 798.146 155.7 803.792 156.36L803.682 159.88C799.209 159.807 795.579 159.147 792.792 157.9C790.006 156.58 787.329 154.6 784.762 151.96C782.269 149.32 775.999 141.107 765.952 127.32C758.766 127.32 752.239 127.1 746.372 126.66V159H741.092ZM762.762 122.92C765.989 122.92 769.436 120.793 773.102 116.54C776.769 112.287 778.602 107.373 778.602 101.8C778.602 96.1533 776.696 91.9 772.882 89.04C769.142 86.1067 764.156 84.64 757.922 84.64C754.622 84.64 750.772 84.7867 746.372 85.08V122.37C752.239 122.737 757.702 122.92 762.762 122.92ZM860.795 80.35L827.355 118.41C831.828 123.763 836.961 129.74 842.755 136.34C848.621 142.94 852.398 147.01 854.085 148.55C855.845 150.09 857.201 151.263 858.155 152.07C859.181 152.803 860.721 153.647 862.775 154.6C864.828 155.48 867.028 156.067 869.375 156.36L869.265 159.88C864.865 159.807 861.235 159.147 858.375 157.9C855.515 156.58 853.021 154.893 850.895 152.84C848.768 150.713 844.111 145.58 836.925 137.44C829.811 129.227 824.458 122.957 820.865 118.63L854.635 80.35H860.795ZM818.775 80.35V159H813.495V80.35H818.775Z" fill="black"/>
<path d="M212.22 148.66L211.529 149.383L211.533 149.386L212.22 148.66ZM210.68 90.8L211.414 91.4789L211.417 91.4754L210.68 90.8ZM265.02 83.43L265.971 83.7391L266.28 82.7882L265.329 82.479L265.02 83.43ZM263.59 87.83L263.303 88.7878L264.239 89.0687L264.541 88.1391L263.59 87.83ZM214.75 94.21L214 93.5481L214 93.5481L214.75 94.21ZM216.18 145.03L215.473 145.737L215.48 145.744L216.18 145.03ZM264.14 151.52L265.055 151.116L264.659 150.219L263.754 150.598L264.14 151.52ZM265.79 155.26L266.291 156.125L267.067 155.676L266.705 154.856L265.79 155.26ZM254.79 159L254.6 158.018L254.597 158.019L254.79 159ZM241.7 160.32V159.32C230.512 159.32 220.933 155.529 212.907 147.934L212.22 148.66L211.533 149.386C219.934 157.338 230.008 161.32 241.7 161.32V160.32ZM212.22 148.66L212.911 147.937C204.897 140.28 200.9 130.899 200.9 119.73H199.9H198.9C198.9 131.441 203.117 141.346 211.529 149.383L212.22 148.66ZM199.9 119.73H200.9C200.9 108.444 204.414 99.0505 211.414 91.4789L210.68 90.8L209.946 90.1211C202.573 98.0962 198.9 107.989 198.9 119.73H199.9ZM210.68 90.8L211.417 91.4754C218.403 83.8479 227.333 80.03 238.29 80.03V79.03V78.03C226.807 78.03 217.33 82.0587 209.943 90.1246L210.68 90.8ZM238.29 79.03V80.03C246.977 80.03 255.783 81.4776 264.711 84.381L265.02 83.43L265.329 82.479C256.217 79.5157 247.203 78.03 238.29 78.03V79.03ZM265.02 83.43L264.069 83.1209L262.639 87.5209L263.59 87.83L264.541 88.1391L265.971 83.7391L265.02 83.43ZM263.59 87.83L263.877 86.8722C254.997 84.208 246.466 82.87 238.29 82.87V83.87V84.87C246.247 84.87 254.583 86.172 263.303 88.7878L263.59 87.83ZM238.29 83.87V82.87C228.411 82.87 220.286 86.4291 214 93.5481L214.75 94.21L215.5 94.8719C221.387 88.2042 228.956 84.87 238.29 84.87V83.87ZM214.75 94.21L214 93.5481C207.738 100.64 204.62 109.315 204.62 119.51H205.62H206.62C206.62 109.758 209.588 101.566 215.5 94.8719L214.75 94.21ZM205.62 119.51H204.62C204.62 129.748 208.245 138.509 215.473 145.737L216.18 145.03L216.887 144.323C210.035 137.471 206.62 129.219 206.62 119.51H205.62ZM216.18 145.03L215.48 145.744C222.779 152.893 231.537 156.48 241.7 156.48V155.48V154.48C232.063 154.48 223.807 151.1 216.88 144.316L216.18 145.03ZM241.7 155.48V156.48C250.452 156.48 258.069 155.145 264.526 152.442L264.14 151.52L263.754 150.598C257.597 153.175 250.255 154.48 241.7 154.48V155.48ZM264.14 151.52L263.225 151.924L264.875 155.664L265.79 155.26L266.705 154.856L265.055 151.116L264.14 151.52ZM265.79 155.26L265.289 154.395C262.631 155.933 259.081 157.151 254.6 158.018L254.79 159L254.98 159.982C259.592 159.089 263.376 157.813 266.291 156.125L265.79 155.26ZM254.79 159L254.597 158.019C250.183 158.887 245.884 159.32 241.7 159.32V160.32V161.32C246.023 161.32 250.451 160.873 254.983 159.981L254.79 159ZM291.034 148.55L290.3 149.229L290.304 149.233L291.034 148.55ZM291.034 90.8L290.304 90.1172L290.303 90.1174L291.034 90.8ZM346.474 90.8L345.744 91.4828L345.747 91.4862L346.474 90.8ZM346.474 148.55L345.744 147.867L345.744 147.867L346.474 148.55ZM294.994 94.21L295.74 94.8759L295.744 94.8719L294.994 94.21ZM294.994 145.14L294.245 145.802L294.248 145.806L294.994 145.14ZM342.514 145.14L341.768 144.474L341.765 144.478L342.514 145.14ZM342.514 94.21L341.764 94.8719L341.772 94.8803L342.514 94.21ZM291.034 148.55L291.768 147.871C284.692 140.223 281.144 130.828 281.144 119.62H280.144H279.144C279.144 131.292 282.856 141.184 290.3 149.229L291.034 148.55ZM280.144 119.62H281.144C281.144 108.412 284.692 99.0559 291.765 91.4826L291.034 90.8L290.303 90.1174C282.857 98.0907 279.144 107.948 279.144 119.62H280.144ZM291.034 90.8L291.765 91.4828C298.901 83.847 307.873 80.03 318.754 80.03V79.03V78.03C307.342 78.03 297.834 82.0597 290.304 90.1172L291.034 90.8ZM318.754 79.03V80.03C329.636 80.03 338.607 83.847 345.744 91.4828L346.474 90.8L347.205 90.1172C339.674 82.0597 330.166 78.03 318.754 78.03V79.03ZM346.474 90.8L345.747 91.4862C352.892 99.0601 356.474 108.415 356.474 119.62H357.474H358.474C358.474 107.945 354.723 98.0866 347.202 90.1138L346.474 90.8ZM357.474 119.62H356.474C356.474 130.825 352.892 140.219 345.744 147.867L346.474 148.55L347.205 149.233C354.723 141.188 358.474 131.295 358.474 119.62H357.474ZM346.474 148.55L345.744 147.867C338.607 155.503 329.636 159.32 318.754 159.32V160.32V161.32C330.166 161.32 339.674 157.29 347.205 149.233L346.474 148.55ZM318.754 160.32V159.32C307.873 159.32 298.901 155.503 291.765 147.867L291.034 148.55L290.304 149.233C297.834 157.29 307.342 161.32 318.754 161.32V160.32ZM294.994 94.21L294.248 93.5441C287.98 100.567 284.864 109.283 284.864 119.62H285.864H286.864C286.864 109.717 289.835 101.493 295.74 94.8759L294.994 94.21ZM285.864 119.62H284.864C284.864 129.957 287.98 138.707 294.245 145.802L294.994 145.14L295.744 144.478C289.835 137.786 286.864 129.523 286.864 119.62H285.864ZM294.994 145.14L294.248 145.806C300.608 152.923 308.805 156.48 318.754 156.48V155.48V154.48C309.344 154.48 301.7 151.144 295.74 144.474L294.994 145.14ZM318.754 155.48V156.48C328.775 156.48 336.975 152.925 343.264 145.802L342.514 145.14L341.765 144.478C335.88 151.142 328.24 154.48 318.754 154.48V155.48ZM342.514 145.14L343.26 145.806C349.6 138.712 352.754 129.961 352.754 119.62H351.754H350.754C350.754 129.519 347.749 137.782 341.768 144.474L342.514 145.14ZM351.754 119.62H352.754C352.754 109.279 349.6 100.563 343.256 93.5397L342.514 94.21L341.772 94.8803C347.749 101.497 350.754 109.721 350.754 119.62H351.754ZM342.514 94.21L343.264 93.5481C336.975 86.4255 328.775 82.87 318.754 82.87V83.87V84.87C328.24 84.87 335.88 88.2079 341.765 94.8719L342.514 94.21ZM318.754 83.87V82.87C308.734 82.87 300.534 86.4255 294.245 93.5481L294.994 94.21L295.744 94.8719C301.628 88.2079 309.268 84.87 318.754 84.87V83.87ZM431.924 146.79L432.59 147.535L432.591 147.535L431.924 146.79ZM430.714 94.43L430.026 95.1558L430.029 95.1593L430.714 94.43ZM387.154 84.97L387.079 83.9728L386.154 84.0418V84.97H387.154ZM387.154 154.27H386.154V155.154L387.031 155.263L387.154 154.27ZM434.894 90.91L434.213 91.643L434.217 91.6463L434.894 90.91ZM443.914 138.87L442.992 138.483L442.989 138.489L443.914 138.87ZM435.334 150.86L435.961 151.639L435.968 151.633L435.334 150.86ZM381.874 158.78H380.874V159.698L381.788 159.776L381.874 158.78ZM381.874 80.35L381.805 79.3523L380.874 79.4163V80.35H381.874ZM407.064 155.15V156.15C417.589 156.15 426.133 153.309 432.59 147.535L431.924 146.79L431.257 146.045C425.248 151.418 417.218 154.15 407.064 154.15V155.15ZM431.924 146.79L432.591 147.535C439.174 141.641 442.384 132.858 442.384 121.38H441.384H440.384C440.384 132.489 437.287 140.646 431.256 146.045L431.924 146.79ZM441.384 121.38H442.384C442.384 109.858 438.745 100.593 431.398 93.7007L430.714 94.43L430.029 95.1593C436.909 101.613 440.384 110.315 440.384 121.38H441.384ZM430.714 94.43L431.401 93.7042C424.161 86.8411 415.182 83.42 404.534 83.42V84.42V85.42C414.712 85.42 423.186 88.6722 430.026 95.1558L430.714 94.43ZM404.534 84.42V83.42C397.843 83.42 392.024 83.6037 387.079 83.9728L387.154 84.97L387.228 85.9672C392.11 85.6029 397.877 85.42 404.534 85.42V84.42ZM387.154 84.97H386.154V154.27H387.154H388.154V84.97H387.154ZM387.154 154.27L387.031 155.263C391.858 155.857 398.542 156.15 407.064 156.15V155.15V154.15C398.572 154.15 391.982 153.857 387.276 153.277L387.154 154.27ZM404.534 79.58V80.58C416.406 80.58 426.276 84.2773 434.213 91.643L434.894 90.91L435.574 90.177C427.231 82.436 416.861 78.58 404.534 78.58V79.58ZM434.894 90.91L434.217 91.6463C442.116 98.9048 446.104 108.812 446.104 121.49H447.104H448.104C448.104 108.355 443.951 97.8752 435.57 90.1737L434.894 90.91ZM447.104 121.49H446.104C446.104 127.908 445.058 133.566 442.992 138.483L443.914 138.87L444.835 139.257C447.022 134.054 448.104 128.125 448.104 121.49H447.104ZM443.914 138.87L442.989 138.489C440.99 143.344 438.222 147.199 434.699 150.087L435.334 150.86L435.968 151.633C439.779 148.508 442.731 144.369 444.838 139.251L443.914 138.87ZM435.334 150.86L434.706 150.081C427.359 156.002 418.168 158.99 407.064 158.99V159.99V160.99C418.546 160.99 428.202 157.891 435.961 151.639L435.334 150.86ZM407.064 159.99V158.99C399.692 158.99 391.325 158.589 381.959 157.784L381.874 158.78L381.788 159.776C391.196 160.585 399.622 160.99 407.064 160.99V159.99ZM381.874 158.78H382.874V80.35H381.874H380.874V158.78H381.874ZM381.874 80.35L381.942 81.3476C389.399 80.8359 396.929 80.58 404.534 80.58V79.58V78.58C396.884 78.58 389.308 78.8374 381.805 79.3523L381.874 80.35ZM471.571 159H470.571V160H471.571V159ZM471.571 80.35V79.35H470.571V80.35H471.571ZM508.091 80.35H509.091V79.35H508.091V80.35ZM508.091 84.97V85.97H509.091V84.97H508.091ZM476.851 84.97V83.97H475.851V84.97H476.851ZM476.851 113.9H475.851V114.9H476.851V113.9ZM505.121 113.9H506.121V112.9H505.121V113.9ZM505.121 118.41V119.41H506.121V118.41H505.121ZM476.851 118.41V117.41H475.851V118.41H476.851ZM476.851 154.38H475.851V155.38H476.851V154.38ZM509.301 154.38H510.301V153.38H509.301V154.38ZM509.301 159V160H510.301V159H509.301ZM471.571 159H472.571V80.35H471.571H470.571V159H471.571ZM471.571 80.35V81.35H508.091V80.35V79.35H471.571V80.35ZM508.091 80.35H507.091V84.97H508.091H509.091V80.35H508.091ZM508.091 84.97V83.97H476.851V84.97V85.97H508.091V84.97ZM476.851 84.97H475.851V113.9H476.851H477.851V84.97H476.851ZM476.851 113.9V114.9H505.121V113.9V112.9H476.851V113.9ZM505.121 113.9H504.121V118.41H505.121H506.121V113.9H505.121ZM505.121 118.41V117.41H476.851V118.41V119.41H505.121V118.41ZM476.851 118.41H475.851V154.38H476.851H477.851V118.41H476.851ZM476.851 154.38V155.38H509.301V154.38V153.38H476.851V154.38ZM509.301 154.38H508.301V159H509.301H510.301V154.38H509.301ZM509.301 159V158H471.571V159V160H509.301V159ZM550.788 139.97L551.712 140.353L551.715 140.344L551.719 140.335L550.788 139.97ZM573.558 81.89V80.89H572.876L572.627 81.525L573.558 81.89ZM576.748 81.89L577.695 81.5679L577.464 80.89H576.748V81.89ZM596.658 140.41L597.607 140.094L597.605 140.088L596.658 140.41ZM599.738 150.42L598.768 150.663L600.71 150.656L599.738 150.42ZM602.818 140.52L603.762 140.851L603.766 140.839L602.818 140.52ZM623.058 80.35V79.35H622.339L622.11 80.0312L623.058 80.35ZM628.558 80.35L629.503 80.6764L629.961 79.35H628.558V80.35ZM601.168 159.66V160.66H601.881L602.113 159.986L601.168 159.66ZM598.088 159.66L597.144 159.99L597.378 160.66H598.088V159.66ZM577.738 101.36L576.782 101.654L576.788 101.672L576.794 101.69L577.738 101.36ZM576.748 98.5L575.792 98.7941L575.802 98.8269L575.815 98.859L576.748 98.5ZM575.978 95.97L575.02 96.2573L575.02 96.2573L575.978 95.97ZM575.318 94.1L574.369 94.4162L574.382 94.4557L574.399 94.4939L575.318 94.1ZM574.878 92.78L573.897 92.9761L573.91 93.0372L573.929 93.0962L574.878 92.78ZM574.768 92.12H575.768L573.819 91.8038L574.768 92.12ZM571.358 101.25L570.431 100.875L570.427 100.884L571.358 101.25ZM548.368 159.66V160.66H549.049L549.298 160.026L548.368 159.66ZM545.288 159.66L544.344 159.989L544.577 160.66H545.288V159.66ZM517.678 80.35V79.35H516.271L516.734 80.6788L517.678 80.35ZM523.508 80.35L524.455 80.028L524.224 79.35H523.508V80.35ZM543.638 139.53L542.691 139.852L542.694 139.861L542.697 139.87L543.638 139.53ZM545.948 146.68L544.984 146.946L544.988 146.961L544.993 146.976L545.948 146.68ZM547.048 150.2L546.099 150.516L547.251 153.972L548.025 150.412L547.048 150.2ZM550.788 139.97L551.719 140.335L574.489 82.255L573.558 81.89L572.627 81.525L549.857 139.605L550.788 139.97ZM573.558 81.89V82.89H576.748V81.89V80.89H573.558V81.89ZM576.748 81.89L575.801 82.2121L595.711 140.732L596.658 140.41L597.605 140.088L577.695 81.5679L576.748 81.89ZM596.658 140.41L595.709 140.726C597.249 145.345 598.265 148.65 598.768 150.663L599.738 150.42L600.708 150.177C600.185 148.084 599.147 144.715 597.607 140.094L596.658 140.41ZM599.738 150.42L600.71 150.656C601.285 148.283 602.299 145.02 603.762 140.851L602.818 140.52L601.874 140.189C600.404 144.38 599.364 147.717 598.766 150.184L599.738 150.42ZM602.818 140.52L603.766 140.839L624.006 80.6688L623.058 80.35L622.11 80.0312L601.87 140.201L602.818 140.52ZM623.058 80.35V81.35H628.558V80.35V79.35H623.058V80.35ZM628.558 80.35L627.613 80.0236L600.223 159.334L601.168 159.66L602.113 159.986L629.503 80.6764L628.558 80.35ZM601.168 159.66V158.66H598.088V159.66V160.66H601.168V159.66ZM598.088 159.66L599.032 159.33L578.682 101.03L577.738 101.36L576.794 101.69L597.144 159.99L598.088 159.66ZM577.738 101.36L578.694 101.066C578.394 100.09 578.056 99.1152 577.681 98.141L576.748 98.5L575.815 98.859C576.173 99.7915 576.496 100.723 576.782 101.654L577.738 101.36ZM576.748 98.5L577.704 98.2059C577.411 97.2542 577.155 96.4132 576.936 95.6826L575.978 95.97L575.02 96.2573C575.241 96.9935 575.498 97.8391 575.792 98.7941L576.748 98.5ZM575.978 95.97L576.936 95.6827C576.709 94.9253 576.476 94.2642 576.237 93.7061L575.318 94.1L574.399 94.4939C574.6 94.9624 574.807 95.548 575.02 96.2573L575.978 95.97ZM575.318 94.1L576.267 93.7838L575.827 92.4638L574.878 92.78L573.929 93.0962L574.369 94.4162L575.318 94.1ZM574.878 92.78L575.859 92.5839C575.823 92.4051 575.798 92.2703 575.782 92.1756C575.774 92.128 575.769 92.0967 575.767 92.0785C575.764 92.0505 575.768 92.0736 575.768 92.12H574.768H573.768C573.768 92.2535 573.793 92.4091 573.809 92.5044C573.83 92.6297 573.86 92.7882 573.897 92.9761L574.878 92.78ZM574.768 92.12L573.819 91.8038C572.948 94.4188 571.819 97.4419 570.431 100.875L571.358 101.25L572.285 101.625C573.684 98.1648 574.828 95.1012 575.717 92.4362L574.768 92.12ZM571.358 101.25L570.427 100.884L547.437 159.294L548.368 159.66L549.298 160.026L572.288 101.616L571.358 101.25ZM548.368 159.66V158.66H545.288V159.66V160.66H548.368V159.66ZM545.288 159.66L546.232 159.331L518.622 80.0212L517.678 80.35L516.734 80.6788L544.344 159.989L545.288 159.66ZM517.678 80.35V81.35H523.508V80.35V79.35H517.678V80.35ZM523.508 80.35L522.561 80.672L542.691 139.852L543.638 139.53L544.585 139.208L524.455 80.028L523.508 80.35ZM543.638 139.53L542.697 139.87C543.644 142.492 544.406 144.85 544.984 146.946L545.948 146.68L546.912 146.414C546.317 144.257 545.538 141.848 544.579 139.19L543.638 139.53ZM545.948 146.68L544.993 146.976C545.65 149.095 546.022 150.283 546.099 150.516L547.048 150.2L547.997 149.884C547.928 149.677 547.566 148.519 546.903 146.384L545.948 146.68ZM547.048 150.2L548.025 150.412C548.369 148.829 549.578 145.505 551.712 140.353L550.788 139.97L549.864 139.587C547.745 144.702 546.46 148.197 546.071 149.988L547.048 150.2ZM650.253 148.55L649.519 149.229L649.522 149.233L650.253 148.55ZM650.253 90.8L649.522 90.1172L649.522 90.1174L650.253 90.8ZM705.693 90.8L704.962 91.4828L704.965 91.4862L705.693 90.8ZM705.693 148.55L704.962 147.867L704.962 147.867L705.693 148.55ZM654.213 94.21L654.959 94.8759L654.962 94.8719L654.213 94.21ZM654.213 145.14L653.463 145.802L653.467 145.806L654.213 145.14ZM701.733 145.14L700.987 144.474L700.983 144.478L701.733 145.14ZM701.733 94.21L700.983 94.8719L700.991 94.8803L701.733 94.21ZM650.253 148.55L650.987 147.871C643.911 140.223 640.363 130.828 640.363 119.62H639.363H638.363C638.363 131.292 642.075 141.184 649.519 149.229L650.253 148.55ZM639.363 119.62H640.363C640.363 108.412 643.91 99.0559 650.984 91.4826L650.253 90.8L649.522 90.1174C642.075 98.0907 638.363 107.948 638.363 119.62H639.363ZM650.253 90.8L650.983 91.4828C658.12 83.847 667.091 80.03 677.973 80.03V79.03V78.03C666.561 78.03 657.053 82.0597 649.522 90.1172L650.253 90.8ZM677.973 79.03V80.03C688.854 80.03 697.826 83.847 704.962 91.4828L705.693 90.8L706.423 90.1172C698.893 82.0597 689.385 78.03 677.973 78.03V79.03ZM705.693 90.8L704.965 91.4862C712.111 99.0601 715.693 108.415 715.693 119.62H716.693H717.693C717.693 107.945 713.942 98.0866 706.42 90.1138L705.693 90.8ZM716.693 119.62H715.693C715.693 130.825 712.111 140.219 704.962 147.867L705.693 148.55L706.423 149.233C713.942 141.188 717.693 131.295 717.693 119.62H716.693ZM705.693 148.55L704.962 147.867C697.826 155.503 688.854 159.32 677.973 159.32V160.32V161.32C689.385 161.32 698.893 157.29 706.423 149.233L705.693 148.55ZM677.973 160.32V159.32C667.091 159.32 658.12 155.503 650.983 147.867L650.253 148.55L649.522 149.233C657.053 157.29 666.561 161.32 677.973 161.32V160.32ZM654.213 94.21L653.467 93.5441C647.199 100.567 644.083 109.283 644.083 119.62H645.083H646.083C646.083 109.717 649.054 101.493 654.959 94.8759L654.213 94.21ZM645.083 119.62H644.083C644.083 129.957 647.199 138.707 653.463 145.802L654.213 145.14L654.962 144.478C649.054 137.786 646.083 129.523 646.083 119.62H645.083ZM654.213 145.14L653.467 145.806C659.827 152.923 668.023 156.48 677.973 156.48V155.48V154.48C668.562 154.48 660.919 151.144 654.959 144.474L654.213 145.14ZM677.973 155.48V156.48C687.993 156.48 696.193 152.925 702.482 145.802L701.733 145.14L700.983 144.478C695.099 151.142 687.459 154.48 677.973 154.48V155.48ZM701.733 145.14L702.479 145.806C708.818 138.712 711.973 129.961 711.973 119.62H710.973H709.973C709.973 129.519 706.967 137.782 700.987 144.474L701.733 145.14ZM710.973 119.62H711.973C711.973 109.279 708.818 100.563 702.475 93.5397L701.733 94.21L700.991 94.8803C706.967 101.497 709.973 109.721 709.973 119.62H710.973ZM701.733 94.21L702.482 93.5481C696.193 86.4255 687.993 82.87 677.973 82.87V83.87V84.87C687.459 84.87 695.099 88.2079 700.983 94.8719L701.733 94.21ZM677.973 83.87V82.87C667.952 82.87 659.752 86.4255 653.463 93.5481L654.213 94.21L654.962 94.8719C660.847 88.2079 668.487 84.87 677.973 84.87V83.87ZM741.092 159H740.092V160H741.092V159ZM741.092 80.68L741.019 79.6827L740.092 79.751V80.68H741.092ZM777.062 85.74L776.436 86.5197L776.443 86.5255L777.062 85.74ZM780.142 115.33L779.315 114.768L779.315 114.768L780.142 115.33ZM770.792 125.12L770.218 124.302L769.386 124.885L769.983 125.707L770.792 125.12ZM780.802 138.54L780.006 139.145L780.011 139.152L780.016 139.158L780.802 138.54ZM788.612 148.22L787.865 148.884L787.874 148.894L787.883 148.904L788.612 148.22ZM803.792 156.36L804.792 156.391L804.82 155.473L803.908 155.367L803.792 156.36ZM803.682 159.88L803.666 160.88L804.651 160.896L804.682 159.911L803.682 159.88ZM792.792 157.9L792.364 158.804L792.374 158.808L792.384 158.813L792.792 157.9ZM784.762 151.96L784.035 152.647L784.04 152.652L784.045 152.657L784.762 151.96ZM765.952 127.32L766.76 126.731L766.461 126.32H765.952V127.32ZM746.372 126.66L746.447 125.663L745.372 125.582V126.66H746.372ZM746.372 159V160H747.372V159H746.372ZM773.102 116.54L772.345 115.887L772.345 115.887L773.102 116.54ZM772.882 89.04L772.265 89.8268L772.274 89.8335L772.282 89.84L772.882 89.04ZM746.372 85.08L746.306 84.0822L745.372 84.1444V85.08H746.372ZM746.372 122.37H745.372V123.309L746.31 123.368L746.372 122.37ZM741.092 159H742.092V80.68H741.092H740.092V159H741.092ZM741.092 80.68L741.166 81.6773C748.119 81.165 753.922 80.91 758.582 80.91V79.91V78.91C753.856 78.91 747.999 79.1683 741.019 79.6827L741.092 80.68ZM758.582 79.91V80.91C765.883 80.91 771.808 82.8032 776.436 86.5197L777.062 85.74L777.688 84.9603C772.637 80.9035 766.242 78.91 758.582 78.91V79.91ZM777.062 85.74L776.443 86.5255C781.006 90.1206 783.322 95.237 783.322 102.02H784.322H785.322C785.322 94.723 782.798 88.9861 777.681 84.9545L777.062 85.74ZM784.322 102.02H783.322C783.322 106.578 781.994 110.82 779.315 114.768L780.142 115.33L780.97 115.892C783.864 111.626 785.322 106.995 785.322 102.02H784.322ZM780.142 115.33L779.315 114.768C776.584 118.792 773.549 121.962 770.218 124.302L770.792 125.12L771.367 125.938C774.929 123.438 778.127 120.081 780.97 115.891L780.142 115.33ZM770.792 125.12L769.983 125.707C772.702 129.455 776.043 133.935 780.006 139.145L780.802 138.54L781.598 137.935C777.641 132.732 774.309 128.265 771.602 124.533L770.792 125.12ZM780.802 138.54L780.016 139.158C784.043 144.284 786.667 147.537 787.865 148.884L788.612 148.22L789.36 147.556C788.211 146.263 785.628 143.063 781.589 137.922L780.802 138.54ZM788.612 148.22L787.883 148.904C792.492 153.816 797.76 156.662 803.676 157.353L803.792 156.36L803.908 155.367C798.531 154.738 793.679 152.158 789.341 147.536L788.612 148.22ZM803.792 156.36L802.793 156.329L802.683 159.849L803.682 159.88L804.682 159.911L804.792 156.391L803.792 156.36ZM803.682 159.88L803.699 158.88C799.303 158.808 795.82 158.159 793.201 156.987L792.792 157.9L792.384 158.813C795.338 160.134 799.115 160.805 803.666 160.88L803.682 159.88ZM792.792 157.9L793.22 156.996C790.56 155.736 787.978 153.834 785.479 151.263L784.762 151.96L784.045 152.657C786.679 155.366 789.451 157.424 792.364 158.804L792.792 157.9ZM784.762 151.96L785.489 151.273C783.051 148.691 776.825 140.542 766.76 126.731L765.952 127.32L765.144 127.909C775.173 141.671 781.487 149.949 784.035 152.647L784.762 151.96ZM765.952 127.32V126.32C758.785 126.32 752.284 126.101 746.447 125.663L746.372 126.66L746.297 127.657C752.194 128.099 758.746 128.32 765.952 128.32V127.32ZM746.372 126.66H745.372V159H746.372H747.372V126.66H746.372ZM746.372 159V158H741.092V159V160H746.372V159ZM762.762 122.92V123.92C766.436 123.92 770.137 121.512 773.86 117.193L773.102 116.54L772.345 115.887C768.735 120.075 765.542 121.92 762.762 121.92V122.92ZM773.102 116.54L773.86 117.193C777.682 112.76 779.602 107.615 779.602 101.8H778.602H777.602C777.602 107.132 775.856 111.814 772.345 115.887L773.102 116.54ZM778.602 101.8H779.602C779.602 95.9042 777.596 91.325 773.482 88.24L772.882 89.04L772.282 89.84C775.796 92.475 777.602 96.4025 777.602 101.8H778.602ZM772.882 89.04L773.499 88.2531C769.535 85.144 764.309 83.64 757.922 83.64V84.64V85.64C764.002 85.64 768.749 87.0694 772.265 89.8268L772.882 89.04ZM757.922 84.64V83.64C754.594 83.64 750.721 83.7879 746.306 84.0822L746.372 85.08L746.439 86.0778C750.823 85.7855 754.65 85.64 757.922 85.64V84.64ZM746.372 85.08H745.372V122.37H746.372H747.372V85.08H746.372ZM746.372 122.37L746.31 123.368C752.194 123.736 757.678 123.92 762.762 123.92V122.92V121.92C757.726 121.92 752.284 121.738 746.435 121.372L746.372 122.37ZM860.795 80.35L861.546 81.01L863.004 79.35H860.795V80.35ZM827.355 118.41L826.603 117.75L826.038 118.394L826.587 119.051L827.355 118.41ZM842.755 136.34L842.003 137L842.007 137.004L842.755 136.34ZM854.085 148.55L853.41 149.288L853.418 149.296L853.426 149.303L854.085 148.55ZM858.155 152.07L857.509 152.833L857.54 152.86L857.573 152.884L858.155 152.07ZM862.775 154.6L862.354 155.507L862.367 155.513L862.381 155.519L862.775 154.6ZM869.375 156.36L870.374 156.391L870.403 155.481L869.499 155.368L869.375 156.36ZM869.265 159.88L869.248 160.88L870.233 160.896L870.264 159.911L869.265 159.88ZM858.375 157.9L857.956 158.808L857.965 158.812L857.975 158.817L858.375 157.9ZM850.895 152.84L850.188 153.547L850.194 153.553L850.2 153.559L850.895 152.84ZM836.925 137.44L836.169 138.095L836.175 138.102L836.925 137.44ZM820.865 118.63L820.115 117.968L819.548 118.61L820.095 119.269L820.865 118.63ZM854.635 80.35V79.35H854.183L853.885 79.6884L854.635 80.35ZM818.775 80.35H819.775V79.35H818.775V80.35ZM818.775 159V160H819.775V159H818.775ZM813.495 159H812.495V160H813.495V159ZM813.495 80.35V79.35H812.495V80.35H813.495ZM860.795 80.35L860.043 79.69L826.603 117.75L827.355 118.41L828.106 119.07L861.546 81.01L860.795 80.35ZM827.355 118.41L826.587 119.051C831.067 124.412 836.206 130.395 842.003 137L842.755 136.34L843.506 135.68C837.717 129.085 832.589 123.115 828.122 117.769L827.355 118.41ZM842.755 136.34L842.007 137.004C847.862 143.591 851.677 147.706 853.41 149.288L854.085 148.55L854.759 147.812C853.119 146.314 849.381 142.289 843.502 135.676L842.755 136.34ZM854.085 148.55L853.426 149.303C855.187 150.844 856.549 152.021 857.509 152.833L858.155 152.07L858.801 151.307C857.854 150.505 856.502 149.336 854.743 147.797L854.085 148.55ZM858.155 152.07L857.573 152.884C858.675 153.671 860.281 154.545 862.354 155.507L862.775 154.6L863.196 153.693C861.162 152.749 859.687 151.936 858.736 151.256L858.155 152.07ZM862.775 154.6L862.381 155.519C864.525 156.438 866.816 157.048 869.251 157.352L869.375 156.36L869.499 155.368C867.239 155.085 865.131 154.522 863.169 153.681L862.775 154.6ZM869.375 156.36L868.375 156.329L868.265 159.849L869.265 159.88L870.264 159.911L870.374 156.391L869.375 156.36ZM869.265 159.88L869.281 158.88C864.963 158.808 861.475 158.16 858.774 156.983L858.375 157.9L857.975 158.817C860.995 160.133 864.766 160.805 869.248 160.88L869.265 159.88ZM858.375 157.9L858.794 156.992C856.029 155.716 853.63 154.091 851.589 152.121L850.895 152.84L850.2 153.559C852.412 155.696 855 157.444 857.956 158.808L858.375 157.9ZM850.895 152.84L851.602 152.133C849.502 150.033 844.867 144.925 837.674 136.778L836.925 137.44L836.175 138.102C843.355 146.235 848.034 151.394 850.188 153.547L850.895 152.84ZM836.925 137.44L837.681 136.785C830.568 128.573 825.22 122.31 821.634 117.991L820.865 118.63L820.095 119.269C823.695 123.604 829.054 129.88 836.169 138.095L836.925 137.44ZM820.865 118.63L821.615 119.292L855.385 81.0115L854.635 80.35L853.885 79.6884L820.115 117.968L820.865 118.63ZM854.635 80.35V81.35H860.795V80.35V79.35H854.635V80.35ZM818.775 80.35H817.775V159H818.775H819.775V80.35H818.775ZM818.775 159V158H813.495V159V160H818.775V159ZM813.495 159H814.495V80.35H813.495H812.495V159H813.495ZM813.495 80.35V81.35H818.775V80.35V79.35H813.495V80.35Z" fill="black" mask="url(#path-3-outside-1_4368_61)"/>
</svg>
