<svg width="919" height="224" viewBox="0 0 919 224" fill="none" xmlns="http://www.w3.org/2000/svg">
<path d="M191.196 191.196C175.758 206.634 156.143 217.224 134.766 221.662C113.389 226.1 91.1802 224.193 70.8723 216.175C50.5644 208.158 33.0427 194.38 20.4622 176.536C7.88167 158.691 0.791038 137.559 0.0623893 115.738C-0.666259 93.9168 4.99886 72.3586 16.3609 53.7148C27.723 35.071 44.2866 20.1546 64.0144 10.8003C83.7422 1.44606 105.774 -1.93819 127.4 1.06384C149.026 4.06586 169.302 13.3233 185.736 27.6974L158.962 58.3083C148.496 49.1535 135.581 43.2575 121.808 41.3456C108.035 39.4336 94.0028 41.589 81.4383 47.5467C68.8738 53.5044 58.3246 63.0045 51.0882 74.8786C43.8517 86.7527 40.2437 100.483 40.7077 114.381C41.1718 128.278 45.6878 141.737 53.7002 153.102C61.7126 164.467 72.8721 173.242 85.8061 178.349C98.74 183.455 112.884 184.669 126.5 181.843C140.115 179.016 152.607 172.272 162.439 162.439L191.196 191.196Z" fill="#80DAFD"/>
<circle cx="112.756" cy="112.751" r="24.5" fill="#80DAFD"/>
<mask id="path-3-outside-1_3060_1405" maskUnits="userSpaceOnUse" x="202" y="70.0001" width="673" height="84" fill="black">
<rect fill="white" x="202" y="70.0001" width="673" height="84"/>
<path d="M245.7 152.32C234.26 152.32 224.433 148.433 216.22 140.66C208.007 132.813 203.9 123.17 203.9 111.73C203.9 100.217 207.493 90.5734 214.68 82.8001C221.867 74.9534 231.07 71.0301 242.29 71.0301C251.09 71.0301 260 72.4967 269.02 75.4301L267.59 79.8301C258.79 77.1901 250.357 75.8701 242.29 75.8701C232.683 75.8701 224.837 79.3167 218.75 86.2101C212.663 93.1034 209.62 101.537 209.62 111.51C209.62 121.483 213.14 129.99 220.18 137.03C227.293 143.997 235.8 147.48 245.7 147.48C254.353 147.48 261.833 146.16 268.14 143.52L269.79 147.26C267.003 148.873 263.337 150.12 258.79 151C254.317 151.88 249.953 152.32 245.7 152.32ZM295.034 140.55C287.774 132.703 284.144 123.06 284.144 111.62C284.144 100.18 287.774 90.5734 295.034 82.8001C302.367 74.9534 311.607 71.0301 322.754 71.0301C333.901 71.0301 343.141 74.9534 350.474 82.8001C357.807 90.5734 361.474 100.18 361.474 111.62C361.474 123.06 357.807 132.703 350.474 140.55C343.141 148.397 333.901 152.32 322.754 152.32C311.607 152.32 302.367 148.397 295.034 140.55ZM298.994 86.2101C292.907 93.0301 289.864 101.5 289.864 111.62C289.864 121.74 292.907 130.247 298.994 137.14C305.154 144.033 313.074 147.48 322.754 147.48C332.507 147.48 340.427 144.033 346.514 137.14C352.674 130.247 355.754 121.74 355.754 111.62C355.754 101.5 352.674 93.0301 346.514 86.2101C340.427 79.3167 332.507 75.8701 322.754 75.8701C313.001 75.8701 305.081 79.3167 298.994 86.2101ZM411.064 147.15C421.404 147.15 429.69 144.363 435.924 138.79C442.23 133.143 445.384 124.673 445.384 113.38C445.384 102.087 441.827 93.1034 434.714 86.4301C427.674 79.7567 418.947 76.4201 408.534 76.4201C401.86 76.4201 396.067 76.6034 391.154 76.9701V146.27C395.92 146.857 402.557 147.15 411.064 147.15ZM408.534 71.5801C420.634 71.5801 430.754 75.3567 438.894 82.9101C447.034 90.3901 451.104 100.583 451.104 113.49C451.104 120.017 450.04 125.81 447.914 130.87C445.86 135.857 443 139.853 439.334 142.86C431.78 148.947 422.357 151.99 411.064 151.99C403.657 151.99 395.26 151.587 385.874 150.78V72.3501C393.354 71.8367 400.907 71.5801 408.534 71.5801ZM475.571 151V72.3501H512.091V76.9701H480.851V105.9H509.121V110.41H480.851V146.38H513.301V151H475.571ZM554.788 131.97L577.558 73.8901H580.748L600.658 132.41C602.198 137.03 603.225 140.367 603.738 142.42C604.325 140 605.351 136.7 606.818 132.52L627.058 72.3501H632.558L605.168 151.66H602.088L581.738 93.3601C581.445 92.4067 581.115 91.4534 580.748 90.5001C580.455 89.5467 580.198 88.7034 579.978 87.9701C579.758 87.2367 579.538 86.6134 579.318 86.1001L578.878 84.7801C578.805 84.4134 578.768 84.1934 578.768 84.1201C577.888 86.7601 576.751 89.8034 575.358 93.2501L552.368 151.66H549.288L521.678 72.3501H527.508L547.638 131.53C548.591 134.17 549.361 136.553 549.948 138.68C550.608 140.807 550.975 141.98 551.048 142.2C551.415 140.513 552.661 137.103 554.788 131.97ZM654.253 140.55C646.993 132.703 643.363 123.06 643.363 111.62C643.363 100.18 646.993 90.5734 654.253 82.8001C661.586 74.9534 670.826 71.0301 681.973 71.0301C693.12 71.0301 702.36 74.9534 709.693 82.8001C717.026 90.5734 720.693 100.18 720.693 111.62C720.693 123.06 717.026 132.703 709.693 140.55C702.36 148.397 693.12 152.32 681.973 152.32C670.826 152.32 661.586 148.397 654.253 140.55ZM658.213 86.2101C652.126 93.0301 649.083 101.5 649.083 111.62C649.083 121.74 652.126 130.247 658.213 137.14C664.373 144.033 672.293 147.48 681.973 147.48C691.726 147.48 699.646 144.033 705.733 137.14C711.893 130.247 714.973 121.74 714.973 111.62C714.973 101.5 711.893 93.0301 705.733 86.2101C699.646 79.3167 691.726 75.8701 681.973 75.8701C672.22 75.8701 664.3 79.3167 658.213 86.2101ZM745.092 151V72.6801C752.059 72.1667 757.889 71.9101 762.582 71.9101C770.062 71.9101 776.222 73.8534 781.062 77.7401C785.902 81.5534 788.322 86.9801 788.322 94.0201C788.322 98.7867 786.929 103.223 784.142 107.33C781.356 111.437 778.239 114.7 774.792 117.12C777.506 120.86 780.842 125.333 784.802 130.54C788.836 135.673 791.439 138.9 792.612 140.22C797.086 144.987 802.146 147.7 807.792 148.36L807.682 151.88C803.209 151.807 799.579 151.147 796.792 149.9C794.006 148.58 791.329 146.6 788.762 143.96C786.269 141.32 779.999 133.107 769.952 119.32C762.766 119.32 756.239 119.1 750.372 118.66V151H745.092ZM766.762 114.92C769.989 114.92 773.436 112.793 777.102 108.54C780.769 104.287 782.602 99.3734 782.602 93.8001C782.602 88.1534 780.696 83.9001 776.882 81.0401C773.142 78.1067 768.156 76.6401 761.922 76.6401C758.622 76.6401 754.772 76.7867 750.372 77.0801V114.37C756.239 114.737 761.702 114.92 766.762 114.92ZM864.795 72.3501L831.355 110.41C835.828 115.763 840.961 121.74 846.755 128.34C852.621 134.94 856.398 139.01 858.085 140.55C859.845 142.09 861.201 143.263 862.155 144.07C863.181 144.803 864.721 145.647 866.775 146.6C868.828 147.48 871.028 148.067 873.375 148.36L873.265 151.88C868.865 151.807 865.235 151.147 862.375 149.9C859.515 148.58 857.021 146.893 854.895 144.84C852.768 142.713 848.111 137.58 840.925 129.44C833.811 121.227 828.458 114.957 824.865 110.63L858.635 72.3501H864.795ZM822.775 72.3501V151H817.495V72.3501H822.775Z"/>
</mask>
<path d="M245.7 152.32C234.26 152.32 224.433 148.433 216.22 140.66C208.007 132.813 203.9 123.17 203.9 111.73C203.9 100.217 207.493 90.5734 214.68 82.8001C221.867 74.9534 231.07 71.0301 242.29 71.0301C251.09 71.0301 260 72.4967 269.02 75.4301L267.59 79.8301C258.79 77.1901 250.357 75.8701 242.29 75.8701C232.683 75.8701 224.837 79.3167 218.75 86.2101C212.663 93.1034 209.62 101.537 209.62 111.51C209.62 121.483 213.14 129.99 220.18 137.03C227.293 143.997 235.8 147.48 245.7 147.48C254.353 147.48 261.833 146.16 268.14 143.52L269.79 147.26C267.003 148.873 263.337 150.12 258.79 151C254.317 151.88 249.953 152.32 245.7 152.32ZM295.034 140.55C287.774 132.703 284.144 123.06 284.144 111.62C284.144 100.18 287.774 90.5734 295.034 82.8001C302.367 74.9534 311.607 71.0301 322.754 71.0301C333.901 71.0301 343.141 74.9534 350.474 82.8001C357.807 90.5734 361.474 100.18 361.474 111.62C361.474 123.06 357.807 132.703 350.474 140.55C343.141 148.397 333.901 152.32 322.754 152.32C311.607 152.32 302.367 148.397 295.034 140.55ZM298.994 86.2101C292.907 93.0301 289.864 101.5 289.864 111.62C289.864 121.74 292.907 130.247 298.994 137.14C305.154 144.033 313.074 147.48 322.754 147.48C332.507 147.48 340.427 144.033 346.514 137.14C352.674 130.247 355.754 121.74 355.754 111.62C355.754 101.5 352.674 93.0301 346.514 86.2101C340.427 79.3167 332.507 75.8701 322.754 75.8701C313.001 75.8701 305.081 79.3167 298.994 86.2101ZM411.064 147.15C421.404 147.15 429.69 144.363 435.924 138.79C442.23 133.143 445.384 124.673 445.384 113.38C445.384 102.087 441.827 93.1034 434.714 86.4301C427.674 79.7567 418.947 76.4201 408.534 76.4201C401.86 76.4201 396.067 76.6034 391.154 76.9701V146.27C395.92 146.857 402.557 147.15 411.064 147.15ZM408.534 71.5801C420.634 71.5801 430.754 75.3567 438.894 82.9101C447.034 90.3901 451.104 100.583 451.104 113.49C451.104 120.017 450.04 125.81 447.914 130.87C445.86 135.857 443 139.853 439.334 142.86C431.78 148.947 422.357 151.99 411.064 151.99C403.657 151.99 395.26 151.587 385.874 150.78V72.3501C393.354 71.8367 400.907 71.5801 408.534 71.5801ZM475.571 151V72.3501H512.091V76.9701H480.851V105.9H509.121V110.41H480.851V146.38H513.301V151H475.571ZM554.788 131.97L577.558 73.8901H580.748L600.658 132.41C602.198 137.03 603.225 140.367 603.738 142.42C604.325 140 605.351 136.7 606.818 132.52L627.058 72.3501H632.558L605.168 151.66H602.088L581.738 93.3601C581.445 92.4067 581.115 91.4534 580.748 90.5001C580.455 89.5467 580.198 88.7034 579.978 87.9701C579.758 87.2367 579.538 86.6134 579.318 86.1001L578.878 84.7801C578.805 84.4134 578.768 84.1934 578.768 84.1201C577.888 86.7601 576.751 89.8034 575.358 93.2501L552.368 151.66H549.288L521.678 72.3501H527.508L547.638 131.53C548.591 134.17 549.361 136.553 549.948 138.68C550.608 140.807 550.975 141.98 551.048 142.2C551.415 140.513 552.661 137.103 554.788 131.97ZM654.253 140.55C646.993 132.703 643.363 123.06 643.363 111.62C643.363 100.18 646.993 90.5734 654.253 82.8001C661.586 74.9534 670.826 71.0301 681.973 71.0301C693.12 71.0301 702.36 74.9534 709.693 82.8001C717.026 90.5734 720.693 100.18 720.693 111.62C720.693 123.06 717.026 132.703 709.693 140.55C702.36 148.397 693.12 152.32 681.973 152.32C670.826 152.32 661.586 148.397 654.253 140.55ZM658.213 86.2101C652.126 93.0301 649.083 101.5 649.083 111.62C649.083 121.74 652.126 130.247 658.213 137.14C664.373 144.033 672.293 147.48 681.973 147.48C691.726 147.48 699.646 144.033 705.733 137.14C711.893 130.247 714.973 121.74 714.973 111.62C714.973 101.5 711.893 93.0301 705.733 86.2101C699.646 79.3167 691.726 75.8701 681.973 75.8701C672.22 75.8701 664.3 79.3167 658.213 86.2101ZM745.092 151V72.6801C752.059 72.1667 757.889 71.9101 762.582 71.9101C770.062 71.9101 776.222 73.8534 781.062 77.7401C785.902 81.5534 788.322 86.9801 788.322 94.0201C788.322 98.7867 786.929 103.223 784.142 107.33C781.356 111.437 778.239 114.7 774.792 117.12C777.506 120.86 780.842 125.333 784.802 130.54C788.836 135.673 791.439 138.9 792.612 140.22C797.086 144.987 802.146 147.7 807.792 148.36L807.682 151.88C803.209 151.807 799.579 151.147 796.792 149.9C794.006 148.58 791.329 146.6 788.762 143.96C786.269 141.32 779.999 133.107 769.952 119.32C762.766 119.32 756.239 119.1 750.372 118.66V151H745.092ZM766.762 114.92C769.989 114.92 773.436 112.793 777.102 108.54C780.769 104.287 782.602 99.3734 782.602 93.8001C782.602 88.1534 780.696 83.9001 776.882 81.0401C773.142 78.1067 768.156 76.6401 761.922 76.6401C758.622 76.6401 754.772 76.7867 750.372 77.0801V114.37C756.239 114.737 761.702 114.92 766.762 114.92ZM864.795 72.3501L831.355 110.41C835.828 115.763 840.961 121.74 846.755 128.34C852.621 134.94 856.398 139.01 858.085 140.55C859.845 142.09 861.201 143.263 862.155 144.07C863.181 144.803 864.721 145.647 866.775 146.6C868.828 147.48 871.028 148.067 873.375 148.36L873.265 151.88C868.865 151.807 865.235 151.147 862.375 149.9C859.515 148.58 857.021 146.893 854.895 144.84C852.768 142.713 848.111 137.58 840.925 129.44C833.811 121.227 828.458 114.957 824.865 110.63L858.635 72.3501H864.795ZM822.775 72.3501V151H817.495V72.3501H822.775Z" fill="white"/>
<path d="M216.22 140.66L215.529 141.383L215.533 141.386L216.22 140.66ZM214.68 82.8001L215.414 83.4789L215.417 83.4755L214.68 82.8001ZM269.02 75.4301L269.971 75.7391L270.28 74.7883L269.329 74.4791L269.02 75.4301ZM267.59 79.8301L267.303 80.7879L268.239 81.0688L268.541 80.1391L267.59 79.8301ZM218.75 86.2101L218 85.5482L218 85.5482L218.75 86.2101ZM220.18 137.03L219.473 137.737L219.48 137.744L220.18 137.03ZM268.14 143.52L269.055 143.116L268.659 142.219L267.754 142.598L268.14 143.52ZM269.79 147.26L270.291 148.125L271.067 147.676L270.705 146.856L269.79 147.26ZM258.79 151L258.6 150.018L258.597 150.019L258.79 151ZM245.7 152.32V151.32C234.512 151.32 224.933 147.529 216.907 139.934L216.22 140.66L215.533 141.386C223.934 149.338 234.008 153.32 245.7 153.32V152.32ZM216.22 140.66L216.911 139.937C208.897 132.281 204.9 122.899 204.9 111.73H203.9H202.9C202.9 123.441 207.117 133.346 215.529 141.383L216.22 140.66ZM203.9 111.73H204.9C204.9 100.444 208.414 91.0506 215.414 83.4789L214.68 82.8001L213.946 82.1212C206.573 90.0962 202.9 99.9891 202.9 111.73H203.9ZM214.68 82.8001L215.417 83.4755C222.403 75.848 231.333 72.0301 242.29 72.0301V71.0301V70.0301C230.807 70.0301 221.33 74.0588 213.943 82.1246L214.68 82.8001ZM242.29 71.0301V72.0301C250.977 72.0301 259.783 73.4777 268.711 76.381L269.02 75.4301L269.329 74.4791C260.217 71.5158 251.203 70.0301 242.29 70.0301V71.0301ZM269.02 75.4301L268.069 75.121L266.639 79.521L267.59 79.8301L268.541 80.1391L269.971 75.7391L269.02 75.4301ZM267.59 79.8301L267.877 78.8722C258.997 76.2081 250.466 74.8701 242.29 74.8701V75.8701V76.8701C250.247 76.8701 258.583 78.172 267.303 80.7879L267.59 79.8301ZM242.29 75.8701V74.8701C232.411 74.8701 224.286 78.4292 218 85.5482L218.75 86.2101L219.5 86.8719C225.387 80.2043 232.956 76.8701 242.29 76.8701V75.8701ZM218.75 86.2101L218 85.5482C211.738 92.6403 208.62 101.315 208.62 111.51H209.62H210.62C210.62 101.758 213.588 93.5665 219.5 86.8719L218.75 86.2101ZM209.62 111.51H208.62C208.62 121.748 212.245 130.509 219.473 137.737L220.18 137.03L220.887 136.323C214.035 129.471 210.62 121.219 210.62 111.51H209.62ZM220.18 137.03L219.48 137.744C226.779 144.893 235.537 148.48 245.7 148.48V147.48V146.48C236.063 146.48 227.807 143.1 220.88 136.316L220.18 137.03ZM245.7 147.48V148.48C254.452 148.48 262.069 147.145 268.526 144.443L268.14 143.52L267.754 142.598C261.597 145.175 254.255 146.48 245.7 146.48V147.48ZM268.14 143.52L267.225 143.924L268.875 147.664L269.79 147.26L270.705 146.856L269.055 143.116L268.14 143.52ZM269.79 147.26L269.289 146.395C266.631 147.933 263.081 149.151 258.6 150.018L258.79 151L258.98 151.982C263.592 151.089 267.376 149.813 270.291 148.125L269.79 147.26ZM258.79 151L258.597 150.019C254.183 150.887 249.884 151.32 245.7 151.32V152.32V153.32C250.023 153.32 254.451 152.873 258.983 151.981L258.79 151ZM295.034 140.55L294.3 141.229L294.304 141.233L295.034 140.55ZM295.034 82.8001L294.304 82.1173L294.303 82.1175L295.034 82.8001ZM350.474 82.8001L349.744 83.4829L349.747 83.4863L350.474 82.8001ZM350.474 140.55L349.744 139.867L349.744 139.867L350.474 140.55ZM298.994 86.2101L299.74 86.8759L299.744 86.8719L298.994 86.2101ZM298.994 137.14L298.245 137.802L298.248 137.806L298.994 137.14ZM346.514 137.14L345.768 136.474L345.765 136.478L346.514 137.14ZM346.514 86.2101L345.764 86.872L345.772 86.8803L346.514 86.2101ZM295.034 140.55L295.768 139.871C288.692 132.223 285.144 122.828 285.144 111.62H284.144H283.144C283.144 123.293 286.856 133.184 294.3 141.229L295.034 140.55ZM284.144 111.62H285.144C285.144 100.413 288.692 91.056 295.765 83.4826L295.034 82.8001L294.303 82.1175C286.857 90.0908 283.144 99.9476 283.144 111.62H284.144ZM295.034 82.8001L295.765 83.4829C302.901 75.847 311.873 72.0301 322.754 72.0301V71.0301V70.0301C311.342 70.0301 301.834 74.0598 294.304 82.1173L295.034 82.8001ZM322.754 71.0301V72.0301C333.636 72.0301 342.607 75.847 349.744 83.4829L350.474 82.8001L351.205 82.1173C343.674 74.0598 334.166 70.0301 322.754 70.0301V71.0301ZM350.474 82.8001L349.747 83.4863C356.892 91.0602 360.474 100.415 360.474 111.62H361.474H362.474C362.474 99.9447 358.723 90.0866 351.202 82.1138L350.474 82.8001ZM361.474 111.62H360.474C360.474 122.825 356.892 132.219 349.744 139.867L350.474 140.55L351.205 141.233C358.723 133.188 362.474 123.295 362.474 111.62H361.474ZM350.474 140.55L349.744 139.867C342.607 147.503 333.636 151.32 322.754 151.32V152.32V153.32C334.166 153.32 343.674 149.29 351.205 141.233L350.474 140.55ZM322.754 152.32V151.32C311.873 151.32 302.901 147.503 295.765 139.867L295.034 140.55L294.304 141.233C301.834 149.29 311.342 153.32 322.754 153.32V152.32ZM298.994 86.2101L298.248 85.5442C291.98 92.5675 288.864 101.283 288.864 111.62H289.864H290.864C290.864 101.717 293.835 93.4926 299.74 86.8759L298.994 86.2101ZM289.864 111.62H288.864C288.864 121.957 291.98 130.707 298.245 137.802L298.994 137.14L299.744 136.478C293.835 129.786 290.864 121.523 290.864 111.62H289.864ZM298.994 137.14L298.248 137.806C304.608 144.923 312.805 148.48 322.754 148.48V147.48V146.48C313.344 146.48 305.7 143.144 299.74 136.474L298.994 137.14ZM322.754 147.48V148.48C332.775 148.48 340.975 144.925 347.264 137.802L346.514 137.14L345.765 136.478C339.88 143.142 332.24 146.48 322.754 146.48V147.48ZM346.514 137.14L347.26 137.806C353.6 130.712 356.754 121.961 356.754 111.62H355.754H354.754C354.754 121.519 351.749 129.782 345.768 136.474L346.514 137.14ZM355.754 111.62H356.754C356.754 101.28 353.6 92.5627 347.256 85.5398L346.514 86.2101L345.772 86.8803C351.749 93.4974 354.754 101.721 354.754 111.62H355.754ZM346.514 86.2101L347.264 85.5482C340.975 78.4255 332.775 74.8701 322.754 74.8701V75.8701V76.8701C332.24 76.8701 339.88 80.2079 345.765 86.8719L346.514 86.2101ZM322.754 75.8701V74.8701C312.734 74.8701 304.534 78.4255 298.245 85.5482L298.994 86.2101L299.744 86.8719C305.628 80.2079 313.268 76.8701 322.754 76.8701V75.8701ZM435.924 138.79L436.59 139.536L436.591 139.535L435.924 138.79ZM434.714 86.4301L434.026 87.1558L434.029 87.1594L434.714 86.4301ZM391.154 76.9701L391.079 75.9728L390.154 76.0419V76.9701H391.154ZM391.154 146.27H390.154V147.155L391.031 147.263L391.154 146.27ZM438.894 82.9101L438.213 83.6431L438.217 83.6464L438.894 82.9101ZM447.914 130.87L446.992 130.483L446.989 130.489L447.914 130.87ZM439.334 142.86L439.961 143.639L439.968 143.633L439.334 142.86ZM385.874 150.78H384.874V151.698L385.788 151.776L385.874 150.78ZM385.874 72.3501L385.805 71.3524L384.874 71.4163V72.3501H385.874ZM411.064 147.15V148.15C421.589 148.15 430.133 145.309 436.59 139.536L435.924 138.79L435.257 138.045C429.248 143.418 421.218 146.15 411.064 146.15V147.15ZM435.924 138.79L436.591 139.535C443.174 133.641 446.384 124.858 446.384 113.38H445.384H444.384C444.384 124.489 441.287 132.646 435.256 138.045L435.924 138.79ZM445.384 113.38H446.384C446.384 101.858 442.745 92.5935 435.398 85.7008L434.714 86.4301L434.029 87.1594C440.909 93.6133 444.384 102.315 444.384 113.38H445.384ZM434.714 86.4301L435.401 85.7043C428.161 78.8412 419.182 75.4201 408.534 75.4201V76.4201V77.4201C418.712 77.4201 427.186 80.6723 434.026 87.1558L434.714 86.4301ZM408.534 76.4201V75.4201C401.843 75.4201 396.024 75.6038 391.079 75.9728L391.154 76.9701L391.228 77.9673C396.11 77.603 401.877 77.4201 408.534 77.4201V76.4201ZM391.154 76.9701H390.154V146.27H391.154H392.154V76.9701H391.154ZM391.154 146.27L391.031 147.263C395.858 147.857 402.542 148.15 411.064 148.15V147.15V146.15C402.572 146.15 395.982 145.857 391.276 145.278L391.154 146.27ZM408.534 71.5801V72.5801C420.406 72.5801 430.276 76.2774 438.213 83.6431L438.894 82.9101L439.574 82.177C431.231 74.436 420.861 70.5801 408.534 70.5801V71.5801ZM438.894 82.9101L438.217 83.6464C446.116 90.9049 450.104 100.812 450.104 113.49H451.104H452.104C452.104 100.355 447.951 89.8752 439.57 82.1737L438.894 82.9101ZM451.104 113.49H450.104C450.104 119.908 449.058 125.566 446.992 130.483L447.914 130.87L448.835 131.258C451.022 126.054 452.104 120.125 452.104 113.49H451.104ZM447.914 130.87L446.989 130.489C444.99 135.344 442.222 139.199 438.699 142.087L439.334 142.86L439.968 143.633C443.779 140.508 446.731 136.369 448.838 131.251L447.914 130.87ZM439.334 142.86L438.706 142.081C431.359 148.002 422.168 150.99 411.064 150.99V151.99V152.99C422.546 152.99 432.202 149.891 439.961 143.639L439.334 142.86ZM411.064 151.99V150.99C403.692 150.99 395.325 150.589 385.959 149.784L385.874 150.78L385.788 151.776C395.196 152.585 403.622 152.99 411.064 152.99V151.99ZM385.874 150.78H386.874V72.3501H385.874H384.874V150.78H385.874ZM385.874 72.3501L385.942 73.3477C393.399 72.836 400.929 72.5801 408.534 72.5801V71.5801V70.5801C400.884 70.5801 393.308 70.8375 385.805 71.3524L385.874 72.3501ZM475.571 151H474.571V152H475.571V151ZM475.571 72.3501V71.3501H474.571V72.3501H475.571ZM512.091 72.3501H513.091V71.3501H512.091V72.3501ZM512.091 76.9701V77.9701H513.091V76.9701H512.091ZM480.851 76.9701V75.9701H479.851V76.9701H480.851ZM480.851 105.9H479.851V106.9H480.851V105.9ZM509.121 105.9H510.121V104.9H509.121V105.9ZM509.121 110.41V111.41H510.121V110.41H509.121ZM480.851 110.41V109.41H479.851V110.41H480.851ZM480.851 146.38H479.851V147.38H480.851V146.38ZM513.301 146.38H514.301V145.38H513.301V146.38ZM513.301 151V152H514.301V151H513.301ZM475.571 151H476.571V72.3501H475.571H474.571V151H475.571ZM475.571 72.3501V73.3501H512.091V72.3501V71.3501H475.571V72.3501ZM512.091 72.3501H511.091V76.9701H512.091H513.091V72.3501H512.091ZM512.091 76.9701V75.9701H480.851V76.9701V77.9701H512.091V76.9701ZM480.851 76.9701H479.851V105.9H480.851H481.851V76.9701H480.851ZM480.851 105.9V106.9H509.121V105.9V104.9H480.851V105.9ZM509.121 105.9H508.121V110.41H509.121H510.121V105.9H509.121ZM509.121 110.41V109.41H480.851V110.41V111.41H509.121V110.41ZM480.851 110.41H479.851V146.38H480.851H481.851V110.41H480.851ZM480.851 146.38V147.38H513.301V146.38V145.38H480.851V146.38ZM513.301 146.38H512.301V151H513.301H514.301V146.38H513.301ZM513.301 151V150H475.571V151V152H513.301V151ZM554.788 131.97L555.712 132.353L555.715 132.344L555.719 132.335L554.788 131.97ZM577.558 73.8901V72.8901H576.876L576.627 73.5251L577.558 73.8901ZM580.748 73.8901L581.695 73.568L581.464 72.8901H580.748V73.8901ZM600.658 132.41L601.607 132.094L601.605 132.088L600.658 132.41ZM603.738 142.42L602.768 142.663L604.71 142.656L603.738 142.42ZM606.818 132.52L607.762 132.851L607.766 132.839L606.818 132.52ZM627.058 72.3501V71.3501H626.339L626.11 72.0312L627.058 72.3501ZM632.558 72.3501L633.503 72.6765L633.961 71.3501H632.558V72.3501ZM605.168 151.66V152.66H605.881L606.113 151.986L605.168 151.66ZM602.088 151.66L601.144 151.99L601.378 152.66H602.088V151.66ZM581.738 93.3601L580.782 93.6541L580.788 93.672L580.794 93.6896L581.738 93.3601ZM580.748 90.5001L579.792 90.7941L579.802 90.827L579.815 90.859L580.748 90.5001ZM579.978 87.9701L579.02 88.2574L579.02 88.2574L579.978 87.9701ZM579.318 86.1001L578.369 86.4163L578.382 86.4557L578.399 86.494L579.318 86.1001ZM578.878 84.7801L577.897 84.9762L577.91 85.0372L577.929 85.0963L578.878 84.7801ZM578.768 84.1201H579.768L577.819 83.8038L578.768 84.1201ZM575.358 93.2501L574.431 92.8753L574.427 92.8838L575.358 93.2501ZM552.368 151.66V152.66H553.049L553.298 152.026L552.368 151.66ZM549.288 151.66L548.344 151.989L548.577 152.66H549.288V151.66ZM521.678 72.3501V71.3501H520.271L520.734 72.6788L521.678 72.3501ZM527.508 72.3501L528.455 72.028L528.224 71.3501H527.508V72.3501ZM547.638 131.53L546.691 131.852L546.694 131.861L546.697 131.87L547.638 131.53ZM549.948 138.68L548.984 138.946L548.988 138.961L548.993 138.976L549.948 138.68ZM551.048 142.2L550.099 142.516L551.251 145.972L552.025 142.412L551.048 142.2ZM554.788 131.97L555.719 132.335L578.489 74.2551L577.558 73.8901L576.627 73.5251L553.857 131.605L554.788 131.97ZM577.558 73.8901V74.8901H580.748V73.8901V72.8901H577.558V73.8901ZM580.748 73.8901L579.801 74.2122L599.711 132.732L600.658 132.41L601.605 132.088L581.695 73.568L580.748 73.8901ZM600.658 132.41L599.709 132.726C601.249 137.345 602.265 140.65 602.768 142.663L603.738 142.42L604.708 142.178C604.185 140.084 603.147 136.715 601.607 132.094L600.658 132.41ZM603.738 142.42L604.71 142.656C605.285 140.284 606.299 137.02 607.762 132.851L606.818 132.52L605.874 132.189C604.404 136.38 603.364 139.717 602.766 142.184L603.738 142.42ZM606.818 132.52L607.766 132.839L628.006 72.6689L627.058 72.3501L626.11 72.0312L605.87 132.201L606.818 132.52ZM627.058 72.3501V73.3501H632.558V72.3501V71.3501H627.058V72.3501ZM632.558 72.3501L631.613 72.0236L604.223 151.334L605.168 151.66L606.113 151.986L633.503 72.6765L632.558 72.3501ZM605.168 151.66V150.66H602.088V151.66V152.66H605.168V151.66ZM602.088 151.66L603.032 151.331L582.682 93.0305L581.738 93.3601L580.794 93.6896L601.144 151.99L602.088 151.66ZM581.738 93.3601L582.694 93.066C582.394 92.0902 582.056 91.1153 581.681 90.1411L580.748 90.5001L579.815 90.859C580.173 91.7915 580.496 92.7232 580.782 93.6541L581.738 93.3601ZM580.748 90.5001L581.704 90.206C581.411 89.2543 581.155 88.4132 580.936 87.6827L579.978 87.9701L579.02 88.2574C579.241 88.9935 579.498 89.8392 579.792 90.7941L580.748 90.5001ZM579.978 87.9701L580.936 87.6827C580.709 86.9254 580.476 86.2643 580.237 85.7061L579.318 86.1001L578.399 86.494C578.6 86.9625 578.807 87.5481 579.02 88.2574L579.978 87.9701ZM579.318 86.1001L580.267 85.7838L579.827 84.4638L578.878 84.7801L577.929 85.0963L578.369 86.4163L579.318 86.1001ZM578.878 84.7801L579.859 84.5839C579.823 84.4051 579.798 84.2704 579.782 84.1757C579.774 84.1281 579.769 84.0968 579.767 84.0785C579.764 84.0505 579.768 84.0736 579.768 84.1201H578.768H577.768C577.768 84.2536 577.793 84.4092 577.809 84.5045C577.83 84.6297 577.86 84.7883 577.897 84.9762L578.878 84.7801ZM578.768 84.1201L577.819 83.8038C576.948 86.4188 575.819 89.4419 574.431 92.8753L575.358 93.2501L576.285 93.6248C577.684 90.1648 578.828 87.1013 579.717 84.4363L578.768 84.1201ZM575.358 93.2501L574.427 92.8838L551.437 151.294L552.368 151.66L553.298 152.026L576.288 93.6163L575.358 93.2501ZM552.368 151.66V150.66H549.288V151.66V152.66H552.368V151.66ZM549.288 151.66L550.232 151.331L522.622 72.0213L521.678 72.3501L520.734 72.6788L548.344 151.989L549.288 151.66ZM521.678 72.3501V73.3501H527.508V72.3501V71.3501H521.678V72.3501ZM527.508 72.3501L526.561 72.6721L546.691 131.852L547.638 131.53L548.585 131.208L528.455 72.028L527.508 72.3501ZM547.638 131.53L546.697 131.87C547.644 134.492 548.406 136.85 548.984 138.946L549.948 138.68L550.912 138.414C550.317 136.257 549.538 133.849 548.579 131.19L547.638 131.53ZM549.948 138.68L548.993 138.976C549.65 141.095 550.022 142.283 550.099 142.516L551.048 142.2L551.997 141.884C551.928 141.677 551.566 140.519 550.903 138.384L549.948 138.68ZM551.048 142.2L552.025 142.412C552.369 140.829 553.578 137.505 555.712 132.353L554.788 131.97L553.864 131.587C551.745 136.702 550.46 140.197 550.071 141.988L551.048 142.2ZM654.253 140.55L653.519 141.229L653.522 141.233L654.253 140.55ZM654.253 82.8001L653.522 82.1173L653.522 82.1175L654.253 82.8001ZM709.693 82.8001L708.962 83.4829L708.965 83.4863L709.693 82.8001ZM709.693 140.55L708.962 139.867L708.962 139.867L709.693 140.55ZM658.213 86.2101L658.959 86.8759L658.962 86.8719L658.213 86.2101ZM658.213 137.14L657.463 137.802L657.467 137.806L658.213 137.14ZM705.733 137.14L704.987 136.474L704.983 136.478L705.733 137.14ZM705.733 86.2101L704.983 86.872L704.991 86.8803L705.733 86.2101ZM654.253 140.55L654.987 139.871C647.911 132.223 644.363 122.828 644.363 111.62H643.363H642.363C642.363 123.293 646.075 133.184 653.519 141.229L654.253 140.55ZM643.363 111.62H644.363C644.363 100.413 647.91 91.056 654.984 83.4826L654.253 82.8001L653.522 82.1175C646.075 90.0908 642.363 99.9476 642.363 111.62H643.363ZM654.253 82.8001L654.983 83.4829C662.12 75.847 671.091 72.0301 681.973 72.0301V71.0301V70.0301C670.561 70.0301 661.053 74.0598 653.522 82.1173L654.253 82.8001ZM681.973 71.0301V72.0301C692.854 72.0301 701.826 75.847 708.962 83.4829L709.693 82.8001L710.423 82.1173C702.893 74.0598 693.385 70.0301 681.973 70.0301V71.0301ZM709.693 82.8001L708.965 83.4863C716.111 91.0602 719.693 100.415 719.693 111.62H720.693H721.693C721.693 99.9447 717.942 90.0866 710.42 82.1138L709.693 82.8001ZM720.693 111.62H719.693C719.693 122.825 716.111 132.219 708.962 139.867L709.693 140.55L710.423 141.233C717.942 133.188 721.693 123.295 721.693 111.62H720.693ZM709.693 140.55L708.962 139.867C701.826 147.503 692.854 151.32 681.973 151.32V152.32V153.32C693.385 153.32 702.893 149.29 710.423 141.233L709.693 140.55ZM681.973 152.32V151.32C671.091 151.32 662.12 147.503 654.983 139.867L654.253 140.55L653.522 141.233C661.053 149.29 670.561 153.32 681.973 153.32V152.32ZM658.213 86.2101L657.467 85.5442C651.199 92.5675 648.083 101.283 648.083 111.62H649.083H650.083C650.083 101.717 653.054 93.4926 658.959 86.8759L658.213 86.2101ZM649.083 111.62H648.083C648.083 121.957 651.199 130.707 657.463 137.802L658.213 137.14L658.962 136.478C653.054 129.786 650.083 121.523 650.083 111.62H649.083ZM658.213 137.14L657.467 137.806C663.827 144.923 672.023 148.48 681.973 148.48V147.48V146.48C672.562 146.48 664.919 143.144 658.959 136.474L658.213 137.14ZM681.973 147.48V148.48C691.993 148.48 700.193 144.925 706.482 137.802L705.733 137.14L704.983 136.478C699.099 143.142 691.459 146.48 681.973 146.48V147.48ZM705.733 137.14L706.479 137.806C712.818 130.712 715.973 121.961 715.973 111.62H714.973H713.973C713.973 121.519 710.967 129.782 704.987 136.474L705.733 137.14ZM714.973 111.62H715.973C715.973 101.28 712.818 92.5627 706.475 85.5398L705.733 86.2101L704.991 86.8803C710.967 93.4974 713.973 101.721 713.973 111.62H714.973ZM705.733 86.2101L706.482 85.5482C700.193 78.4255 691.993 74.8701 681.973 74.8701V75.8701V76.8701C691.459 76.8701 699.099 80.2079 704.983 86.8719L705.733 86.2101ZM681.973 75.8701V74.8701C671.952 74.8701 663.752 78.4255 657.463 85.5482L658.213 86.2101L658.962 86.8719C664.847 80.2079 672.487 76.8701 681.973 76.8701V75.8701ZM745.092 151H744.092V152H745.092V151ZM745.092 72.6801L745.019 71.6828L744.092 71.751V72.6801H745.092ZM781.062 77.7401L780.436 78.5198L780.443 78.5256L781.062 77.7401ZM784.142 107.33L783.315 106.769L783.315 106.769L784.142 107.33ZM774.792 117.12L774.218 116.302L773.386 116.885L773.983 117.707L774.792 117.12ZM784.802 130.54L784.006 131.145L784.011 131.152L784.016 131.158L784.802 130.54ZM792.612 140.22L791.865 140.884L791.874 140.895L791.883 140.904L792.612 140.22ZM807.792 148.36L808.792 148.391L808.82 147.473L807.908 147.367L807.792 148.36ZM807.682 151.88L807.666 152.88L808.651 152.896L808.682 151.911L807.682 151.88ZM796.792 149.9L796.364 150.804L796.374 150.808L796.384 150.813L796.792 149.9ZM788.762 143.96L788.035 144.647L788.04 144.652L788.045 144.657L788.762 143.96ZM769.952 119.32L770.76 118.731L770.461 118.32H769.952V119.32ZM750.372 118.66L750.447 117.663L749.372 117.582V118.66H750.372ZM750.372 151V152H751.372V151H750.372ZM777.102 108.54L776.345 107.887L776.345 107.887L777.102 108.54ZM776.882 81.0401L776.265 81.8269L776.274 81.8336L776.282 81.8401L776.882 81.0401ZM750.372 77.0801L750.306 76.0823L749.372 76.1445V77.0801H750.372ZM750.372 114.37H749.372V115.31L750.31 115.368L750.372 114.37ZM745.092 151H746.092V72.6801H745.092H744.092V151H745.092ZM745.092 72.6801L745.166 73.6774C752.119 73.165 757.922 72.9101 762.582 72.9101V71.9101V70.9101C757.856 70.9101 751.999 71.1684 745.019 71.6828L745.092 72.6801ZM762.582 71.9101V72.9101C769.883 72.9101 775.808 74.8033 780.436 78.5198L781.062 77.7401L781.688 76.9603C776.637 72.9035 770.242 70.9101 762.582 70.9101V71.9101ZM781.062 77.7401L780.443 78.5256C785.006 82.1207 787.322 87.237 787.322 94.0201H788.322H789.322C789.322 86.7231 786.798 80.9861 781.681 76.9546L781.062 77.7401ZM788.322 94.0201H787.322C787.322 98.578 785.994 102.82 783.315 106.769L784.142 107.33L784.97 107.892C787.864 103.626 789.322 98.9955 789.322 94.0201H788.322ZM784.142 107.33L783.315 106.769C780.584 110.793 777.549 113.962 774.218 116.302L774.792 117.12L775.367 117.938C778.929 115.438 782.127 112.081 784.97 107.892L784.142 107.33ZM774.792 117.12L773.983 117.707C776.702 121.455 780.043 125.935 784.006 131.145L784.802 130.54L785.598 129.935C781.641 124.732 778.309 120.265 775.602 116.533L774.792 117.12ZM784.802 130.54L784.016 131.158C788.043 136.284 790.667 139.537 791.865 140.884L792.612 140.22L793.36 139.556C792.211 138.263 789.628 135.063 785.589 129.922L784.802 130.54ZM792.612 140.22L791.883 140.904C796.492 145.816 801.76 148.662 807.676 149.353L807.792 148.36L807.908 147.367C802.531 146.738 797.679 144.158 793.341 139.536L792.612 140.22ZM807.792 148.36L806.793 148.329L806.683 151.849L807.682 151.88L808.682 151.911L808.792 148.391L807.792 148.36ZM807.682 151.88L807.699 150.88C803.303 150.808 799.82 150.159 797.201 148.987L796.792 149.9L796.384 150.813C799.338 152.134 803.115 152.805 807.666 152.88L807.682 151.88ZM796.792 149.9L797.22 148.996C794.56 147.736 791.978 145.834 789.479 143.263L788.762 143.96L788.045 144.657C790.679 147.367 793.451 149.424 796.364 150.804L796.792 149.9ZM788.762 143.96L789.489 143.273C787.051 140.691 780.825 132.543 770.76 118.731L769.952 119.32L769.144 119.909C779.173 133.671 785.487 141.949 788.035 144.647L788.762 143.96ZM769.952 119.32V118.32C762.785 118.32 756.284 118.101 750.447 117.663L750.372 118.66L750.297 119.657C756.194 120.099 762.746 120.32 769.952 120.32V119.32ZM750.372 118.66H749.372V151H750.372H751.372V118.66H750.372ZM750.372 151V150H745.092V151V152H750.372V151ZM766.762 114.92V115.92C770.436 115.92 774.137 113.512 777.86 109.193L777.102 108.54L776.345 107.887C772.735 112.075 769.542 113.92 766.762 113.92V114.92ZM777.102 108.54L777.86 109.193C781.682 104.76 783.602 99.6151 783.602 93.8001H782.602H781.602C781.602 99.1317 779.856 103.814 776.345 107.887L777.102 108.54ZM782.602 93.8001H783.602C783.602 87.9042 781.596 83.3251 777.482 80.2401L776.882 81.0401L776.282 81.8401C779.796 84.475 781.602 88.4026 781.602 93.8001H782.602ZM776.882 81.0401L777.499 80.2532C773.535 77.144 768.309 75.6401 761.922 75.6401V76.6401V77.6401C768.002 77.6401 772.749 79.0694 776.265 81.8269L776.882 81.0401ZM761.922 76.6401V75.6401C758.594 75.6401 754.721 75.7879 750.306 76.0823L750.372 77.0801L750.439 78.0778C754.823 77.7855 758.65 77.6401 761.922 77.6401V76.6401ZM750.372 77.0801H749.372V114.37H750.372H751.372V77.0801H750.372ZM750.372 114.37L750.31 115.368C756.194 115.736 761.678 115.92 766.762 115.92V114.92V113.92C761.726 113.92 756.284 113.738 750.435 113.372L750.372 114.37ZM864.795 72.3501L865.546 73.0101L867.004 71.3501H864.795V72.3501ZM831.355 110.41L830.603 109.75L830.038 110.394L830.587 111.051L831.355 110.41ZM846.755 128.34L846.003 129L846.007 129.004L846.755 128.34ZM858.085 140.55L857.41 141.289L857.418 141.296L857.426 141.303L858.085 140.55ZM862.155 144.07L861.509 144.833L861.54 144.86L861.573 144.884L862.155 144.07ZM866.775 146.6L866.354 147.507L866.367 147.513L866.381 147.519L866.775 146.6ZM873.375 148.36L874.374 148.391L874.403 147.481L873.499 147.368L873.375 148.36ZM873.265 151.88L873.248 152.88L874.233 152.896L874.264 151.911L873.265 151.88ZM862.375 149.9L861.956 150.808L861.965 150.812L861.975 150.817L862.375 149.9ZM854.895 144.84L854.188 145.547L854.194 145.553L854.2 145.559L854.895 144.84ZM840.925 129.44L840.169 130.095L840.175 130.102L840.925 129.44ZM824.865 110.63L824.115 109.969L823.548 110.61L824.095 111.269L824.865 110.63ZM858.635 72.3501V71.3501H858.183L857.885 71.6885L858.635 72.3501ZM822.775 72.3501H823.775V71.3501H822.775V72.3501ZM822.775 151V152H823.775V151H822.775ZM817.495 151H816.495V152H817.495V151ZM817.495 72.3501V71.3501H816.495V72.3501H817.495ZM864.795 72.3501L864.043 71.69L830.603 109.75L831.355 110.41L832.106 111.07L865.546 73.0101L864.795 72.3501ZM831.355 110.41L830.587 111.051C835.067 116.412 840.206 122.395 846.003 129L846.755 128.34L847.506 127.68C841.717 121.085 836.589 115.115 832.122 109.769L831.355 110.41ZM846.755 128.34L846.007 129.004C851.862 135.591 855.677 139.706 857.41 141.289L858.085 140.55L858.759 139.812C857.119 138.314 853.381 134.289 847.502 127.676L846.755 128.34ZM858.085 140.55L857.426 141.303C859.187 142.844 860.549 144.021 861.509 144.833L862.155 144.07L862.801 143.307C861.854 142.505 860.502 141.336 858.743 139.797L858.085 140.55ZM862.155 144.07L861.573 144.884C862.675 145.671 864.281 146.545 866.354 147.507L866.775 146.6L867.196 145.693C865.162 144.749 863.687 143.936 862.736 143.256L862.155 144.07ZM866.775 146.6L866.381 147.519C868.525 148.438 870.816 149.048 873.251 149.352L873.375 148.36L873.499 147.368C871.239 147.085 869.131 146.522 867.169 145.681L866.775 146.6ZM873.375 148.36L872.375 148.329L872.265 151.849L873.265 151.88L874.264 151.911L874.374 148.391L873.375 148.36ZM873.265 151.88L873.281 150.88C868.963 150.808 865.475 150.16 862.774 148.983L862.375 149.9L861.975 150.817C864.995 152.133 868.766 152.805 873.248 152.88L873.265 151.88ZM862.375 149.9L862.794 148.992C860.029 147.716 857.63 146.091 855.589 144.121L854.895 144.84L854.2 145.559C856.412 147.696 859 149.444 861.956 150.808L862.375 149.9ZM854.895 144.84L855.602 144.133C853.502 142.033 848.867 136.925 841.674 128.778L840.925 129.44L840.175 130.102C847.355 138.235 852.034 143.394 854.188 145.547L854.895 144.84ZM840.925 129.44L841.681 128.785C834.568 120.573 829.22 114.31 825.634 109.991L824.865 110.63L824.095 111.269C827.695 115.604 833.054 121.88 840.169 130.095L840.925 129.44ZM824.865 110.63L825.615 111.292L859.385 73.0116L858.635 72.3501L857.885 71.6885L824.115 109.969L824.865 110.63ZM858.635 72.3501V73.3501H864.795V72.3501V71.3501H858.635V72.3501ZM822.775 72.3501H821.775V151H822.775H823.775V72.3501H822.775ZM822.775 151V150H817.495V151V152H822.775V151ZM817.495 151H818.495V72.3501H817.495H816.495V151H817.495ZM817.495 72.3501V73.3501H822.775V72.3501V71.3501H817.495V72.3501Z" fill="white" mask="url(#path-3-outside-1_3060_1405)"/>
<g clip-path="url(#clip0_3060_1405)">
<path d="M898.292 59.3084H894.019V70.3334H891.102V59.3084H886.917V57.2084H898.292V59.3084ZM903.687 57.2084L907.333 66.6875L910.848 57.2084H914.625V70.3334H911.708V66.6875L912.029 60.475L908.252 70.3334H906.283L902.521 60.4896L902.812 66.6875V70.3334H899.896V57.2084H903.687Z" fill="white"/>
</g>
<defs>
<clipPath id="clip0_3060_1405">
<rect width="35" height="35" fill="white" transform="translate(884 47.0001)"/>
</clipPath>
</defs>
</svg>
