<svg width="153" height="49" viewBox="0 0 153 49" fill="none" xmlns="http://www.w3.org/2000/svg">
<path d="M32.4041 0C33.4755 2.51071 34.6684 3.70566 38.0832 5.62838C35.3387 6.59529 34.0495 7.76789 32.4041 11.2568C30.8337 7.92423 29.6759 6.97197 26.7251 5.62838C29.8621 4.41044 31.0545 3.07302 32.4041 0Z" fill="#CDD2FF"/>
<path d="M37.0806 7.94531C37.5218 8.97915 38.013 9.4712 39.419 10.2629C38.289 10.661 37.7582 11.1439 37.0806 12.5804C36.4339 11.2082 35.9572 10.8161 34.7422 10.2629C36.0339 9.76136 36.5249 9.21064 37.0806 7.94531Z" fill="#BA4AE6"/>
<path d="M51.5146 34.4333V19.6221H54.0375V26.0424H61.4563V19.6221H63.9791V34.4333H61.4563V28.3732H54.0375V34.4333H51.5146ZM69.2246 38.9254C68.1843 38.9254 67.2436 38.5511 66.4024 37.8024L67.4928 35.8742C67.9919 36.3403 68.505 36.5734 69.0321 36.5734C69.574 36.5734 70.0083 36.3827 70.3363 36.0013C70.6784 35.6199 70.8494 35.2032 70.8494 34.7512C70.8494 34.5534 69.3174 30.6899 66.2528 23.1607H68.8183L72.2178 31.4668L75.6172 23.1607H78.1828L72.6667 36.5522C72.3387 37.2868 71.8683 37.866 71.2557 38.2897C70.643 38.7135 69.9655 38.9254 69.2246 38.9254ZM86.1621 22.9912C87.6875 22.9912 88.9916 23.5138 90.0747 24.5592C91.1577 25.6045 91.6995 26.9959 91.6995 28.7334C91.6995 30.4709 91.1577 31.8835 90.0747 32.9713C89.0057 34.059 87.7516 34.6028 86.3118 34.6028C84.8867 34.6028 83.6039 33.9813 82.4634 32.7382V38.544H80.0689V23.1607H82.4634V25.1313C83.4041 23.7045 84.6368 22.9912 86.1621 22.9912ZM82.4207 28.8182C82.4207 29.8917 82.7487 30.7747 83.4041 31.4668C84.0596 32.1449 84.858 32.4839 85.7987 32.4839C86.7394 32.4839 87.5592 32.1449 88.2574 31.4668C88.9556 30.7888 89.305 29.9129 89.305 28.8394C89.305 27.7516 88.9629 26.8547 88.2788 26.1483C87.5946 25.4279 86.7748 25.0677 85.8201 25.0677C84.8653 25.0677 84.0596 25.4279 83.4041 26.1483C82.7487 26.8547 82.4207 27.7446 82.4207 28.8182ZM105.017 29.8353H96.1011C96.1579 30.6546 96.5361 31.3185 97.2343 31.827C97.9324 32.3215 98.7309 32.5687 99.6288 32.5687C101.054 32.5687 102.138 32.1237 102.879 31.2337L104.247 32.717C103.021 33.9742 101.425 34.6028 99.4578 34.6028C97.8616 34.6028 96.5 34.0802 95.3742 33.0348C94.2625 31.9754 93.7066 30.5628 93.7066 28.797C93.7066 27.0171 94.2765 25.6045 95.417 24.5592C96.5574 23.5138 97.897 22.9912 99.4364 22.9912C100.99 22.9912 102.309 23.4573 103.392 24.3896C104.475 25.3079 105.017 26.5792 105.017 28.2037V29.8353ZM96.1011 27.9706H102.622C102.622 27.0242 102.323 26.2967 101.724 25.7881C101.125 25.2796 100.384 25.0253 99.5005 25.0253C98.6313 25.0253 97.8469 25.2937 97.1487 25.8305C96.4506 26.3531 96.1011 27.0666 96.1011 27.9706ZM113.615 25.3855C112.432 25.3855 111.541 25.7669 110.942 26.5297C110.343 27.2926 110.044 28.3167 110.044 29.6022V34.4333H107.65V23.1607H110.044V25.4279C110.429 24.7216 110.949 24.1425 111.605 23.6904C112.275 23.2383 112.981 23.0053 113.722 22.9912L113.743 25.3855C113.7 25.3855 113.657 25.3855 113.615 25.3855ZM119.012 21.9529V26.0212H125.64V28.3308H119.012V34.4333H116.49V19.6221H126.453L126.431 21.9529H119.012ZM131.445 34.4333H129.051V18.7109H131.445V34.4333Z" fill="white"/>
<path fill-rule="evenodd" clip-rule="evenodd" d="M26.4697 17.6731C29.321 17.0497 31.8847 17.1834 33.4549 17.386C33.505 17.3924 33.5582 17.4145 33.6159 17.487C33.6795 17.5668 33.7402 17.7048 33.7402 17.8885V39.6746C33.7402 40.1495 33.3289 40.5179 32.9013 40.5038C30.8659 40.4374 27.8751 40.4978 25.0532 41.1736C23.1144 41.6379 21.5638 42.4133 20.3777 43.2104V21.2987C20.3777 20.901 20.4693 20.6994 20.5355 20.6145C20.7423 20.3502 21.3754 19.7858 22.4653 19.1763C23.5176 18.5879 24.8875 18.019 26.4697 17.6731ZM33.886 14.1029C32.0659 13.8681 29.0915 13.7095 25.7501 14.44C23.8208 14.8619 22.1418 15.5558 20.8239 16.2928C19.5434 17.0088 18.4851 17.8322 17.8956 18.5858C17.2172 19.453 17.0371 20.471 17.0371 21.2987V47.0144C17.0371 47.7445 17.5198 48.3884 18.225 48.5993C18.9269 48.809 19.6844 48.5407 20.0933 47.9385L20.0963 47.9339L20.0944 47.9368L20.0933 47.9385C20.0933 47.9385 20.0954 47.9354 20.0974 47.9325C20.1046 47.9223 20.1197 47.9017 20.1424 47.8715C20.188 47.8113 20.2648 47.7136 20.3734 47.5883C20.5911 47.3372 20.9337 46.9778 21.4071 46.5836C22.3527 45.7961 23.81 44.8774 25.838 44.3919C28.2362 43.8175 30.8838 43.7506 32.7913 43.8128C35.0959 43.8881 37.0808 42.0307 37.0808 39.6746V17.8885C37.0808 16.1399 35.9025 14.363 33.886 14.1029Z" fill="#CDD2FF"/>
<path fill-rule="evenodd" clip-rule="evenodd" d="M10.945 17.6731C8.09376 17.0497 5.53012 17.1834 3.95982 17.386C3.90984 17.3924 3.85641 17.4145 3.79881 17.487C3.73531 17.5668 3.6746 17.7048 3.6746 17.8885V39.6746C3.6746 40.1495 4.0858 40.5179 4.51344 40.5038C6.54879 40.4374 9.53977 40.4978 12.3615 41.1736C14.3004 41.6379 15.851 42.4133 17.037 43.2104V21.2987C17.037 20.901 16.9455 20.6994 16.8792 20.6145C16.6724 20.3502 16.0394 19.7858 14.9494 19.1763C13.8972 18.5879 12.5272 18.019 10.945 17.6731ZM3.5287 14.1029C5.34893 13.8681 8.32326 13.7095 11.6647 14.44C13.5941 14.8619 15.273 15.5558 16.5909 16.2928C17.8713 17.0088 18.9297 17.8322 19.5191 18.5858C20.1976 19.453 20.3777 20.471 20.3777 21.2987V47.0144C20.3777 47.7445 19.8949 48.3884 19.1897 48.5993C18.4879 48.809 17.7304 48.5407 17.3215 47.9385L17.3185 47.9339L17.3203 47.9368L17.3215 47.9385C17.3215 47.9385 17.3193 47.9354 17.3173 47.9325C17.3102 47.9223 17.2951 47.9017 17.2724 47.8715C17.2268 47.8113 17.15 47.7136 17.0414 47.5883C16.8237 47.3372 16.481 46.9778 16.0077 46.5836C15.0621 45.7961 13.6048 44.8774 11.5769 44.3919C9.17859 43.8175 6.53101 43.7506 4.62344 43.8128C2.31888 43.8881 0.333984 42.0307 0.333984 39.6746V17.8885C0.333984 16.1399 1.51227 14.363 3.5287 14.1029Z" fill="#CDD2FF"/>
<path d="M11.7758 25.8242H8.01758" stroke="#BA4AE6" stroke-width="3.75" stroke-linecap="round" stroke-linejoin="round"/>
<path d="M13.0285 30.791H8.01758" stroke="#BA4AE6" stroke-width="3.75" stroke-linecap="round" stroke-linejoin="round"/>
<path d="M134.145 24.6422C134.964 23.9035 135.982 23.4181 137.076 23.2457C138.169 23.0733 139.289 23.2213 140.299 23.6716C141.308 24.1219 142.163 24.8548 142.758 25.7802C143.353 26.7056 143.662 27.7831 143.647 28.8802C143.631 29.9773 143.293 31.0461 142.674 31.9553C142.054 32.8644 141.179 33.5741 140.158 33.9972C139.136 34.4203 138.013 34.5383 136.924 34.3367C135.836 34.135 134.831 33.6226 134.033 32.8623L135.462 31.3888C135.97 31.873 136.61 32.1993 137.304 32.3278C137.997 32.4562 138.712 32.381 139.363 32.1116C140.014 31.8421 140.57 31.39 140.965 30.8111C141.36 30.2321 141.575 29.5513 141.585 28.8526C141.594 28.1539 141.397 27.4676 141.018 26.8782C140.64 26.2889 140.096 25.8221 139.452 25.5353C138.81 25.2485 138.096 25.1542 137.4 25.2641C136.704 25.3738 136.055 25.6829 135.533 26.1534L134.145 24.6422Z" fill="white"/>
<path d="M151.336 32.784C150.554 33.5599 149.559 34.092 148.476 34.315C147.391 34.5381 146.265 34.4422 145.236 34.0394C144.206 33.6364 143.318 32.944 142.68 32.0473C142.042 31.1505 141.682 30.0886 141.645 28.992C141.608 27.8954 141.895 26.8121 142.472 25.8752C143.048 24.9382 143.888 24.1886 144.888 23.7186C145.888 23.2484 147.005 23.0784 148.102 23.2292C149.198 23.3801 150.227 23.8453 151.06 24.5677L149.702 26.106C149.172 25.6459 148.517 25.3496 147.818 25.2535C147.12 25.1574 146.408 25.2658 145.772 25.5651C145.134 25.8646 144.599 26.342 144.232 26.9387C143.865 27.5354 143.682 28.2254 143.706 28.9238C143.73 29.6222 143.958 30.2985 144.365 30.8697C144.771 31.4408 145.337 31.8818 145.993 32.1384C146.649 32.395 147.366 32.4561 148.056 32.314C148.747 32.172 149.38 31.833 149.879 31.3389L151.336 32.784Z" fill="#CDD2FF"/>
<path d="M147.358 30.0737C148.044 30.0737 148.6 29.5225 148.6 28.8425C148.6 28.1626 148.044 27.6113 147.358 27.6113C146.671 27.6113 146.115 28.1626 146.115 28.8425C146.115 29.5225 146.671 30.0737 147.358 30.0737Z" fill="#CDD2FF"/>
</svg>
