<svg width="285" height="177" viewBox="0 0 285 177" fill="none" xmlns="http://www.w3.org/2000/svg">
<g filter="url(#filter0_dd_2870_1623)">
<path d="M30 62C30 44.3269 44.3269 30 62 30H222.4C240.074 30 254.4 44.3269 254.4 62V115C254.4 132.673 240.074 147 222.4 147H62C44.3269 147 30 132.673 30 115V62Z" fill="#F5F5F5"/>
</g>
<path d="M133.439 95.6893C133.439 98.2763 132.862 100.564 131.709 102.551C130.586 104.507 129.058 106.037 127.125 107.142C125.224 108.246 123.088 108.798 120.718 108.798C118.349 108.798 116.197 108.246 114.264 107.142C112.363 106.037 110.835 104.507 109.681 102.551C108.559 100.564 107.998 98.2763 107.998 95.6893C107.998 93.1022 108.559 90.8307 109.681 88.8746C110.835 86.887 112.363 85.3411 114.264 84.2369C116.197 83.1011 118.349 82.5332 120.718 82.5332C123.088 82.5332 125.224 83.1011 127.125 84.2369C129.058 85.3411 130.586 86.887 131.709 88.8746C132.862 90.8307 133.439 93.1022 133.439 95.6893ZM127.827 95.6893C127.827 94.0802 127.5 92.6921 126.845 91.5247C126.221 90.3259 125.364 89.3952 124.273 88.7326C123.213 88.0701 122.028 87.7388 120.718 87.7388C119.409 87.7388 118.208 88.0701 117.117 88.7326C116.057 89.3952 115.2 90.3259 114.545 91.5247C113.921 92.6921 113.61 94.0802 113.61 95.6893C113.61 97.2667 113.921 98.6549 114.545 99.8538C115.2 101.021 116.057 101.936 117.117 102.599C118.208 103.261 119.409 103.592 120.718 103.592C122.028 103.592 123.213 103.261 124.273 102.599C125.364 101.936 126.221 101.021 126.845 99.8538C127.5 98.6549 127.827 97.2667 127.827 95.6893ZM139.245 83.0064C139.837 83.0064 140.383 83.1642 140.882 83.4797C141.38 83.7636 141.755 84.2053 142.004 84.8047L148.879 100.706L147.85 101.179L154.865 84.8521C155.395 83.5901 156.221 82.9907 157.344 83.0538C158.123 83.0538 158.747 83.3062 159.214 83.8109C159.713 84.2842 159.963 84.8836 159.963 85.6093C159.963 85.8301 159.916 86.0667 159.822 86.3191C159.76 86.5715 159.682 86.8081 159.589 87.029L150.843 106.526C150.344 107.662 149.549 108.262 148.458 108.325C147.866 108.419 147.289 108.309 146.728 107.993C146.198 107.678 145.792 107.189 145.512 106.526L136.813 87.029C136.751 86.8712 136.673 86.6662 136.579 86.4138C136.517 86.1614 136.486 85.8616 136.486 85.5146C136.486 84.9467 136.735 84.3946 137.234 83.8583C137.733 83.2904 138.403 83.0064 139.245 83.0064ZM169.668 105.438C169.668 106.258 169.403 106.952 168.873 107.52C168.343 108.057 167.673 108.325 166.862 108.325C166.051 108.325 165.381 108.057 164.851 107.52C164.321 106.952 164.056 106.258 164.056 105.438V85.8932C164.056 85.0729 164.321 84.3946 164.851 83.8583C165.381 83.2904 166.051 83.0064 166.862 83.0064C167.673 83.0064 168.343 83.2904 168.873 83.8583C169.403 84.3946 169.668 85.0729 169.668 85.8932V105.438ZM166.815 79.9304C165.755 79.9304 165.007 79.7569 164.57 79.4098C164.134 79.0628 163.916 78.4476 163.916 77.5642V76.665C163.916 75.7501 164.15 75.1349 164.617 74.8194C165.116 74.4723 165.864 74.2988 166.862 74.2988C167.953 74.2988 168.717 74.4723 169.154 74.8194C169.59 75.1664 169.808 75.7816 169.808 76.665V77.5642C169.808 78.4791 169.575 79.1101 169.107 79.4571C168.639 79.7726 167.875 79.9304 166.815 79.9304ZM199.708 95.6893C199.708 98.2763 199.131 100.564 197.978 102.551C196.855 104.507 195.327 106.037 193.394 107.142C191.493 108.246 189.357 108.798 186.987 108.798C184.618 108.798 182.466 108.246 180.533 107.142C178.631 106.037 177.104 104.507 175.95 102.551C174.828 100.564 174.267 98.2763 174.267 95.6893C174.267 93.1022 174.828 90.8307 175.95 88.8746C177.104 86.887 178.631 85.3411 180.533 84.2369C182.466 83.1011 184.618 82.5332 186.987 82.5332C189.357 82.5332 191.493 83.1011 193.394 84.2369C195.327 85.3411 196.855 86.887 197.978 88.8746C199.131 90.8307 199.708 93.1022 199.708 95.6893ZM194.096 95.6893C194.096 94.0802 193.769 92.6921 193.114 91.5247C192.49 90.3259 191.633 89.3952 190.542 88.7326C189.482 88.0701 188.297 87.7388 186.987 87.7388C185.678 87.7388 184.477 88.0701 183.386 88.7326C182.326 89.3952 181.469 90.3259 180.814 91.5247C180.19 92.6921 179.879 94.0802 179.879 95.6893C179.879 97.2667 180.19 98.6549 180.814 99.8538C181.469 101.021 182.326 101.936 183.386 102.599C184.477 103.261 185.678 103.592 186.987 103.592C188.297 103.592 189.482 103.261 190.542 102.599C191.633 101.936 192.49 101.021 193.114 99.8538C193.769 98.6549 194.096 97.2667 194.096 95.6893Z" fill="#1E3D59"/>
<path d="M73 78.1552C73 76.7394 74.1342 75.5918 75.5332 75.5918H82.962C84.9459 75.5918 86.6132 77.0999 86.8349 79.0948L89.3299 101.546C89.4629 102.743 90.4633 103.648 91.6536 103.648H102.268C103.34 103.648 104.275 104.386 104.536 105.439L105.347 108.719H89.0955C86.7027 108.719 84.6959 106.891 84.4446 104.483L82.2585 83.5421C82.0909 81.9369 80.7531 80.7186 79.1579 80.7186H75.5332C74.1342 80.7186 73 79.5709 73 78.1552Z" fill="#FF448C"/>
<path d="M88.0044 89.7891L89.3273 101.549C89.4618 102.745 90.4615 103.648 91.6506 103.648H102.268C103.34 103.648 104.275 104.387 104.536 105.439L105.347 108.719H89.0969C86.7035 108.719 84.6964 106.89 84.4458 104.482L83.6109 96.4553C83.4339 94.7539 84.1072 93.0754 85.4061 91.9801L88.0044 89.7891Z" fill="url(#paint0_linear_2870_1623)"/>
<path d="M98.7207 114.179C98.7207 115.486 99.7676 116.545 101.059 116.545C102.351 116.545 103.397 115.486 103.397 114.179C103.397 112.872 102.351 111.813 101.059 111.813C99.7676 111.813 98.7207 112.872 98.7207 114.179Z" fill="url(#paint1_linear_2870_1623)"/>
<path d="M87.0303 114.3C87.0303 115.607 88.0772 116.666 89.3687 116.666C90.6601 116.666 91.707 115.607 91.707 114.3C91.707 112.993 90.6601 111.934 89.3687 111.934C88.0772 111.934 87.0303 112.993 87.0303 114.3Z" fill="url(#paint2_linear_2870_1623)"/>
<defs>
<filter id="filter0_dd_2870_1623" x="0" y="0" width="284.4" height="177" filterUnits="userSpaceOnUse" color-interpolation-filters="sRGB">
<feFlood flood-opacity="0" result="BackgroundImageFix"/>
<feColorMatrix in="SourceAlpha" type="matrix" values="0 0 0 0 0 0 0 0 0 0 0 0 0 0 0 0 0 0 127 0" result="hardAlpha"/>
<feOffset dx="20" dy="20"/>
<feGaussianBlur stdDeviation="5"/>
<feComposite in2="hardAlpha" operator="out"/>
<feColorMatrix type="matrix" values="0 0 0 0 0.919444 0 0 0 0 0.919444 0 0 0 0 0.919444 0 0 0 0.15 0"/>
<feBlend mode="normal" in2="BackgroundImageFix" result="effect1_dropShadow_2870_1623"/>
<feColorMatrix in="SourceAlpha" type="matrix" values="0 0 0 0 0 0 0 0 0 0 0 0 0 0 0 0 0 0 127 0" result="hardAlpha"/>
<feOffset dx="-20" dy="-20"/>
<feGaussianBlur stdDeviation="5"/>
<feComposite in2="hardAlpha" operator="out"/>
<feColorMatrix type="matrix" values="0 0 0 0 0.849957 0 0 0 0 0.849957 0 0 0 0 0.849957 0 0 0 0.1 0"/>
<feBlend mode="normal" in2="effect1_dropShadow_2870_1623" result="effect2_dropShadow_2870_1623"/>
<feBlend mode="normal" in="SourceGraphic" in2="effect2_dropShadow_2870_1623" result="shape"/>
</filter>
<linearGradient id="paint0_linear_2870_1623" x1="84.4969" y1="93.1412" x2="100.073" y2="108.534" gradientUnits="userSpaceOnUse">
<stop stop-color="#F9659E"/>
<stop offset="1" stop-color="#0578FF"/>
</linearGradient>
<linearGradient id="paint1_linear_2870_1623" x1="101.059" y1="116.545" x2="101.059" y2="111.813" gradientUnits="userSpaceOnUse">
<stop stop-color="#1877F8"/>
<stop offset="1" stop-color="#FF448C"/>
</linearGradient>
<linearGradient id="paint2_linear_2870_1623" x1="89.3687" y1="116.666" x2="89.3687" y2="111.934" gradientUnits="userSpaceOnUse">
<stop stop-color="#1877F8"/>
<stop offset="1" stop-color="#FF448C"/>
</linearGradient>
</defs>
</svg>
