<svg width="298" height="185" viewBox="0 0 298 185" fill="none" xmlns="http://www.w3.org/2000/svg">
<g filter="url(#filter0_dd_805_462)">
<path d="M30 62C30 44.3269 44.3269 30 62 30H236C253.673 30 268 44.3269 268 62V122.091C268 139.764 253.673 154.091 236 154.091H62C44.3269 154.091 30 139.764 30 122.091V62Z" fill="#F5F5F5"/>
</g>
<path d="M138.687 107.107C136.996 107.107 136.797 105.895 136.797 105.454V93.8815L128.142 106.225C127.645 106.887 127.048 107.217 126.352 107.217C125.655 107.217 125.059 106.887 124.561 106.225L116.006 93.8815V105.454C116.006 106.005 115.807 107.107 114.116 107.107C112.425 107.107 112.326 105.895 112.326 105.454V88.4811C112.326 87.3789 113.022 86.7176 114.216 86.7176C115.409 86.7176 115.608 87.0483 116.106 87.7096L126.352 102.478L136.697 87.7096C137.095 87.1585 137.592 86.6074 138.587 86.6074C139.582 86.6074 140.477 87.2687 140.477 88.3708V105.344C140.477 106.446 139.781 106.997 138.587 106.997L138.687 107.107Z" fill="#003B53"/>
<path d="M152.712 107.107C151.021 107.107 150.822 105.895 150.822 105.454V90.1345H144.456C142.864 90.1345 142.665 88.9222 142.665 88.4813C142.665 87.3792 143.361 86.8281 144.456 86.8281H160.77C161.864 86.8281 162.56 87.4894 162.56 88.4813C162.56 89.4733 162.361 90.1345 160.77 90.1345H154.503V105.454C154.503 106.005 154.304 107.107 152.712 107.107Z" fill="#003B53"/>
<path d="M191.212 107.107C189.52 107.107 189.321 105.895 189.321 105.454V93.8815L180.667 106.225C180.17 106.887 179.573 107.217 178.877 107.217C178.18 107.217 177.583 106.887 177.086 106.225L168.531 93.8815V105.454C168.531 106.005 168.332 107.107 166.641 107.107C164.95 107.107 164.851 105.895 164.851 105.454V88.4811C164.851 87.3789 165.547 86.7176 166.741 86.7176C167.934 86.7176 168.133 87.0483 168.631 87.7096L178.877 102.478L189.222 87.7096C189.62 87.1585 190.117 86.6074 191.112 86.6074C192.107 86.6074 193.002 87.2687 193.002 88.3708V105.344C193.002 106.446 192.306 106.997 191.112 106.997L191.212 107.107Z" fill="#003B53"/>
<path d="M105.356 74.0469L101.178 81.9823L97 74.0469H105.356Z" fill="#8E3C97"/>
<path d="M109.535 81.9823H101.179L105.357 74.0469L109.535 81.9823Z" fill="#AF7EB8"/>
<path d="M105.357 90.0339L101.179 81.9883H109.535L105.357 90.0339Z" fill="#414190"/>
<path d="M97 90.0339L101.178 81.9883L105.356 90.0339H97Z" fill="#615CA0"/>
<path d="M110.229 81.4334L114.406 73.498L118.584 81.4334H110.229Z" fill="#BCCE39"/>
<path d="M106.054 73.498H114.41L110.232 81.4334L106.054 73.498Z" fill="#CED976"/>
<path d="M110.232 65.4512L114.41 73.4968H106.054L110.232 65.4512Z" fill="#EF812A"/>
<path d="M118.584 65.4512L114.406 73.4968L110.229 65.4512H118.584Z" fill="#F6AC73"/>
<defs>
<filter id="filter0_dd_805_462" x="0" y="0" width="298" height="184.09" filterUnits="userSpaceOnUse" color-interpolation-filters="sRGB">
<feFlood flood-opacity="0" result="BackgroundImageFix"/>
<feColorMatrix in="SourceAlpha" type="matrix" values="0 0 0 0 0 0 0 0 0 0 0 0 0 0 0 0 0 0 127 0" result="hardAlpha"/>
<feOffset dx="20" dy="20"/>
<feGaussianBlur stdDeviation="5"/>
<feComposite in2="hardAlpha" operator="out"/>
<feColorMatrix type="matrix" values="0 0 0 0 0.919444 0 0 0 0 0.919444 0 0 0 0 0.919444 0 0 0 0.15 0"/>
<feBlend mode="normal" in2="BackgroundImageFix" result="effect1_dropShadow_805_462"/>
<feColorMatrix in="SourceAlpha" type="matrix" values="0 0 0 0 0 0 0 0 0 0 0 0 0 0 0 0 0 0 127 0" result="hardAlpha"/>
<feOffset dx="-20" dy="-20"/>
<feGaussianBlur stdDeviation="5"/>
<feComposite in2="hardAlpha" operator="out"/>
<feColorMatrix type="matrix" values="0 0 0 0 0.849957 0 0 0 0 0.849957 0 0 0 0 0.849957 0 0 0 0.1 0"/>
<feBlend mode="normal" in2="effect1_dropShadow_805_462" result="effect2_dropShadow_805_462"/>
<feBlend mode="normal" in="SourceGraphic" in2="effect2_dropShadow_805_462" result="shape"/>
</filter>
</defs>
</svg>
