<svg width="285" height="177" viewBox="0 0 285 177" fill="none" xmlns="http://www.w3.org/2000/svg">
<g filter="url(#filter0_dd_3028_2726)">
<path d="M30 62C30 44.3269 44.3269 30 62 30H222.4C240.074 30 254.4 44.3269 254.4 62V115C254.4 132.673 240.074 147 222.4 147H62C44.3269 147 30 132.673 30 115V62Z" fill="#F5F5F5"/>
</g>
<path d="M97.4041 64C98.4755 66.5107 99.6684 67.7057 103.083 69.6284C100.339 70.5953 99.0495 71.7679 97.4041 75.2568C95.8337 71.9242 94.6759 70.972 91.7251 69.6284C94.8621 68.4104 96.0545 67.073 97.4041 64Z" fill="#1E3D59"/>
<path d="M102.081 71.9453C102.522 72.9791 103.013 73.4712 104.419 74.2629C103.289 74.661 102.758 75.1439 102.081 76.5804C101.434 75.2082 100.957 74.8161 99.7422 74.2629C101.034 73.7614 101.525 73.2106 102.081 71.9453Z" fill="#BA4AE6"/>
<path d="M116.515 98.4333V83.6221H119.037V90.0424H126.456V83.6221H128.979V98.4333H126.456V92.3732H119.037V98.4333H116.515ZM134.225 102.925C133.184 102.925 132.244 102.551 131.402 101.802L132.493 99.8742C132.992 100.34 133.505 100.573 134.032 100.573C134.574 100.573 135.008 100.383 135.336 100.001C135.678 99.6199 135.849 99.2032 135.849 98.7512C135.849 98.5534 134.317 94.6899 131.253 87.1607H133.818L137.218 95.4668L140.617 87.1607H143.183L137.667 100.552C137.339 101.287 136.868 101.866 136.256 102.29C135.643 102.714 134.966 102.925 134.225 102.925ZM151.162 86.9912C152.687 86.9912 153.992 87.5138 155.075 88.5592C156.158 89.6045 156.7 90.9959 156.7 92.7334C156.7 94.4709 156.158 95.8835 155.075 96.9713C154.006 98.059 152.752 98.6028 151.312 98.6028C149.887 98.6028 148.604 97.9813 147.463 96.7382V102.544H145.069V87.1607H147.463V89.1313C148.404 87.7045 149.637 86.9912 151.162 86.9912ZM147.421 92.8182C147.421 93.8917 147.749 94.7747 148.404 95.4668C149.06 96.1449 149.858 96.4839 150.799 96.4839C151.739 96.4839 152.559 96.1449 153.257 95.4668C153.956 94.7888 154.305 93.9129 154.305 92.8394C154.305 91.7516 153.963 90.8547 153.279 90.1483C152.595 89.4279 151.775 89.0677 150.82 89.0677C149.865 89.0677 149.06 89.4279 148.404 90.1483C147.749 90.8547 147.421 91.7446 147.421 92.8182ZM170.017 93.8353H161.101C161.158 94.6546 161.536 95.3185 162.234 95.827C162.932 96.3215 163.731 96.5687 164.629 96.5687C166.054 96.5687 167.138 96.1237 167.879 95.2337L169.247 96.717C168.021 97.9742 166.425 98.6028 164.458 98.6028C162.862 98.6028 161.5 98.0802 160.374 97.0348C159.262 95.9754 158.707 94.5628 158.707 92.797C158.707 91.0171 159.276 89.6045 160.417 88.5592C161.557 87.5138 162.897 86.9912 164.436 86.9912C165.99 86.9912 167.309 87.4573 168.392 88.3896C169.475 89.3079 170.017 90.5792 170.017 92.2037V93.8353ZM161.101 91.9706H167.622C167.622 91.0242 167.323 90.2967 166.724 89.7881C166.125 89.2796 165.384 89.0253 164.501 89.0253C163.631 89.0253 162.847 89.2937 162.149 89.8305C161.451 90.3531 161.101 91.0666 161.101 91.9706ZM178.615 89.3855C177.432 89.3855 176.541 89.7669 175.942 90.5297C175.343 91.2926 175.044 92.3167 175.044 93.6022V98.4333H172.65V87.1607H175.044V89.4279C175.429 88.7216 175.949 88.1425 176.605 87.6904C177.275 87.2383 177.981 87.0053 178.722 86.9912L178.743 89.3855C178.7 89.3855 178.657 89.3855 178.615 89.3855ZM184.012 85.9529V90.0212H190.64V92.3308H184.012V98.4333H181.49V83.6221H191.453L191.431 85.9529H184.012ZM196.445 98.4333H194.051V82.7109H196.445V98.4333Z" fill="#1E3D59"/>
<path fill-rule="evenodd" clip-rule="evenodd" d="M91.4697 81.6731C94.321 81.0497 96.8847 81.1834 98.4549 81.386C98.505 81.3924 98.5582 81.4145 98.6159 81.487C98.6795 81.5668 98.7402 81.7048 98.7402 81.8885V103.675C98.7402 104.15 98.3289 104.518 97.9013 104.504C95.8659 104.437 92.8751 104.498 90.0532 105.174C88.1144 105.638 86.5638 106.413 85.3777 107.21V85.2987C85.3777 84.901 85.4693 84.6994 85.5355 84.6145C85.7423 84.3502 86.3754 83.7858 87.4653 83.1763C88.5176 82.5879 89.8875 82.019 91.4697 81.6731ZM98.886 78.1029C97.0659 77.8681 94.0915 77.7095 90.7501 78.44C88.8208 78.8619 87.1418 79.5558 85.8239 80.2928C84.5434 81.0088 83.4851 81.8322 82.8956 82.5858C82.2172 83.453 82.0371 84.471 82.0371 85.2987V111.014C82.0371 111.745 82.5198 112.388 83.225 112.599C83.9269 112.809 84.6844 112.541 85.0933 111.939L85.0963 111.934L85.0944 111.937L85.0933 111.939C85.0933 111.939 85.0954 111.935 85.0974 111.932C85.1046 111.922 85.1197 111.902 85.1424 111.872C85.188 111.811 85.2648 111.714 85.3734 111.588C85.5911 111.337 85.9337 110.978 86.4071 110.584C87.3527 109.796 88.81 108.877 90.838 108.392C93.2362 107.817 95.8838 107.751 97.7913 107.813C100.096 107.888 102.081 106.031 102.081 103.675V81.8885C102.081 80.1399 100.903 78.363 98.886 78.1029Z" fill="#1E3D59"/>
<path fill-rule="evenodd" clip-rule="evenodd" d="M75.945 81.6731C73.0938 81.0497 70.5301 81.1834 68.9598 81.386C68.9098 81.3924 68.8564 81.4145 68.7988 81.487C68.7353 81.5668 68.6746 81.7048 68.6746 81.8885V103.675C68.6746 104.15 69.0858 104.518 69.5134 104.504C71.5488 104.437 74.5398 104.498 77.3615 105.174C79.3004 105.638 80.851 106.413 82.037 107.21V85.2987C82.037 84.901 81.9455 84.6994 81.8792 84.6145C81.6724 84.3502 81.0394 83.7858 79.9494 83.1763C78.8972 82.5879 77.5272 82.019 75.945 81.6731ZM68.5287 78.1029C70.3489 77.8681 73.3233 77.7095 76.6647 78.44C78.5941 78.8619 80.273 79.5558 81.5909 80.2928C82.8713 81.0088 83.9297 81.8322 84.5191 82.5858C85.1976 83.453 85.3777 84.471 85.3777 85.2987V111.014C85.3777 111.745 84.8949 112.388 84.1897 112.599C83.4879 112.809 82.7304 112.541 82.3215 111.939L82.3185 111.934L82.3203 111.937L82.3215 111.939C82.3215 111.939 82.3193 111.935 82.3173 111.932C82.3102 111.922 82.2951 111.902 82.2724 111.872C82.2268 111.811 82.15 111.714 82.0414 111.588C81.8237 111.337 81.481 110.978 81.0077 110.584C80.0621 109.796 78.6048 108.877 76.5769 108.392C74.1786 107.817 71.531 107.751 69.6234 107.813C67.3189 107.888 65.334 106.031 65.334 103.675V81.8885C65.334 80.1399 66.5123 78.363 68.5287 78.1029Z" fill="#1E3D59"/>
<path d="M76.7758 89.8242H73.0176" stroke="#BA4AE6" stroke-width="3.75" stroke-linecap="round" stroke-linejoin="round"/>
<path d="M78.0285 94.791H73.0176" stroke="#BA4AE6" stroke-width="3.75" stroke-linecap="round" stroke-linejoin="round"/>
<path d="M199.145 88.6422C199.964 87.9035 200.982 87.4181 202.076 87.2457C203.169 87.0733 204.289 87.2213 205.299 87.6716C206.308 88.1219 207.163 88.8548 207.758 89.7802C208.353 90.7056 208.662 91.7831 208.647 92.8802C208.631 93.9773 208.293 95.0461 207.674 95.9553C207.054 96.8644 206.179 97.5741 205.158 97.9972C204.136 98.4203 203.013 98.5383 201.924 98.3367C200.836 98.135 199.831 97.6226 199.033 96.8623L200.462 95.3888C200.97 95.873 201.61 96.1993 202.304 96.3278C202.997 96.4562 203.712 96.381 204.363 96.1116C205.014 95.8421 205.57 95.39 205.965 94.8111C206.36 94.2321 206.575 93.5513 206.585 92.8526C206.594 92.1539 206.397 91.4676 206.018 90.8782C205.64 90.2889 205.096 89.8221 204.452 89.5353C203.81 89.2485 203.096 89.1542 202.4 89.2641C201.704 89.3738 201.055 89.6829 200.533 90.1534L199.145 88.6422Z" fill="#C5BAFF"/>
<path d="M216.336 96.784C215.554 97.5599 214.559 98.092 213.476 98.315C212.391 98.5381 211.265 98.4422 210.236 98.0394C209.206 97.6364 208.318 96.944 207.68 96.0473C207.042 95.1505 206.682 94.0886 206.645 92.992C206.608 91.8954 206.895 90.8121 207.472 89.8752C208.048 88.9382 208.888 88.1886 209.888 87.7186C210.888 87.2484 212.005 87.0784 213.102 87.2292C214.198 87.3801 215.227 87.8453 216.06 88.5677L214.702 90.106C214.172 89.6459 213.517 89.3496 212.818 89.2535C212.12 89.1574 211.408 89.2658 210.772 89.5651C210.134 89.8646 209.599 90.342 209.232 90.9387C208.865 91.5354 208.682 92.2254 208.706 92.9238C208.73 93.6222 208.958 94.2985 209.365 94.8697C209.771 95.4408 210.337 95.8818 210.993 96.1384C211.649 96.395 212.366 96.4561 213.056 96.314C213.747 96.172 214.38 95.833 214.879 95.3389L216.336 96.784Z" fill="#1E3D59"/>
<path d="M212.358 94.0737C213.044 94.0737 213.6 93.5225 213.6 92.8425C213.6 92.1626 213.044 91.6113 212.358 91.6113C211.671 91.6113 211.115 92.1626 211.115 92.8425C211.115 93.5225 211.671 94.0737 212.358 94.0737Z" fill="#1E3D59"/>
<defs>
<filter id="filter0_dd_3028_2726" x="0" y="0" width="284.4" height="177" filterUnits="userSpaceOnUse" color-interpolation-filters="sRGB">
<feFlood flood-opacity="0" result="BackgroundImageFix"/>
<feColorMatrix in="SourceAlpha" type="matrix" values="0 0 0 0 0 0 0 0 0 0 0 0 0 0 0 0 0 0 127 0" result="hardAlpha"/>
<feOffset dx="20" dy="20"/>
<feGaussianBlur stdDeviation="5"/>
<feComposite in2="hardAlpha" operator="out"/>
<feColorMatrix type="matrix" values="0 0 0 0 0.919444 0 0 0 0 0.919444 0 0 0 0 0.919444 0 0 0 0.15 0"/>
<feBlend mode="normal" in2="BackgroundImageFix" result="effect1_dropShadow_3028_2726"/>
<feColorMatrix in="SourceAlpha" type="matrix" values="0 0 0 0 0 0 0 0 0 0 0 0 0 0 0 0 0 0 127 0" result="hardAlpha"/>
<feOffset dx="-20" dy="-20"/>
<feGaussianBlur stdDeviation="5"/>
<feComposite in2="hardAlpha" operator="out"/>
<feColorMatrix type="matrix" values="0 0 0 0 0.849957 0 0 0 0 0.849957 0 0 0 0 0.849957 0 0 0 0.1 0"/>
<feBlend mode="normal" in2="effect1_dropShadow_3028_2726" result="effect2_dropShadow_3028_2726"/>
<feBlend mode="normal" in="SourceGraphic" in2="effect2_dropShadow_3028_2726" result="shape"/>
</filter>
</defs>
</svg>
