<svg width="285" height="177" viewBox="0 0 285 177" fill="none" xmlns="http://www.w3.org/2000/svg">
<g filter="url(#filter0_dd_3028_2717)">
<path d="M30 62C30 44.3269 44.3269 30 62 30H222.4C240.074 30 254.4 44.3269 254.4 62V115C254.4 132.673 240.074 147 222.4 147H62C44.3269 147 30 132.673 30 115V62Z" fill="#F5F5F5"/>
</g>
<g clip-path="url(#clip0_3028_2717)">
<path d="M65.5908 79.1484H59.3984V103.424H65.5908V79.1484Z" fill="#2DE1D5"/>
<path d="M66.7891 73.5765V73.3775C66.7891 72.7181 66.2525 72.1836 65.5905 72.1836H59.1984C58.5364 72.1836 57.9998 72.7181 57.9998 73.3775V73.5765C57.9998 74.2358 58.5364 74.7703 59.1984 74.7703H65.5905C66.2525 74.7703 66.7891 74.2358 66.7891 73.5765Z" fill="#4B8BEF"/>
<path d="M65.5908 87.5059L69.5859 92.2814H65.5908V87.5059Z" fill="#2DE1D5"/>
<path d="M66.9888 86.9082H74.5506L88.5623 103.424H80.5557L66.9888 86.9082Z" fill="#4B8BEF"/>
<path d="M67.7881 70.7835C87.219 67.7079 92.2976 83.5318 80.374 91.8824L76.6204 87.0472C85.2319 78.2573 77.5036 76.4978 67.7881 76.4978V70.7835Z" fill="#4B8BEF"/>
<path d="M62.5946 69H62.3948C61.7329 69 61.1963 69.5345 61.1963 70.1939V76.5612C61.1963 77.2206 61.7329 77.7551 62.3948 77.7551H62.5946C63.2565 77.7551 63.7931 77.2206 63.7931 76.5612V70.1939C63.7931 69.5345 63.2565 69 62.5946 69Z" fill="#2DE1D5"/>
<path d="M104.014 103.025H100.307C100.205 102.694 100.102 102.261 100.051 101.751C98.9518 102.872 97.52 103.407 95.7813 103.407C94.3239 103.407 93.1733 103.076 92.3295 102.363C91.5113 101.649 91.0767 100.682 91.0767 99.4336C91.0767 98.8733 91.1534 98.3894 91.3068 97.9564C91.4602 97.5489 91.6903 97.1923 92.0227 96.8867C92.3551 96.6065 92.6619 96.3773 92.9687 96.1736C93.2756 95.9953 93.6847 95.8425 94.196 95.7151C94.733 95.6132 95.1676 95.5114 95.4745 95.4604C95.8069 95.4095 96.2671 95.3331 96.8552 95.2567C98.1336 95.1039 98.9774 94.9256 99.412 94.7218C99.8467 94.5435 100.077 94.187 100.077 93.6776C100.077 92.506 99.2842 91.9202 97.6989 91.9202C96.8552 91.9202 96.2415 92.073 95.858 92.3786C95.4489 92.6843 95.1932 93.1936 95.0909 93.9323H91.6903C91.8949 90.9778 93.9148 89.5006 97.8012 89.5006C101.637 89.5006 103.554 90.9269 103.554 93.7794V99.4591C103.554 101.14 103.708 102.312 104.014 103.025ZM100.026 96.632C99.6166 96.8867 98.7472 97.1414 97.4688 97.3452C96.3949 97.498 95.7046 97.7272 95.3722 97.9819C95.0142 98.2875 94.8097 98.746 94.8097 99.3063C94.8097 99.8412 94.9887 100.274 95.3466 100.58C95.7046 100.885 96.1904 101.038 96.804 101.038C97.7756 101.038 98.5683 100.784 99.1563 100.274C99.7444 99.7647 100.026 99.0261 100.026 98.1092V96.632ZM119.284 103.025H115.833V101.344C114.963 102.719 113.634 103.381 111.844 103.381C110.029 103.381 108.571 102.77 107.497 101.497C106.423 100.223 105.886 98.5422 105.886 96.4028C105.886 94.3398 106.398 92.6843 107.446 91.4363C108.494 90.1628 109.901 89.5515 111.665 89.5515C112.483 89.5515 113.25 89.7043 113.966 90.0609C114.682 90.392 115.27 90.8759 115.679 91.5127V84.8906H119.284V103.025ZM115.782 96.4283C115.782 95.1548 115.526 94.187 114.963 93.4738C114.401 92.7607 113.634 92.4041 112.662 92.4041C111.665 92.4041 110.898 92.7607 110.361 93.4738C109.798 94.187 109.543 95.1548 109.543 96.4283C109.543 97.7017 109.798 98.695 110.361 99.4082C110.924 100.121 111.691 100.503 112.662 100.503C113.659 100.503 114.426 100.147 114.963 99.4336C115.526 98.7205 115.782 97.7272 115.782 96.4283ZM125.787 89.8826V103.025H122.157V89.8826H125.787Z" fill="#4B8BEF"/>
<path d="M140.16 84.8906V103.025H136.146V84.8906H140.16ZM155.729 103.025H152.047V95.3585C152.047 94.4416 151.894 93.7285 151.587 93.2446C151.28 92.7607 150.666 92.506 149.797 92.506C147.88 92.506 146.933 93.6776 146.933 95.9698V103.025H143.328V89.8826H146.78V91.7164C147.854 90.2647 149.311 89.5261 151.152 89.5261C152.559 89.5261 153.684 89.9336 154.502 90.7486C155.32 91.5636 155.729 92.7352 155.729 94.2379V103.025ZM169.607 93.703L166.206 93.7285C166.104 93.0663 165.874 92.5824 165.465 92.3277C165.056 92.0475 164.468 91.9202 163.701 91.9202C163.061 91.9202 162.55 92.0221 162.192 92.2513C161.834 92.4805 161.655 92.8116 161.655 93.2191C161.655 93.6776 161.86 94.0087 162.269 94.2124C162.678 94.3907 163.419 94.5945 164.468 94.8237C164.672 94.8492 164.8 94.8746 164.877 94.9001C165.49 95.002 166.002 95.1038 166.36 95.2057C166.718 95.3076 167.178 95.4604 167.689 95.6642C168.226 95.8679 168.635 96.1226 168.917 96.3773C169.224 96.632 169.479 96.9886 169.684 97.4216C169.914 97.88 170.016 98.3894 170.016 98.9497C170.016 100.325 169.479 101.42 168.405 102.21C167.331 103.025 165.874 103.407 163.982 103.407C162.192 103.407 160.735 103.025 159.559 102.261C158.408 101.497 157.82 100.325 157.794 98.746H161.246C161.374 100.223 162.32 100.936 164.059 100.936C164.8 100.936 165.388 100.809 165.823 100.503C166.258 100.198 166.462 99.8157 166.462 99.3063C166.462 98.8224 166.283 98.4658 165.874 98.2621C165.49 98.0583 164.775 97.8545 163.701 97.5998C163.624 97.5998 163.547 97.5744 163.496 97.5489C163.394 97.5234 163.113 97.4725 162.704 97.3706C162.294 97.2942 162.013 97.2433 161.86 97.1923C161.706 97.1414 161.425 97.065 161.067 96.9631C160.709 96.8612 160.428 96.7848 160.249 96.683C160.096 96.5811 159.865 96.4792 159.584 96.3264C159.303 96.1736 159.098 96.0208 158.945 95.8425C158.817 95.6896 158.664 95.4859 158.51 95.2567C158.357 95.0274 158.229 94.7727 158.178 94.4671C158.127 94.187 158.101 93.8813 158.101 93.5247C158.101 92.2513 158.587 91.258 159.61 90.5448C160.607 89.8572 162.039 89.5006 163.88 89.5006C165.516 89.5006 166.871 89.8572 167.945 90.5194C168.993 91.207 169.556 92.2767 169.607 93.703ZM175.925 84.8906V87.947H172.295V84.8906H175.925ZM175.925 89.8826V103.025H172.295V89.8826H175.925ZM191.441 89.8826V101.675C191.441 103.814 190.904 105.393 189.83 106.412C188.756 107.431 187.12 107.94 184.946 107.94C181.162 107.94 179.117 106.565 178.759 103.84H182.364C182.492 104.426 182.773 104.859 183.208 105.113C183.617 105.368 184.23 105.521 185.023 105.521C186.148 105.521 186.915 105.241 187.324 104.68C187.708 104.12 187.912 103.28 187.938 102.108L187.963 100.631C186.966 101.981 185.611 102.668 183.923 102.668C182.185 102.668 180.83 102.082 179.807 100.911C178.784 99.7393 178.298 98.1602 178.298 96.199C178.298 94.187 178.81 92.5824 179.884 91.3598C180.932 90.1373 182.338 89.5261 184.077 89.5261C184.997 89.5261 185.739 89.7043 186.353 90.0354C186.966 90.3665 187.503 90.9014 188.014 91.64V89.8826H191.441ZM184.921 92.3532C183.949 92.3532 183.208 92.6843 182.671 93.3465C182.134 94.0087 181.852 94.951 181.852 96.1736C181.852 97.3197 182.134 98.2366 182.696 98.9243C183.259 99.6119 184 99.9685 184.921 99.9685C185.867 99.9685 186.608 99.6119 187.145 98.9243C187.708 98.2111 187.963 97.2687 187.963 96.0972C187.963 94.9256 187.708 94.0087 187.145 93.3465C186.608 92.6843 185.867 92.3532 184.921 92.3532ZM198.02 84.8906V91.6655C199.043 90.2647 200.449 89.577 202.188 89.577C205.256 89.577 206.816 91.1816 206.816 94.4416V103.05H203.185V95.3076C203.185 94.3907 203.006 93.703 202.699 93.2446C202.367 92.7607 201.753 92.5314 200.858 92.5314C199.759 92.5314 199.017 92.8625 198.608 93.5757C198.199 94.2634 198.02 95.1803 198.02 96.3264V103.025H194.441V84.8906H198.02ZM216.833 89.8826V92.3532H214.148V98.5422C214.148 98.9243 214.148 99.2044 214.174 99.3827C214.174 99.561 214.25 99.7393 214.353 99.943C214.455 100.121 214.608 100.249 214.813 100.3C215.018 100.351 215.324 100.376 215.733 100.376C216.168 100.376 216.526 100.376 216.833 100.325V103.076C215.938 103.152 215.197 103.178 214.634 103.178C213.049 103.178 211.949 102.923 211.387 102.363C210.824 101.802 210.543 100.733 210.543 99.1535V92.3277H208.344V89.8826H210.543V85.9094H214.148V89.8826H216.833Z" fill="#2DE1D5"/>
<path d="M125.502 88.0862C125.213 88.3742 124.845 88.5717 124.445 88.6545C124.045 88.7373 123.629 88.7017 123.249 88.5521C122.868 88.4026 122.54 88.1456 122.304 87.8127C122.069 87.4798 121.936 87.0856 121.923 86.6785C121.909 86.2715 122.015 85.8693 122.228 85.5216C122.441 85.1738 122.751 84.8955 123.12 84.721C123.49 84.5465 123.902 84.4834 124.307 84.5394C124.712 84.5954 125.092 84.7681 125.4 85.0362L124.898 85.6072C124.702 85.4365 124.46 85.3265 124.203 85.2908C123.944 85.2551 123.682 85.2954 123.446 85.4065C123.211 85.5176 123.014 85.6948 122.878 85.9163C122.743 86.1379 122.675 86.394 122.684 86.6532C122.692 86.9125 122.777 87.1636 122.927 87.3755C123.077 87.5876 123.286 87.7513 123.528 87.8465C123.77 87.9418 124.035 87.9644 124.29 87.9117C124.545 87.859 124.779 87.7332 124.963 87.5497L125.502 88.0862Z" fill="#4B8BEF"/>
<path d="M124.033 87.0801C124.286 87.0801 124.492 86.8755 124.492 86.623C124.492 86.3706 124.286 86.166 124.033 86.166C123.78 86.166 123.574 86.3706 123.574 86.623C123.574 86.8755 123.78 87.0801 124.033 87.0801Z" fill="#4B8BEF"/>
<mask id="mask0_3028_2717" style="mask-type:luminance" maskUnits="userSpaceOnUse" x="212" y="76" width="9" height="9">
<path d="M221 76.1641H212.61V84.5212H221V76.1641Z" fill="white"/>
</mask>
<g mask="url(#mask0_3028_2717)">
<path d="M216.036 79.103H215.012V81.7355H214.313V79.103H213.31V78.6016H216.036V79.103ZM217.33 78.6016L218.204 80.865L219.046 78.6016H219.951V81.7355H219.252V80.865L219.329 79.3816L218.424 81.7355H217.952L217.05 79.385L217.12 80.865V81.7355H216.421V78.6016H217.33Z" fill="black"/>
</g>
</g>
<defs>
<filter id="filter0_dd_3028_2717" x="0" y="0" width="284.4" height="177" filterUnits="userSpaceOnUse" color-interpolation-filters="sRGB">
<feFlood flood-opacity="0" result="BackgroundImageFix"/>
<feColorMatrix in="SourceAlpha" type="matrix" values="0 0 0 0 0 0 0 0 0 0 0 0 0 0 0 0 0 0 127 0" result="hardAlpha"/>
<feOffset dx="20" dy="20"/>
<feGaussianBlur stdDeviation="5"/>
<feComposite in2="hardAlpha" operator="out"/>
<feColorMatrix type="matrix" values="0 0 0 0 0.919444 0 0 0 0 0.919444 0 0 0 0 0.919444 0 0 0 0.15 0"/>
<feBlend mode="normal" in2="BackgroundImageFix" result="effect1_dropShadow_3028_2717"/>
<feColorMatrix in="SourceAlpha" type="matrix" values="0 0 0 0 0 0 0 0 0 0 0 0 0 0 0 0 0 0 127 0" result="hardAlpha"/>
<feOffset dx="-20" dy="-20"/>
<feGaussianBlur stdDeviation="5"/>
<feComposite in2="hardAlpha" operator="out"/>
<feColorMatrix type="matrix" values="0 0 0 0 0.849957 0 0 0 0 0.849957 0 0 0 0 0.849957 0 0 0 0.1 0"/>
<feBlend mode="normal" in2="effect1_dropShadow_3028_2717" result="effect2_dropShadow_3028_2717"/>
<feBlend mode="normal" in="SourceGraphic" in2="effect2_dropShadow_3028_2717" result="shape"/>
</filter>
<clipPath id="clip0_3028_2717">
<rect width="163" height="39" fill="white" transform="translate(58 69)"/>
</clipPath>
</defs>
</svg>
