<svg width="298" height="185" viewBox="0 0 298 185" fill="none" xmlns="http://www.w3.org/2000/svg">
<g filter="url(#filter0_dd_805_463)">
<path d="M30 62C30 44.3269 44.3269 30 62 30H236C253.673 30 268 44.3269 268 62V122.091C268 139.764 253.673 154.091 236 154.091H62C44.3269 154.091 30 139.764 30 122.091V62Z" fill="#F5F5F5"/>
</g>
<g clip-path="url(#clip0_805_463)">
<mask id="mask0_805_463" style="mask-type:luminance" maskUnits="userSpaceOnUse" x="78" y="64" width="142" height="55">
<path d="M219.329 64.6523H78.4814V118.411H219.329V64.6523Z" fill="white"/>
</mask>
<g mask="url(#mask0_805_463)">
<path d="M119.076 82.2099C118.941 82.0345 118.767 81.8927 118.568 81.7957C118.37 81.6987 118.151 81.6491 117.929 81.6508H115.894V74.0744C115.895 73.6916 115.745 73.3238 115.477 73.0508C115.208 72.7777 114.843 72.6214 114.46 72.6158H109.694V69.8992C109.694 69.5129 109.54 69.1425 109.268 68.869C108.995 68.5956 108.625 68.4415 108.239 68.4405H103.49V66.111C103.49 65.7248 103.337 65.3543 103.064 65.0808C102.791 64.8074 102.421 64.6533 102.035 64.6523H95.8311C95.4449 64.6533 95.0747 64.8074 94.802 65.0808C94.5292 65.3543 94.376 65.7248 94.376 66.111V68.4405H89.6273C89.2445 68.4462 88.8794 68.6025 88.6111 68.8755C88.3427 69.1486 88.1928 69.5163 88.1938 69.8992V72.6086H83.4236C83.2325 72.6091 83.0434 72.6472 82.8671 72.7208C82.6907 72.7943 82.5305 72.9019 82.3958 73.0373C82.261 73.1728 82.1542 73.3335 82.0815 73.5101C82.0088 73.6869 81.9716 73.8762 81.9721 74.0673V81.6508H79.9365C79.717 81.6513 79.5005 81.7015 79.3032 81.7975C79.1059 81.8935 78.9329 82.0329 78.7971 82.2053C78.6612 82.3777 78.5662 82.5785 78.5189 82.7928C78.4717 83.0071 78.4736 83.2293 78.5244 83.4428C79.4741 87.2955 83.3304 104.875 84.3124 108.838C84.6892 110.423 85.5908 111.833 86.8706 112.84C88.1505 113.848 89.7333 114.392 91.362 114.386H106.486C108.114 114.394 109.698 113.852 110.979 112.847C112.26 111.842 113.164 110.433 113.543 108.849C114.514 104.907 118.374 87.3456 119.334 83.4571C119.388 83.2427 119.392 83.019 119.346 82.8029C119.3 82.5868 119.205 82.384 119.069 82.2099H119.076ZM112.984 75.5331V81.6508H112.149C111.87 81.6486 111.598 81.7274 111.363 81.8776C111.129 82.0278 110.944 82.2429 110.83 82.4966C110.541 83.1172 110.163 83.6919 109.708 84.2025V75.5331H112.984ZM106.773 71.3542V86.4747C105.73 87.0361 104.625 87.4716 103.479 87.7721V71.3542H106.773ZM100.58 67.5661V88.2882C100.037 88.3384 99.4891 88.3635 98.9347 88.3635C98.3757 88.3635 97.8273 88.3384 97.2862 88.2882V67.5661H100.58ZM94.376 71.3542V87.7721C93.2306 87.4716 92.125 87.0361 91.0824 86.4747V71.3542H94.376ZM84.8787 75.5331H88.1759V84.2025C87.7229 83.6915 87.3474 83.1167 87.0613 82.4966C86.9472 82.2429 86.7618 82.0278 86.5276 81.8776C86.2934 81.7274 86.0206 81.6486 85.7424 81.6508H84.8787V75.5331ZM110.729 108.147C110.507 109.1 109.966 109.949 109.195 110.552C108.425 111.157 107.472 111.48 106.493 111.469H91.362C90.3832 111.48 89.4299 111.157 88.6597 110.552C87.8895 109.949 87.3484 109.1 87.1258 108.147C86.1581 104.222 82.5921 87.9872 81.775 84.5609H84.85C87.2333 88.6108 92.7346 91.2736 98.9276 91.2736C105.121 91.2736 110.618 88.6108 113.002 84.5609H116.091C115.267 88.0194 111.701 104.272 110.74 108.147H110.729Z" fill="#83C76F"/>
<path d="M98.9347 96.5137C97.8872 96.5108 96.8623 96.8189 95.99 97.3988C95.1176 97.9787 94.4369 98.8045 94.034 99.7715C93.6312 100.738 93.5243 101.803 93.7269 102.831C93.9296 103.859 94.4326 104.803 95.1723 105.545C95.912 106.287 96.8552 106.792 97.8824 106.998C98.9096 107.203 99.9747 107.099 100.943 106.699C101.911 106.299 102.738 105.62 103.321 104.75C103.903 103.879 104.214 102.855 104.214 101.807C104.214 100.406 103.658 99.0615 102.668 98.0691C101.679 97.0768 100.336 96.5175 98.9347 96.5137ZM98.9347 104.187C98.4638 104.188 98.003 104.05 97.6107 103.789C97.2184 103.528 96.9123 103.158 96.7311 102.723C96.5498 102.288 96.5017 101.809 96.5927 101.347C96.6837 100.885 96.9098 100.46 97.2423 100.127C97.5748 99.7934 97.9988 99.5661 98.4607 99.4736C98.9225 99.3812 99.4013 99.4279 99.8366 99.6079C100.272 99.7878 100.644 100.093 100.906 100.484C101.168 100.876 101.307 101.336 101.307 101.807C101.307 102.437 101.058 103.041 100.613 103.487C100.168 103.933 99.5646 104.185 98.9347 104.187Z" fill="#83C76F"/>
<path d="M131.769 92.7196C131.769 93.5164 131.621 94.2156 131.324 94.8171C131.028 95.4186 130.625 95.9224 130.117 96.3287C129.61 96.7271 129.016 97.0278 128.336 97.2309C127.657 97.434 126.93 97.5356 126.157 97.5356C125.633 97.5356 125.145 97.4926 124.692 97.4067C124.247 97.3208 123.852 97.2192 123.509 97.102C123.165 96.977 122.876 96.8482 122.642 96.7153C122.415 96.5826 122.251 96.4654 122.149 96.3638C122.048 96.2623 121.974 96.1178 121.927 95.9303C121.888 95.735 121.868 95.4576 121.868 95.0983C121.868 94.8562 121.876 94.653 121.891 94.489C121.907 94.325 121.931 94.1921 121.962 94.0906C122.001 93.989 122.048 93.9187 122.103 93.8797C122.165 93.8328 122.235 93.8094 122.313 93.8094C122.423 93.8094 122.575 93.8758 122.77 94.0086C122.973 94.1336 123.231 94.2742 123.544 94.4304C123.856 94.5866 124.227 94.7312 124.657 94.864C125.094 94.9889 125.598 95.0514 126.168 95.0514C126.543 95.0514 126.879 95.0085 127.176 94.9225C127.473 94.8288 127.723 94.6999 127.926 94.5359C128.137 94.3718 128.297 94.1687 128.407 93.9265C128.516 93.6844 128.571 93.4149 128.571 93.118C128.571 92.7743 128.477 92.4814 128.289 92.2392C128.102 91.9892 127.856 91.7705 127.551 91.583C127.254 91.3877 126.915 91.208 126.532 91.044C126.149 90.8721 125.755 90.6924 125.348 90.505C124.942 90.3175 124.547 90.1066 124.165 89.8722C123.782 89.6301 123.438 89.3449 123.134 89.0168C122.837 88.6809 122.595 88.2864 122.407 87.8334C122.22 87.3803 122.126 86.8373 122.126 86.2046C122.126 85.4781 122.259 84.8414 122.524 84.2946C122.798 83.74 123.161 83.283 123.614 82.9236C124.075 82.5565 124.614 82.2831 125.231 82.1034C125.856 81.9237 126.516 81.8339 127.211 81.8339C127.571 81.8339 127.93 81.8612 128.289 81.9159C128.649 81.9706 128.985 82.0448 129.297 82.1386C129.61 82.2323 129.887 82.3378 130.129 82.4549C130.371 82.5721 130.532 82.6697 130.61 82.7479C130.687 82.826 130.738 82.8924 130.762 82.9471C130.793 83.0017 130.816 83.076 130.832 83.1697C130.856 83.2556 130.871 83.3689 130.879 83.5095C130.887 83.6423 130.891 83.8103 130.891 84.0134C130.891 84.2399 130.883 84.4313 130.867 84.5876C130.859 84.7438 130.84 84.8727 130.809 84.9742C130.785 85.0758 130.746 85.15 130.691 85.1969C130.645 85.2437 130.578 85.2672 130.492 85.2672C130.406 85.2672 130.27 85.2125 130.082 85.1031C129.895 84.9938 129.664 84.8766 129.391 84.7516C129.117 84.6188 128.801 84.5016 128.442 84.4C128.082 84.2907 127.688 84.236 127.258 84.236C126.922 84.236 126.629 84.279 126.379 84.3649C126.129 84.443 125.918 84.5563 125.747 84.7047C125.583 84.8453 125.457 85.0172 125.372 85.2203C125.294 85.4234 125.255 85.6382 125.255 85.8648C125.255 86.2007 125.344 86.4936 125.524 86.7436C125.712 86.9858 125.957 87.2045 126.262 87.3998C126.575 87.5873 126.926 87.7669 127.317 87.9388C127.707 88.1029 128.106 88.2786 128.512 88.4661C128.918 88.6536 129.317 88.8684 129.707 89.1106C130.098 89.3449 130.446 89.6301 130.75 89.966C131.055 90.2941 131.301 90.6846 131.488 91.1377C131.676 91.583 131.769 92.1103 131.769 92.7196ZM140.136 95.8365C140.136 96.1802 140.112 96.4458 140.066 96.6333C140.027 96.813 139.972 96.9419 139.902 97.02C139.831 97.0903 139.726 97.1567 139.585 97.2192C139.453 97.2739 139.292 97.3208 139.105 97.3598C138.925 97.4067 138.726 97.4418 138.507 97.4653C138.296 97.4887 138.081 97.5004 137.863 97.5004C137.277 97.5004 136.769 97.4262 136.34 97.2778C135.91 97.1294 135.554 96.9028 135.273 96.5982C134.992 96.2857 134.785 95.8951 134.652 95.4264C134.519 94.9577 134.453 94.403 134.453 93.7625V88.4075H133.199C133.051 88.4075 132.937 88.3177 132.859 88.138C132.781 87.9505 132.742 87.642 132.742 87.2123C132.742 86.9858 132.75 86.7944 132.765 86.6382C132.789 86.4819 132.82 86.3608 132.859 86.2749C132.898 86.1811 132.945 86.1148 133 86.0757C133.062 86.0366 133.133 86.0171 133.211 86.0171H134.453V83.6853C134.453 83.6072 134.472 83.5369 134.511 83.4744C134.558 83.4119 134.637 83.3611 134.746 83.322C134.863 83.2752 135.015 83.2439 135.203 83.2283C135.398 83.2048 135.636 83.1931 135.917 83.1931C136.207 83.1931 136.445 83.2048 136.632 83.2283C136.828 83.2439 136.98 83.2752 137.089 83.322C137.199 83.3611 137.277 83.4119 137.324 83.4744C137.371 83.5369 137.394 83.6072 137.394 83.6853V86.0171H139.667C139.745 86.0171 139.812 86.0366 139.867 86.0757C139.929 86.1148 139.98 86.1811 140.019 86.2749C140.058 86.3608 140.085 86.4819 140.101 86.6382C140.124 86.7944 140.136 86.9858 140.136 87.2123C140.136 87.642 140.097 87.9505 140.019 88.138C139.941 88.3177 139.827 88.4075 139.679 88.4075H137.394V93.3172C137.394 93.8875 137.484 94.3171 137.664 94.6062C137.843 94.8874 138.163 95.028 138.624 95.028C138.781 95.028 138.921 95.0163 139.046 94.9928C139.171 94.9616 139.281 94.9303 139.374 94.8991C139.476 94.8601 139.558 94.8288 139.62 94.8054C139.691 94.7741 139.753 94.7585 139.808 94.7585C139.855 94.7585 139.898 94.7741 139.937 94.8054C139.984 94.8288 140.019 94.8835 140.042 94.9694C140.066 95.0475 140.085 95.1569 140.101 95.2975C140.124 95.4381 140.136 95.6178 140.136 95.8365ZM152.604 91.5361C152.604 92.4267 152.487 93.2391 152.252 93.9734C152.018 94.7077 151.662 95.3405 151.186 95.8717C150.709 96.4029 150.111 96.813 149.393 97.102C148.674 97.3911 147.835 97.5356 146.874 97.5356C145.944 97.5356 145.136 97.4067 144.448 97.1489C143.761 96.8911 143.19 96.5162 142.737 96.024C142.284 95.5319 141.948 94.9264 141.729 94.2078C141.511 93.4891 141.402 92.6688 141.402 91.747C141.402 90.8565 141.519 90.0441 141.753 89.3098C141.995 88.5677 142.354 87.9349 142.831 87.4115C143.307 86.8803 143.901 86.4702 144.612 86.1811C145.331 85.8921 146.171 85.7476 147.131 85.7476C148.069 85.7476 148.881 85.8765 149.569 86.1343C150.256 86.3843 150.823 86.7553 151.268 87.2475C151.721 87.7396 152.057 88.345 152.275 89.0637C152.494 89.7824 152.604 90.6065 152.604 91.5361ZM149.569 91.6533C149.569 91.1377 149.526 90.6651 149.44 90.2355C149.362 89.798 149.225 89.4191 149.03 89.0989C148.835 88.7786 148.573 88.5286 148.245 88.3489C147.924 88.1692 147.518 88.0794 147.026 88.0794C146.589 88.0794 146.206 88.1614 145.877 88.3255C145.55 88.4817 145.28 88.7161 145.069 89.0285C144.858 89.3332 144.698 89.7043 144.589 90.1417C144.487 90.5714 144.436 91.0635 144.436 91.6182C144.436 92.1338 144.479 92.6103 144.565 93.0477C144.651 93.4774 144.788 93.8523 144.975 94.1726C145.171 94.4929 145.432 94.7429 145.761 94.9225C146.089 95.0944 146.495 95.1803 146.979 95.1803C147.424 95.1803 147.811 95.1022 148.139 94.946C148.467 94.7819 148.737 94.5476 148.948 94.2429C149.159 93.9382 149.315 93.5711 149.416 93.1415C149.518 92.704 149.569 92.2079 149.569 91.6533ZM161.661 87.3881C161.661 87.6693 161.653 87.8997 161.638 88.0794C161.622 88.2591 161.599 88.3997 161.568 88.5012C161.536 88.6028 161.493 88.6731 161.439 88.7122C161.392 88.7512 161.329 88.7708 161.251 88.7708C161.189 88.7708 161.118 88.759 161.04 88.7356C160.962 88.7043 160.873 88.6731 160.771 88.6419C160.677 88.6106 160.571 88.5833 160.454 88.5598C160.337 88.5286 160.208 88.513 160.068 88.513C159.904 88.513 159.74 88.5481 159.576 88.6184C159.412 88.6809 159.24 88.7825 159.06 88.9231C158.888 89.0637 158.705 89.2512 158.509 89.4855C158.322 89.7199 158.119 90.0089 157.9 90.3527V96.8677C157.9 96.9458 157.876 97.0161 157.83 97.0786C157.783 97.1333 157.701 97.1801 157.584 97.2192C157.474 97.2583 157.326 97.2856 157.138 97.3012C156.951 97.3247 156.713 97.3364 156.423 97.3364C156.135 97.3364 155.896 97.3247 155.709 97.3012C155.521 97.2856 155.369 97.2583 155.252 97.2192C155.143 97.1801 155.064 97.1333 155.018 97.0786C154.971 97.0161 154.947 96.9458 154.947 96.8677V86.4155C154.947 86.3374 154.967 86.271 155.006 86.2163C155.045 86.1538 155.115 86.103 155.217 86.064C155.318 86.0249 155.447 85.9976 155.603 85.9819C155.767 85.9585 155.97 85.9468 156.213 85.9468C156.463 85.9468 156.67 85.9585 156.834 85.9819C156.998 85.9976 157.123 86.0249 157.209 86.064C157.302 86.103 157.369 86.1538 157.408 86.2163C157.447 86.271 157.466 86.3374 157.466 86.4155V87.7162C157.74 87.3256 157.998 87.0053 158.24 86.7553C158.482 86.4975 158.713 86.2944 158.931 86.146C159.15 85.9976 159.369 85.896 159.587 85.8413C159.806 85.7788 160.025 85.7476 160.244 85.7476C160.345 85.7476 160.454 85.7554 160.571 85.771C160.689 85.7788 160.81 85.7984 160.935 85.8296C161.06 85.8531 161.169 85.8843 161.263 85.9233C161.357 85.9546 161.423 85.9898 161.462 86.0288C161.509 86.0679 161.54 86.1109 161.556 86.1577C161.579 86.2046 161.599 86.271 161.614 86.3569C161.63 86.435 161.642 86.5561 161.65 86.7202C161.657 86.8842 161.661 87.1069 161.661 87.3881ZM172.852 91.3369C172.852 91.6963 172.77 91.9619 172.606 92.1337C172.45 92.3056 172.231 92.3915 171.95 92.3915H165.587C165.587 92.8368 165.638 93.243 165.739 93.6102C165.848 93.9695 166.017 94.2781 166.243 94.5359C166.477 94.7858 166.774 94.9772 167.134 95.11C167.501 95.2428 167.938 95.3092 168.446 95.3092C168.961 95.3092 169.414 95.2741 169.805 95.2038C170.196 95.1257 170.532 95.0436 170.813 94.9577C171.102 94.864 171.34 94.7819 171.528 94.7116C171.715 94.6335 171.868 94.5945 171.985 94.5945C172.055 94.5945 172.113 94.6101 172.16 94.6413C172.207 94.6647 172.246 94.7116 172.278 94.7819C172.309 94.8523 172.328 94.9538 172.336 95.0866C172.352 95.2116 172.36 95.3717 172.36 95.567C172.36 95.7389 172.356 95.8873 172.348 96.0123C172.34 96.1295 172.328 96.231 172.313 96.317C172.297 96.4029 172.274 96.4771 172.242 96.5396C172.211 96.5943 172.168 96.6489 172.113 96.7036C172.067 96.7583 171.93 96.8325 171.703 96.9263C171.477 97.02 171.188 97.1138 170.837 97.2075C170.485 97.2934 170.082 97.3677 169.629 97.4301C169.176 97.5004 168.692 97.5356 168.177 97.5356C167.247 97.5356 166.43 97.4184 165.727 97.184C165.032 96.9497 164.45 96.5943 163.982 96.1178C163.513 95.6412 163.161 95.0397 162.927 94.3132C162.7 93.5867 162.587 92.7352 162.587 91.7588C162.587 90.8292 162.708 89.9933 162.95 89.2512C163.192 88.5012 163.544 87.8685 164.005 87.3529C164.466 86.8295 165.024 86.4311 165.681 86.1577C166.344 85.8843 167.091 85.7476 167.918 85.7476C168.794 85.7476 169.539 85.8765 170.157 86.1343C170.782 86.3921 171.293 86.7514 171.692 87.2123C172.09 87.6654 172.383 88.2044 172.57 88.8294C172.758 89.4543 172.852 90.1339 172.852 90.8682V91.3369ZM169.992 90.4933C170.016 89.6652 169.848 89.0168 169.489 88.5481C169.137 88.0716 168.59 87.8334 167.848 87.8334C167.473 87.8334 167.145 87.9036 166.864 88.0443C166.591 88.1849 166.36 88.3763 166.173 88.6184C165.993 88.8528 165.852 89.134 165.751 89.4621C165.657 89.7824 165.603 90.1261 165.587 90.4933H169.992ZM181.406 82.4315C181.406 82.658 181.398 82.8416 181.382 82.9822C181.367 83.115 181.343 83.2205 181.312 83.2986C181.281 83.3689 181.246 83.4197 181.207 83.4509C181.167 83.4744 181.124 83.4861 181.078 83.4861C181.023 83.4861 180.96 83.4744 180.89 83.4509C180.828 83.4197 180.746 83.3884 180.644 83.3572C180.55 83.3259 180.437 83.2986 180.304 83.2752C180.172 83.2439 180.015 83.2283 179.836 83.2283C179.625 83.2283 179.441 83.2634 179.285 83.3338C179.136 83.3962 179.011 83.5017 178.91 83.6501C178.808 83.7907 178.734 83.9782 178.687 84.2126C178.64 84.4391 178.617 84.7203 178.617 85.0563V86.0171H180.527C180.597 86.0171 180.66 86.0366 180.714 86.0757C180.777 86.1148 180.828 86.1811 180.867 86.2749C180.906 86.3608 180.933 86.4819 180.949 86.6382C180.972 86.7944 180.984 86.9858 180.984 87.2123C180.984 87.642 180.945 87.9505 180.867 88.138C180.789 88.3177 180.675 88.4075 180.527 88.4075H178.617V96.8677C178.617 96.9458 178.594 97.0161 178.547 97.0786C178.5 97.1333 178.421 97.1801 178.312 97.2192C178.203 97.2583 178.051 97.2856 177.855 97.3012C177.66 97.3247 177.422 97.3364 177.141 97.3364C176.859 97.3364 176.621 97.3247 176.426 97.3012C176.238 97.2856 176.086 97.2583 175.969 97.2192C175.859 97.1801 175.781 97.1333 175.734 97.0786C175.695 97.0161 175.676 96.9458 175.676 96.8677V88.4075H174.363C174.215 88.4075 174.102 88.3177 174.024 88.138C173.953 87.9505 173.918 87.642 173.918 87.2123C173.918 86.9858 173.926 86.7944 173.942 86.6382C173.965 86.4819 173.992 86.3608 174.024 86.2749C174.063 86.1811 174.109 86.1148 174.164 86.0757C174.227 86.0366 174.297 86.0171 174.375 86.0171H175.676V85.1383C175.676 84.4274 175.746 83.8064 175.887 83.2752C176.027 82.7361 176.246 82.2909 176.543 81.9393C176.847 81.58 177.23 81.3105 177.691 81.1308C178.16 80.9511 178.711 80.8613 179.343 80.8613C179.648 80.8613 179.937 80.8887 180.211 80.9433C180.484 80.9902 180.699 81.0449 180.855 81.1074C181.011 81.1621 181.117 81.2167 181.171 81.2714C181.226 81.3183 181.269 81.3925 181.3 81.4941C181.339 81.5878 181.367 81.7128 181.382 81.8691C181.398 82.0175 181.406 82.2049 181.406 82.4315ZM189.409 87.3881C189.409 87.6693 189.401 87.8997 189.385 88.0794C189.37 88.2591 189.346 88.3997 189.315 88.5012C189.284 88.6028 189.241 88.6731 189.186 88.7122C189.14 88.7512 189.077 88.7708 188.999 88.7708C188.936 88.7708 188.866 88.759 188.788 88.7356C188.71 88.7043 188.62 88.6731 188.518 88.6419C188.425 88.6106 188.319 88.5833 188.202 88.5598C188.085 88.5286 187.956 88.513 187.815 88.513C187.651 88.513 187.487 88.5481 187.323 88.6184C187.159 88.6809 186.987 88.7825 186.807 88.9231C186.636 89.0637 186.452 89.2512 186.257 89.4855C186.069 89.7199 185.866 90.0089 185.647 90.3527V96.8677C185.647 96.9458 185.624 97.0161 185.577 97.0786C185.53 97.1333 185.448 97.1801 185.331 97.2192C185.222 97.2583 185.073 97.2856 184.886 97.3012C184.698 97.3247 184.46 97.3364 184.171 97.3364C183.882 97.3364 183.644 97.3247 183.456 97.3012C183.269 97.2856 183.116 97.2583 182.999 97.2192C182.89 97.1801 182.812 97.1333 182.765 97.0786C182.718 97.0161 182.695 96.9458 182.695 96.8677V86.4155C182.695 86.3374 182.714 86.271 182.753 86.2163C182.792 86.1538 182.863 86.103 182.964 86.064C183.066 86.0249 183.195 85.9976 183.351 85.9819C183.515 85.9585 183.718 85.9468 183.96 85.9468C184.21 85.9468 184.417 85.9585 184.581 85.9819C184.745 85.9976 184.87 86.0249 184.956 86.064C185.05 86.103 185.116 86.1538 185.155 86.2163C185.194 86.271 185.214 86.3374 185.214 86.4155V87.7162C185.488 87.3256 185.745 87.0053 185.987 86.7553C186.229 86.4975 186.46 86.2944 186.679 86.146C186.897 85.9976 187.116 85.896 187.335 85.8413C187.554 85.7788 187.772 85.7476 187.991 85.7476C188.093 85.7476 188.202 85.7554 188.319 85.771C188.436 85.7788 188.557 85.7984 188.682 85.8296C188.807 85.8531 188.917 85.8843 189.01 85.9233C189.104 85.9546 189.171 85.9898 189.21 86.0288C189.257 86.0679 189.288 86.1109 189.303 86.1577C189.327 86.2046 189.346 86.271 189.362 86.3569C189.377 86.435 189.389 86.5561 189.397 86.7202C189.405 86.8842 189.409 87.1069 189.409 87.3881ZM194.178 96.8677C194.178 96.9458 194.154 97.0161 194.108 97.0786C194.061 97.1333 193.979 97.1801 193.862 97.2192C193.752 97.2583 193.604 97.2856 193.416 97.3012C193.229 97.3247 192.99 97.3364 192.702 97.3364C192.412 97.3364 192.174 97.3247 191.987 97.3012C191.799 97.2856 191.647 97.2583 191.53 97.2192C191.42 97.1801 191.342 97.1333 191.296 97.0786C191.249 97.0161 191.225 96.9458 191.225 96.8677V86.4389C191.225 86.3608 191.249 86.2944 191.296 86.2397C191.342 86.1772 191.42 86.1265 191.53 86.0874C191.647 86.0405 191.799 86.0054 191.987 85.9819C192.174 85.9585 192.412 85.9468 192.702 85.9468C192.99 85.9468 193.229 85.9585 193.416 85.9819C193.604 86.0054 193.752 86.0405 193.862 86.0874C193.979 86.1265 194.061 86.1772 194.108 86.2397C194.154 86.2944 194.178 86.3608 194.178 86.4389V96.8677ZM194.401 82.8768C194.401 83.4704 194.28 83.8806 194.037 84.1071C193.795 84.3337 193.346 84.4469 192.69 84.4469C192.026 84.4469 191.577 84.3376 191.342 84.1188C191.116 83.9001 191.002 83.5056 191.002 82.9353C191.002 82.3417 191.12 81.9315 191.354 81.705C191.596 81.4706 192.049 81.3535 192.713 81.3535C193.37 81.3535 193.815 81.4667 194.049 81.6933C194.284 81.912 194.401 82.3065 194.401 82.8768ZM206.786 91.3369C206.786 91.6963 206.704 91.9619 206.54 92.1337C206.384 92.3056 206.165 92.3915 205.884 92.3915H199.521C199.521 92.8368 199.572 93.243 199.674 93.6102C199.783 93.9695 199.951 94.2781 200.178 94.5359C200.412 94.7858 200.709 94.9772 201.068 95.11C201.435 95.2428 201.872 95.3092 202.38 95.3092C202.896 95.3092 203.349 95.2741 203.74 95.2038C204.13 95.1257 204.466 95.0436 204.747 94.9577C205.036 94.864 205.275 94.7819 205.462 94.7116C205.649 94.6335 205.802 94.5945 205.919 94.5945C205.989 94.5945 206.048 94.6101 206.095 94.6413C206.142 94.6647 206.181 94.7116 206.212 94.7819C206.243 94.8523 206.263 94.9538 206.271 95.0866C206.286 95.2116 206.294 95.3717 206.294 95.567C206.294 95.7389 206.29 95.8873 206.282 96.0123C206.275 96.1295 206.263 96.231 206.247 96.317C206.232 96.4029 206.208 96.4771 206.177 96.5396C206.146 96.5943 206.103 96.6489 206.048 96.7036C206.001 96.7583 205.865 96.8325 205.638 96.9263C205.411 97.02 205.122 97.1138 204.771 97.2075C204.419 97.2934 204.017 97.3677 203.564 97.4301C203.111 97.5004 202.626 97.5356 202.111 97.5356C201.181 97.5356 200.365 97.4184 199.662 97.184C198.967 96.9497 198.385 96.5943 197.916 96.1178C197.447 95.6412 197.096 95.0397 196.861 94.3132C196.635 93.5867 196.522 92.7352 196.522 91.7588C196.522 90.8292 196.642 89.9933 196.885 89.2512C197.127 88.5012 197.479 87.8685 197.939 87.3529C198.4 86.8295 198.959 86.4311 199.615 86.1577C200.279 85.8843 201.025 85.7476 201.853 85.7476C202.728 85.7476 203.474 85.8765 204.091 86.1343C204.716 86.3921 205.228 86.7514 205.626 87.2123C206.025 87.6654 206.318 88.2044 206.505 88.8294C206.692 89.4543 206.786 90.1339 206.786 90.8682V91.3369ZM203.927 90.4933C203.95 89.6652 203.783 89.0168 203.423 88.5481C203.072 88.0716 202.525 87.8334 201.783 87.8334C201.408 87.8334 201.08 87.9036 200.798 88.0443C200.525 88.1849 200.295 88.3763 200.107 88.6184C199.927 88.8528 199.787 89.134 199.685 89.4621C199.592 89.7824 199.537 90.1261 199.521 90.4933H203.927ZM216.582 93.9148C216.582 94.5085 216.469 95.0319 216.242 95.485C216.024 95.9381 215.711 96.317 215.305 96.6216C214.899 96.9263 214.418 97.1528 213.864 97.3012C213.309 97.4575 212.708 97.5356 212.059 97.5356C211.669 97.5356 211.294 97.5043 210.934 97.4418C210.583 97.3872 210.266 97.3169 209.985 97.2309C209.704 97.1372 209.47 97.0435 209.282 96.9497C209.095 96.856 208.958 96.77 208.872 96.6919C208.786 96.606 208.719 96.4771 208.673 96.3052C208.626 96.1256 208.603 95.8639 208.603 95.5201C208.603 95.2936 208.61 95.1139 208.626 94.9811C208.641 94.8405 208.665 94.7312 208.696 94.653C208.727 94.5671 208.766 94.5124 208.813 94.489C208.86 94.4577 208.919 94.4421 208.989 94.4421C209.075 94.4421 209.2 94.4929 209.364 94.5945C209.536 94.6882 209.747 94.7937 209.997 94.9108C210.247 95.028 210.536 95.1374 210.864 95.2389C211.2 95.3405 211.579 95.3913 212.001 95.3913C212.266 95.3913 212.5 95.3639 212.704 95.3092C212.914 95.2545 213.094 95.1764 213.243 95.0749C213.399 94.9733 213.516 94.8444 213.594 94.6882C213.672 94.532 213.711 94.3523 213.711 94.1492C213.711 93.9148 213.637 93.7156 213.489 93.5516C213.348 93.3797 213.157 93.2313 212.914 93.1063C212.68 92.9813 212.411 92.8642 212.106 92.7548C211.809 92.6454 211.501 92.5243 211.18 92.3915C210.868 92.2587 210.559 92.1064 210.255 91.9345C209.958 91.7627 209.688 91.5518 209.446 91.3018C209.212 91.0518 209.021 90.751 208.872 90.3995C208.731 90.048 208.661 89.6262 208.661 89.134C208.661 88.6341 208.759 88.177 208.954 87.763C209.149 87.3412 209.431 86.9819 209.798 86.685C210.165 86.3882 210.61 86.1577 211.134 85.9937C211.665 85.8296 212.258 85.7476 212.914 85.7476C213.243 85.7476 213.559 85.771 213.864 85.8179C214.176 85.8648 214.457 85.9233 214.707 85.9937C214.957 86.064 215.168 86.1421 215.34 86.228C215.512 86.3061 215.633 86.3765 215.703 86.4389C215.782 86.4936 215.836 86.5522 215.868 86.6147C215.899 86.6694 215.922 86.7397 215.938 86.8256C215.953 86.9037 215.965 87.0053 215.973 87.1303C215.988 87.2475 215.996 87.3959 215.996 87.5756C215.996 87.7865 215.988 87.9583 215.973 88.0911C215.965 88.2239 215.946 88.3294 215.914 88.4075C215.891 88.4856 215.856 88.5403 215.809 88.5716C215.762 88.595 215.707 88.6067 215.645 88.6067C215.574 88.6067 215.465 88.5677 215.317 88.4895C215.168 88.4036 214.981 88.3138 214.754 88.22C214.535 88.1263 214.278 88.0404 213.981 87.9622C213.692 87.8763 213.36 87.8334 212.985 87.8334C212.719 87.8334 212.489 87.8607 212.294 87.9154C212.098 87.97 211.938 88.0482 211.813 88.1497C211.688 88.2513 211.594 88.3724 211.532 88.513C211.469 88.6458 211.438 88.7903 211.438 88.9465C211.438 89.1887 211.512 89.3918 211.661 89.5558C211.809 89.7199 212.004 89.8644 212.247 89.9894C212.489 90.1144 212.762 90.2316 213.067 90.3409C213.379 90.4503 213.692 90.5714 214.004 90.7042C214.325 90.8292 214.637 90.9776 214.942 91.1494C215.254 91.3213 215.531 91.5322 215.774 91.7822C216.016 92.0322 216.211 92.3329 216.36 92.6845C216.508 93.0282 216.582 93.4383 216.582 93.9148Z" fill="#265983"/>
<path d="M126.494 110.825C125.881 111.172 125.2 111.345 124.45 111.345C123.579 111.345 122.874 111.064 122.335 110.502C121.798 109.94 121.53 109.197 121.53 108.271C121.53 107.326 121.828 106.551 122.424 105.947C123.023 105.34 123.781 105.036 124.697 105.036C125.361 105.036 125.919 105.144 126.37 105.359V106.151C125.876 105.839 125.292 105.683 124.616 105.683C123.933 105.683 123.372 105.918 122.935 106.39C122.498 106.861 122.279 107.471 122.279 108.22C122.279 108.992 122.482 109.599 122.888 110.042C123.294 110.482 123.844 110.702 124.54 110.702C125.017 110.702 125.43 110.607 125.779 110.417V108.706H124.442V108.058H126.494V110.825ZM131.325 109.237H128.248C128.259 109.723 128.39 110.098 128.639 110.361C128.889 110.625 129.232 110.757 129.67 110.757C130.161 110.757 130.612 110.596 131.023 110.272V110.928C130.64 111.206 130.134 111.345 129.504 111.345C128.888 111.345 128.404 111.148 128.052 110.753C127.7 110.356 127.524 109.798 127.524 109.08C127.524 108.402 127.716 107.85 128.099 107.424C128.485 106.995 128.963 106.781 129.533 106.781C130.104 106.781 130.545 106.966 130.857 107.335C131.17 107.703 131.325 108.216 131.325 108.871V109.237ZM130.61 108.646C130.608 108.243 130.51 107.929 130.317 107.705C130.127 107.481 129.861 107.369 129.521 107.369C129.191 107.369 128.912 107.486 128.682 107.722C128.452 107.958 128.31 108.265 128.256 108.646H130.61ZM134.208 111.345C133.563 111.345 133.048 111.142 132.662 110.736C132.279 110.327 132.088 109.787 132.088 109.114C132.088 108.382 132.288 107.81 132.688 107.399C133.088 106.987 133.629 106.781 134.31 106.781C134.96 106.781 135.466 106.981 135.83 107.381C136.196 107.782 136.379 108.336 136.379 109.046C136.379 109.741 136.182 110.299 135.787 110.719C135.395 111.136 134.869 111.345 134.208 111.345ZM134.259 107.369C133.81 107.369 133.456 107.522 133.194 107.829C132.933 108.132 132.803 108.552 132.803 109.089C132.803 109.605 132.935 110.012 133.199 110.31C133.463 110.608 133.816 110.757 134.259 110.757C134.71 110.757 135.056 110.611 135.297 110.319C135.542 110.027 135.663 109.611 135.663 109.071C135.663 108.527 135.542 108.107 135.297 107.811C135.056 107.516 134.71 107.369 134.259 107.369ZM137.23 111.085V110.336C137.611 110.617 138.029 110.757 138.486 110.757C139.099 110.757 139.405 110.553 139.405 110.144C139.405 110.028 139.378 109.93 139.325 109.851C139.273 109.768 139.203 109.696 139.112 109.633C139.024 109.571 138.919 109.516 138.797 109.467C138.677 109.416 138.548 109.364 138.409 109.31C138.216 109.233 138.046 109.157 137.898 109.08C137.754 109.001 137.632 108.913 137.532 108.816C137.436 108.717 137.362 108.604 137.311 108.48C137.263 108.355 137.239 108.209 137.239 108.041C137.239 107.837 137.285 107.657 137.379 107.501C137.473 107.342 137.598 107.21 137.754 107.105C137.91 106.997 138.087 106.916 138.286 106.862C138.488 106.808 138.695 106.781 138.908 106.781C139.285 106.781 139.623 106.847 139.921 106.977V107.684C139.6 107.474 139.231 107.369 138.814 107.369C138.683 107.369 138.565 107.384 138.46 107.415C138.355 107.444 138.265 107.485 138.188 107.539C138.114 107.593 138.056 107.658 138.013 107.735C137.974 107.809 137.954 107.891 137.954 107.982C137.954 108.095 137.974 108.19 138.013 108.267C138.056 108.344 138.117 108.412 138.197 108.471C138.276 108.531 138.372 108.585 138.486 108.633C138.599 108.681 138.729 108.734 138.874 108.79C139.066 108.864 139.239 108.941 139.393 109.021C139.546 109.097 139.677 109.185 139.785 109.284C139.892 109.381 139.974 109.493 140.031 109.621C140.091 109.748 140.121 109.9 140.121 110.076C140.121 110.292 140.072 110.479 139.976 110.638C139.882 110.797 139.756 110.929 139.597 111.034C139.438 111.139 139.255 111.217 139.048 111.268C138.841 111.319 138.624 111.345 138.396 111.345C137.948 111.345 137.559 111.258 137.23 111.085ZM143.02 111.345C142.375 111.345 141.86 111.142 141.474 110.736C141.091 110.327 140.9 109.787 140.9 109.114C140.9 108.382 141.1 107.81 141.5 107.399C141.9 106.987 142.441 106.781 143.122 106.781C143.772 106.781 144.278 106.981 144.642 107.381C145.008 107.782 145.191 108.336 145.191 109.046C145.191 109.741 144.994 110.299 144.599 110.719C144.207 111.136 143.681 111.345 143.02 111.345ZM143.071 107.369C142.622 107.369 142.268 107.522 142.007 107.829C141.745 108.132 141.615 108.552 141.615 109.089C141.615 109.605 141.747 110.012 142.011 110.31C142.275 110.608 142.628 110.757 143.071 110.757C143.522 110.757 143.868 110.611 144.11 110.319C144.354 110.027 144.476 109.611 144.476 109.071C144.476 108.527 144.354 108.107 144.11 107.811C143.868 107.516 143.522 107.369 143.071 107.369ZM149.278 111.043C148.943 111.244 148.545 111.345 148.086 111.345C147.464 111.345 146.962 111.143 146.579 110.74C146.198 110.334 146.008 109.809 146.008 109.165C146.008 108.447 146.214 107.871 146.626 107.437C147.037 107 147.586 106.781 148.273 106.781C148.656 106.781 148.994 106.852 149.286 106.994V107.709C148.963 107.482 148.616 107.369 148.248 107.369C147.802 107.369 147.436 107.529 147.149 107.85C146.865 108.168 146.723 108.586 146.723 109.106C146.723 109.617 146.857 110.019 147.124 110.315C147.393 110.61 147.754 110.757 148.205 110.757C148.585 110.757 148.943 110.631 149.278 110.379V111.043ZM150.691 105.776C150.566 105.776 150.46 105.734 150.372 105.649C150.284 105.564 150.24 105.456 150.24 105.325C150.24 105.195 150.284 105.087 150.372 105.002C150.46 104.914 150.566 104.87 150.691 104.87C150.819 104.87 150.927 104.914 151.014 105.002C151.105 105.087 151.151 105.195 151.151 105.325C151.151 105.45 151.105 105.557 151.014 105.645C150.927 105.733 150.819 105.776 150.691 105.776ZM151.032 111.243H150.333V106.883H151.032V111.243ZM155.565 111.243H154.867V110.561H154.85C154.546 111.084 154.099 111.345 153.509 111.345C153.075 111.345 152.734 111.23 152.487 111C152.243 110.77 152.121 110.465 152.121 110.085C152.121 109.27 152.601 108.796 153.56 108.663L154.867 108.48C154.867 107.739 154.568 107.369 153.969 107.369C153.444 107.369 152.97 107.548 152.547 107.905V107.19C152.975 106.918 153.469 106.781 154.028 106.781C155.053 106.781 155.565 107.323 155.565 108.407V111.243ZM154.867 109.037L153.816 109.182C153.492 109.228 153.248 109.308 153.083 109.425C152.919 109.538 152.836 109.741 152.836 110.034C152.836 110.246 152.912 110.421 153.062 110.557C153.215 110.691 153.418 110.757 153.671 110.757C154.017 110.757 154.302 110.637 154.527 110.395C154.753 110.151 154.867 109.843 154.867 109.472V109.037ZM157.579 111.243H156.881V104.789H157.579V111.243ZM162.1 110.613H162.083V113.248H161.385V106.883H162.083V107.65H162.1C162.443 107.071 162.946 106.781 163.607 106.781C164.169 106.781 164.607 106.977 164.922 107.369C165.237 107.758 165.395 108.28 165.395 108.935C165.395 109.665 165.217 110.249 164.863 110.689C164.508 111.126 164.022 111.345 163.407 111.345C162.842 111.345 162.407 111.101 162.1 110.613ZM162.083 108.854V109.463C162.083 109.824 162.199 110.13 162.432 110.383C162.667 110.632 162.966 110.757 163.326 110.757C163.749 110.757 164.079 110.596 164.318 110.272C164.559 109.948 164.68 109.499 164.68 108.922C164.68 108.437 164.568 108.057 164.343 107.782C164.119 107.506 163.815 107.369 163.432 107.369C163.027 107.369 162.7 107.511 162.453 107.795C162.206 108.076 162.083 108.429 162.083 108.854ZM168.783 107.59C168.662 107.496 168.486 107.449 168.255 107.449C167.958 107.449 167.708 107.59 167.506 107.871C167.308 108.152 167.208 108.535 167.208 109.021V111.243H166.51V106.883H167.208V107.782H167.225C167.325 107.475 167.477 107.237 167.681 107.066C167.885 106.893 168.114 106.807 168.366 106.807C168.548 106.807 168.687 106.827 168.783 106.866V107.59ZM171.363 111.345C170.719 111.345 170.204 111.142 169.818 110.736C169.435 110.327 169.243 109.787 169.243 109.114C169.243 108.382 169.443 107.81 169.843 107.399C170.244 106.987 170.784 106.781 171.466 106.781C172.115 106.781 172.622 106.981 172.985 107.381C173.351 107.782 173.534 108.336 173.534 109.046C173.534 109.741 173.337 110.299 172.942 110.719C172.551 111.136 172.025 111.345 171.363 111.345ZM171.414 107.369C170.966 107.369 170.611 107.522 170.35 107.829C170.089 108.132 169.959 108.552 169.959 109.089C169.959 109.605 170.09 110.012 170.354 110.31C170.618 110.608 170.972 110.757 171.414 110.757C171.866 110.757 172.212 110.611 172.453 110.319C172.697 110.027 172.819 109.611 172.819 109.071C172.819 108.527 172.697 108.107 172.453 107.811C172.212 107.516 171.866 107.369 171.414 107.369ZM180.84 111.243H180.141V108.74C180.141 108.257 180.066 107.908 179.916 107.692C179.768 107.477 179.518 107.369 179.166 107.369C178.868 107.369 178.614 107.505 178.404 107.777C178.197 108.05 178.094 108.376 178.094 108.756V111.243H177.395V108.654C177.395 107.797 177.065 107.369 176.403 107.369C176.097 107.369 175.844 107.498 175.646 107.756C175.447 108.011 175.348 108.345 175.348 108.756V111.243H174.65V106.883H175.348V107.573H175.365C175.674 107.045 176.125 106.781 176.718 106.781C177.017 106.781 177.276 106.865 177.498 107.032C177.719 107.197 177.871 107.414 177.953 107.684C178.277 107.082 178.759 106.781 179.401 106.781C180.36 106.781 180.84 107.373 180.84 108.556V111.243ZM183.981 111.345C183.337 111.345 182.822 111.142 182.436 110.736C182.053 110.327 181.861 109.787 181.861 109.114C181.861 108.382 182.061 107.81 182.461 107.399C182.862 106.987 183.402 106.781 184.083 106.781C184.733 106.781 185.24 106.981 185.603 107.381C185.969 107.782 186.152 108.336 186.152 109.046C186.152 109.741 185.955 110.299 185.56 110.719C185.169 111.136 184.642 111.345 183.981 111.345ZM184.032 107.369C183.584 107.369 183.229 107.522 182.968 107.829C182.707 108.132 182.576 108.552 182.576 109.089C182.576 109.605 182.708 110.012 182.972 110.31C183.236 110.608 183.59 110.757 184.032 110.757C184.483 110.757 184.83 110.611 185.071 110.319C185.315 110.027 185.437 109.611 185.437 109.071C185.437 108.527 185.315 108.107 185.071 107.811C184.83 107.516 184.483 107.369 184.032 107.369ZM189.29 111.2C189.125 111.291 188.908 111.336 188.638 111.336C187.875 111.336 187.493 110.91 187.493 110.059V107.48H186.744V106.883H187.493V105.819L188.191 105.594V106.883H189.29V107.48H188.191V109.936C188.191 110.228 188.241 110.437 188.34 110.561C188.44 110.686 188.604 110.749 188.834 110.749C189.01 110.749 189.162 110.701 189.29 110.604V111.2ZM193.726 109.237H190.648C190.659 109.723 190.79 110.098 191.039 110.361C191.289 110.625 191.633 110.757 192.069 110.757C192.56 110.757 193.012 110.596 193.423 110.272V110.928C193.04 111.206 192.534 111.345 191.903 111.345C191.288 111.345 190.804 111.148 190.452 110.753C190.1 110.356 189.924 109.798 189.924 109.08C189.924 108.402 190.115 107.85 190.499 107.424C190.885 106.995 191.363 106.781 191.933 106.781C192.504 106.781 192.945 106.966 193.257 107.335C193.569 107.703 193.726 108.216 193.726 108.871V109.237ZM193.01 108.646C193.008 108.243 192.909 107.929 192.717 107.705C192.526 107.481 192.261 107.369 191.921 107.369C191.591 107.369 191.312 107.486 191.082 107.722C190.852 107.958 190.71 108.265 190.656 108.646H193.01Z" fill="#265983"/>
</g>
</g>
<defs>
<filter id="filter0_dd_805_463" x="0" y="0" width="298" height="184.09" filterUnits="userSpaceOnUse" color-interpolation-filters="sRGB">
<feFlood flood-opacity="0" result="BackgroundImageFix"/>
<feColorMatrix in="SourceAlpha" type="matrix" values="0 0 0 0 0 0 0 0 0 0 0 0 0 0 0 0 0 0 127 0" result="hardAlpha"/>
<feOffset dx="20" dy="20"/>
<feGaussianBlur stdDeviation="5"/>
<feComposite in2="hardAlpha" operator="out"/>
<feColorMatrix type="matrix" values="0 0 0 0 0.919444 0 0 0 0 0.919444 0 0 0 0 0.919444 0 0 0 0.15 0"/>
<feBlend mode="normal" in2="BackgroundImageFix" result="effect1_dropShadow_805_463"/>
<feColorMatrix in="SourceAlpha" type="matrix" values="0 0 0 0 0 0 0 0 0 0 0 0 0 0 0 0 0 0 127 0" result="hardAlpha"/>
<feOffset dx="-20" dy="-20"/>
<feGaussianBlur stdDeviation="5"/>
<feComposite in2="hardAlpha" operator="out"/>
<feColorMatrix type="matrix" values="0 0 0 0 0.849957 0 0 0 0 0.849957 0 0 0 0 0.849957 0 0 0 0.1 0"/>
<feBlend mode="normal" in2="effect1_dropShadow_805_463" result="effect2_dropShadow_805_463"/>
<feBlend mode="normal" in="SourceGraphic" in2="effect2_dropShadow_805_463" result="shape"/>
</filter>
<clipPath id="clip0_805_463">
<rect x="78.4814" y="64.6523" width="140.848" height="53.7586" rx="26.8793" fill="white"/>
</clipPath>
</defs>
</svg>
