<svg width="129" height="56" viewBox="0 0 129 56" fill="none" xmlns="http://www.w3.org/2000/svg">
<path d="M60.439 34.6893C60.439 37.2763 59.8622 39.5636 58.7086 41.5512C57.5862 43.5073 56.0585 45.0374 54.1254 46.1416C52.2235 47.2459 50.0878 47.798 47.7183 47.798C45.3487 47.798 43.1974 47.2459 41.2644 46.1416C39.3625 45.0374 37.8348 43.5073 36.6812 41.5512C35.5588 39.5636 34.9976 37.2763 34.9976 34.6893C34.9976 32.1022 35.5588 29.8307 36.6812 27.8746C37.8348 25.887 39.3625 24.3411 41.2644 23.2369C43.1974 22.1011 45.3487 21.5332 47.7183 21.5332C50.0878 21.5332 52.2235 22.1011 54.1254 23.2369C56.0585 24.3411 57.5862 25.887 58.7086 27.8746C59.8622 29.8307 60.439 32.1022 60.439 34.6893ZM54.8269 34.6893C54.8269 33.0802 54.4996 31.6921 53.8448 30.5247C53.2212 29.3259 52.3638 28.3952 51.2726 27.7326C50.2125 27.0701 49.0278 26.7388 47.7183 26.7388C46.4088 26.7388 45.2084 27.0701 44.1172 27.7326C43.0571 28.3952 42.1997 29.3259 41.545 30.5247C40.9214 31.6921 40.6096 33.0802 40.6096 34.6893C40.6096 36.2667 40.9214 37.6549 41.545 38.8538C42.1997 40.0211 43.0571 40.936 44.1172 41.5985C45.2084 42.2611 46.4088 42.5924 47.7183 42.5924C49.0278 42.5924 50.2125 42.2611 51.2726 41.5985C52.3638 40.936 53.2212 40.0211 53.8448 38.8538C54.4996 37.6549 54.8269 36.2667 54.8269 34.6893ZM66.2448 22.0064C66.8372 22.0064 67.3828 22.1642 67.8816 22.4797C68.3805 22.7636 68.7546 23.2053 69.0041 23.8047L75.8789 39.7056L74.85 40.1788L81.8651 23.8521C82.3951 22.5901 83.2213 21.9907 84.3438 22.0538C85.1232 22.0538 85.7468 22.3062 86.2145 22.8109C86.7133 23.2842 86.9627 23.8836 86.9627 24.6093C86.9627 24.8301 86.916 25.0667 86.8224 25.3191C86.7601 25.5715 86.6821 25.8081 86.5886 26.029L77.8431 45.5264C77.3442 46.6622 76.5492 47.2616 75.458 47.3247C74.8656 47.4194 74.2888 47.309 73.7276 46.9935C73.1975 46.678 72.7922 46.189 72.5116 45.5264L63.8129 26.029C63.7505 25.8712 63.6726 25.6662 63.579 25.4138C63.5167 25.1614 63.4855 24.8616 63.4855 24.5146C63.4855 23.9467 63.7349 23.3946 64.2338 22.8583C64.7326 22.2904 65.403 22.0064 66.2448 22.0064ZM96.6681 44.438C96.6681 45.2583 96.4031 45.9524 95.8731 46.5202C95.3431 47.0566 94.6727 47.3247 93.8621 47.3247C93.0514 47.3247 92.3811 47.0566 91.8511 46.5202C91.3211 45.9524 91.056 45.2583 91.056 44.438V24.8932C91.056 24.0729 91.3211 23.3946 91.8511 22.8583C92.3811 22.2904 93.0514 22.0064 93.8621 22.0064C94.6727 22.0064 95.3431 22.2904 95.8731 22.8583C96.4031 23.3946 96.6681 24.0729 96.6681 24.8932V44.438ZM93.8153 18.9304C92.7553 18.9304 92.007 18.7569 91.5705 18.4098C91.134 18.0628 90.9157 17.4476 90.9157 16.5642V15.665C90.9157 14.7501 91.1496 14.1349 91.6173 13.8194C92.1161 13.4723 92.8644 13.2988 93.8621 13.2988C94.9533 13.2988 95.7172 13.4723 96.1537 13.8194C96.5902 14.1664 96.8084 14.7816 96.8084 15.665V16.5642C96.8084 17.4791 96.5746 18.1101 96.1069 18.4571C95.6392 18.7726 94.8754 18.9304 93.8153 18.9304ZM126.708 34.6893C126.708 37.2763 126.131 39.5636 124.978 41.5512C123.855 43.5073 122.327 45.0374 120.394 46.1416C118.493 47.2459 116.357 47.798 113.987 47.798C111.618 47.798 109.466 47.2459 107.533 46.1416C105.631 45.0374 104.104 43.5073 102.95 41.5512C101.828 39.5636 101.267 37.2763 101.267 34.6893C101.267 32.1022 101.828 29.8307 102.95 27.8746C104.104 25.887 105.631 24.3411 107.533 23.2369C109.466 22.1011 111.618 21.5332 113.987 21.5332C116.357 21.5332 118.493 22.1011 120.394 23.2369C122.327 24.3411 123.855 25.887 124.978 27.8746C126.131 29.8307 126.708 32.1022 126.708 34.6893ZM121.096 34.6893C121.096 33.0802 120.769 31.6921 120.114 30.5247C119.49 29.3259 118.633 28.3952 117.542 27.7326C116.482 27.0701 115.297 26.7388 113.987 26.7388C112.678 26.7388 111.477 27.0701 110.386 27.7326C109.326 28.3952 108.469 29.3259 107.814 30.5247C107.19 31.6921 106.879 33.0802 106.879 34.6893C106.879 36.2667 107.19 37.6549 107.814 38.8538C108.469 40.0211 109.326 40.936 110.386 41.5985C111.477 42.2611 112.678 42.5924 113.987 42.5924C115.297 42.5924 116.482 42.2611 117.542 41.5985C118.633 40.936 119.49 40.0211 120.114 38.8538C120.769 37.6549 121.096 36.2667 121.096 34.6893Z" fill="#FCFCFF"/>
<path d="M0 17.1552C0 15.7394 1.13417 14.5918 2.53323 14.5918H9.96204C11.9459 14.5918 13.6132 16.0999 13.8349 18.0948L16.3299 40.5462C16.4629 41.7431 17.4633 42.6482 18.6536 42.6482H29.2677C30.3403 42.6482 31.2754 43.3864 31.536 44.4394L32.3474 47.7186H16.0955C13.7027 47.7186 11.6959 45.8911 11.4446 43.4835L9.2585 22.5421C9.09091 20.9369 7.75306 19.7186 6.15794 19.7186H2.53323C1.13417 19.7186 0 18.5709 0 17.1552Z" fill="#FF448C"/>
<path d="M15.0044 28.7891L16.3273 40.5495C16.4618 41.7452 17.4615 42.6483 18.6506 42.6483H29.2676C30.3402 42.6483 31.2753 43.3865 31.5359 44.4395L32.3473 47.7186H16.0969C13.7035 47.7186 11.6964 45.8904 11.4458 43.4816L10.6109 35.4553C10.4339 33.7539 11.1072 32.0754 12.4061 30.9801L15.0044 28.7891Z" fill="url(#paint0_linear_3024_1611)"/>
<path d="M25.7207 53.1787C25.7207 54.4855 26.7676 55.5449 28.0591 55.5449C29.3505 55.5449 30.3975 54.4855 30.3975 53.1787C30.3975 51.8719 29.3505 50.8125 28.0591 50.8125C26.7676 50.8125 25.7207 51.8719 25.7207 53.1787Z" fill="url(#paint1_linear_3024_1611)"/>
<path d="M14.0303 53.2998C14.0303 54.6066 15.0772 55.666 16.3687 55.666C17.6601 55.666 18.707 54.6066 18.707 53.2998C18.707 51.993 17.6601 50.9336 16.3687 50.9336C15.0772 50.9336 14.0303 51.993 14.0303 53.2998Z" fill="url(#paint2_linear_3024_1611)"/>
<defs>
<linearGradient id="paint0_linear_3024_1611" x1="11.4969" y1="32.1412" x2="27.0732" y2="47.5344" gradientUnits="userSpaceOnUse">
<stop stop-color="#F9659E"/>
<stop offset="1" stop-color="#0578FF"/>
</linearGradient>
<linearGradient id="paint1_linear_3024_1611" x1="28.0591" y1="55.5449" x2="28.0591" y2="50.8125" gradientUnits="userSpaceOnUse">
<stop stop-color="#1877F8"/>
<stop offset="1" stop-color="#FF448C"/>
</linearGradient>
<linearGradient id="paint2_linear_3024_1611" x1="16.3687" y1="55.666" x2="16.3687" y2="50.9336" gradientUnits="userSpaceOnUse">
<stop stop-color="#1877F8"/>
<stop offset="1" stop-color="#FF448C"/>
</linearGradient>
</defs>
</svg>
