<svg width="96" height="42" viewBox="0 0 96 42" fill="none" xmlns="http://www.w3.org/2000/svg">
<path d="M41.6866 41.656C39.9955 41.656 39.7966 40.4437 39.7966 40.0028V28.4304L31.1422 40.7743C30.6449 41.4356 30.048 41.7662 29.3517 41.7662C28.6554 41.7662 28.0585 41.4356 27.5611 40.7743L19.0063 28.4304V40.0028C19.0063 40.5539 18.8073 41.656 17.1162 41.656C15.4252 41.656 15.3257 40.4437 15.3257 40.0028V23.0299C15.3257 21.9277 16.022 21.2665 17.2157 21.2665C18.4094 21.2665 18.6084 21.5971 19.1057 22.2584L29.3517 37.027L39.6971 22.2584C40.095 21.7073 40.5924 21.1562 41.5871 21.1562C42.5819 21.1562 43.4772 21.8175 43.4772 22.9197V39.8926C43.4772 40.9947 42.7808 41.5458 41.5871 41.5458L41.6866 41.656Z" fill="white"/>
<path d="M55.712 41.6563C54.021 41.6563 53.822 40.444 53.822 40.0031V24.6834H47.4556C45.864 24.6834 45.665 23.471 45.665 23.0302C45.665 21.928 46.3614 21.377 47.4556 21.377H63.7695C64.8638 21.377 65.5601 22.0382 65.5601 23.0302C65.5601 24.0221 65.3611 24.6834 63.7695 24.6834H57.5026V40.0031C57.5026 40.5542 57.3036 41.6563 55.712 41.6563Z" fill="white"/>
<path d="M94.2115 41.656C92.5204 41.656 92.3215 40.4437 92.3215 40.0028V28.4304L83.6672 40.7743C83.1698 41.4356 82.5729 41.7662 81.8766 41.7662C81.1803 41.7662 80.5834 41.4356 80.086 40.7743L71.5312 28.4304V40.0028C71.5312 40.5539 71.3322 41.656 69.6411 41.656C67.9501 41.656 67.8506 40.4437 67.8506 40.0028V23.0299C67.8506 21.9277 68.5469 21.2665 69.7406 21.2665C70.9343 21.2665 71.1333 21.5971 71.6306 22.2584L81.8766 37.027L92.222 22.2584C92.6199 21.7073 93.1173 21.1562 94.1121 21.1562C95.1068 21.1562 96.0021 21.8175 96.0021 22.9197V39.8926C96.0021 40.9947 95.3058 41.5458 94.1121 41.5458L94.2115 41.656Z" fill="white"/>
<path d="M8.35592 8.5957L4.17796 16.5311L0 8.5957H8.35592Z" fill="#8E3C97"/>
<path d="M12.5346 16.5311H4.17871L8.35667 8.5957L12.5346 16.5311Z" fill="#AF7EB8"/>
<path d="M8.35667 24.5827L4.17871 16.5371H12.5346L8.35667 24.5827Z" fill="#414190"/>
<path d="M0 24.5827L4.17796 16.5371L8.35592 24.5827H0Z" fill="#615CA0"/>
<path d="M13.2285 15.9823L17.4065 8.04688L21.5844 15.9823H13.2285Z" fill="#BCCE39"/>
<path d="M9.05371 8.04688H17.4096L13.2317 15.9823L9.05371 8.04688Z" fill="#CED976"/>
<path d="M13.2317 0L17.4096 8.04561H9.05371L13.2317 0Z" fill="#EF812A"/>
<path d="M21.5844 0L17.4065 8.04561L13.2285 0H21.5844Z" fill="#F6AC73"/>
</svg>
