<svg width="163" height="39" viewBox="0 0 163 39" fill="none" xmlns="http://www.w3.org/2000/svg">
<g clip-path="url(#clip0_2870_1605)">
<path d="M7.59084 10.1484H1.39844V34.4239H7.59084V10.1484Z" fill="#2DE1D5"/>
<path d="M8.78906 4.57645V4.37747C8.78906 3.71811 8.25246 3.18359 7.59053 3.18359L1.19838 3.18359C0.536447 3.18359 -0.000153542 3.71811 -0.000153542 4.37747V4.57645C-0.000153542 5.23581 0.536447 5.77033 1.19838 5.77033H7.59053C8.25246 5.77033 8.78906 5.23581 8.78906 4.57645Z" fill="#4B8BEF"/>
<path d="M7.59082 18.5059L11.5859 23.2814H7.59082V18.5059Z" fill="#2DE1D5"/>
<path d="M8.98877 17.9082H16.5506L30.5623 34.4235H22.5557L8.98877 17.9082Z" fill="#4B8BEF"/>
<path d="M9.78809 1.78354C29.219 -1.2921 34.2976 14.5318 22.374 22.8824L18.6204 18.0472C27.2319 9.25731 19.5036 7.49781 9.78809 7.49781V1.78354Z" fill="#4B8BEF"/>
<path d="M4.59457 0H4.39482C3.73289 0 3.19629 0.534517 3.19629 1.19388V7.56122C3.19629 8.22058 3.73289 8.7551 4.39482 8.7551H4.59457C5.2565 8.7551 5.7931 8.22058 5.7931 7.56122V1.19388C5.7931 0.534517 5.2565 0 4.59457 0Z" fill="#2DE1D5"/>
<path d="M46.0144 34.0248H42.3069C42.2047 33.6937 42.1024 33.2607 42.0513 32.7514C40.9518 33.872 39.52 34.4069 37.7813 34.4069C36.3239 34.4069 35.1733 34.0758 34.3295 33.3626C33.5113 32.6495 33.0767 31.6816 33.0767 30.4336C33.0767 29.8733 33.1534 29.3894 33.3068 28.9564C33.4602 28.5489 33.6903 28.1923 34.0227 27.8867C34.3551 27.6065 34.6619 27.3773 34.9687 27.1736C35.2756 26.9953 35.6847 26.8425 36.196 26.7151C36.733 26.6132 37.1676 26.5114 37.4745 26.4604C37.8069 26.4095 38.2671 26.3331 38.8552 26.2567C40.1336 26.1039 40.9774 25.9256 41.412 25.7218C41.8467 25.5435 42.0768 25.187 42.0768 24.6776C42.0768 23.506 41.2842 22.9202 39.6989 22.9202C38.8552 22.9202 38.2415 23.073 37.858 23.3786C37.4489 23.6843 37.1932 24.1936 37.0909 24.9323H33.6903C33.8949 21.9778 35.9148 20.5006 39.8012 20.5006C43.6365 20.5006 45.5542 21.9269 45.5542 24.7794V30.4591C45.5542 32.1401 45.7076 33.3117 46.0144 34.0248ZM42.0257 27.632C41.6166 27.8867 40.7472 28.1414 39.4688 28.3452C38.3949 28.498 37.7046 28.7272 37.3722 28.9819C37.0142 29.2875 36.8097 29.746 36.8097 30.3063C36.8097 30.8412 36.9887 31.2741 37.3466 31.5798C37.7046 31.8854 38.1904 32.0382 38.804 32.0382C39.7756 32.0382 40.5683 31.7835 41.1563 31.2741C41.7444 30.7647 42.0257 30.0261 42.0257 29.1092V27.632ZM61.2845 34.0248H57.8327V32.3438C56.9634 33.7192 55.6338 34.3814 53.844 34.3814C52.0286 34.3814 50.5712 33.7701 49.4973 32.4967C48.4234 31.2232 47.8865 29.5422 47.8865 27.4028C47.8865 25.3398 48.3979 23.6843 49.4462 22.4363C50.4945 21.1628 51.9008 20.5515 53.665 20.5515C54.4832 20.5515 55.2503 20.7043 55.9662 21.0609C56.6821 21.392 57.2702 21.8759 57.6793 22.5127V15.8906H61.2845V34.0248ZM57.7815 27.4283C57.7815 26.1548 57.5259 25.187 56.9634 24.4738C56.4008 23.7607 55.6338 23.4041 54.6622 23.4041C53.665 23.4041 52.8979 23.7607 52.361 24.4738C51.7985 25.187 51.5428 26.1548 51.5428 27.4283C51.5428 28.7017 51.7985 29.695 52.361 30.4082C52.9235 31.1213 53.6906 31.5034 54.6622 31.5034C55.6594 31.5034 56.4264 31.1468 56.9634 30.4336C57.5259 29.7205 57.7815 28.7272 57.7815 27.4283ZM67.7873 20.8826V34.0248H64.1565V20.8826H67.7873Z" fill="#4B8BEF"/>
<path d="M82.1598 15.8906V34.0248H78.1455V15.8906H82.1598ZM97.7291 34.0248H94.0472V26.3585C94.0472 25.4416 93.8938 24.7285 93.587 24.2446C93.2801 23.7607 92.6665 23.506 91.7972 23.506C89.8795 23.506 88.9335 24.6776 88.9335 26.9698V34.0248H85.3283V20.8826H88.7801V22.7164C89.8539 21.2647 91.3114 20.5261 93.1523 20.5261C94.5586 20.5261 95.6836 20.9336 96.5018 21.7486C97.32 22.5636 97.7291 23.7352 97.7291 25.2379V34.0248ZM111.607 24.703L108.206 24.7285C108.104 24.0663 107.874 23.5824 107.465 23.3277C107.056 23.0475 106.468 22.9202 105.701 22.9202C105.061 22.9202 104.55 23.0221 104.192 23.2513C103.834 23.4805 103.655 23.8116 103.655 24.2191C103.655 24.6776 103.86 25.0087 104.269 25.2124C104.678 25.3907 105.419 25.5945 106.468 25.8237C106.672 25.8492 106.8 25.8746 106.877 25.9001C107.49 26.002 108.002 26.1038 108.36 26.2057C108.718 26.3076 109.178 26.4604 109.689 26.6642C110.226 26.8679 110.635 27.1226 110.917 27.3773C111.224 27.632 111.479 27.9886 111.684 28.4216C111.914 28.88 112.016 29.3894 112.016 29.9497C112.016 31.3251 111.479 32.4203 110.405 33.2098C109.331 34.0248 107.874 34.4069 105.982 34.4069C104.192 34.4069 102.735 34.0248 101.559 33.2607C100.408 32.4967 99.8199 31.3251 99.7943 29.746H103.246C103.374 31.2232 104.32 31.9363 106.059 31.9363C106.8 31.9363 107.388 31.809 107.823 31.5034C108.258 31.1977 108.462 30.8157 108.462 30.3063C108.462 29.8224 108.283 29.4658 107.874 29.2621C107.49 29.0583 106.775 28.8545 105.701 28.5998C105.624 28.5998 105.547 28.5744 105.496 28.5489C105.394 28.5234 105.113 28.4725 104.704 28.3706C104.294 28.2942 104.013 28.2433 103.86 28.1923C103.706 28.1414 103.425 28.065 103.067 27.9631C102.709 27.8612 102.428 27.7848 102.249 27.683C102.096 27.5811 101.865 27.4792 101.584 27.3264C101.303 27.1736 101.098 27.0208 100.945 26.8425C100.817 26.6896 100.664 26.4859 100.51 26.2567C100.357 26.0274 100.229 25.7727 100.178 25.4671C100.127 25.187 100.101 24.8813 100.101 24.5247C100.101 23.2513 100.587 22.258 101.61 21.5448C102.607 20.8572 104.039 20.5006 105.88 20.5006C107.516 20.5006 108.871 20.8572 109.945 21.5194C110.993 22.207 111.556 23.2767 111.607 24.703ZM117.925 15.8906V18.947H114.295V15.8906H117.925ZM117.925 20.8826V34.0248H114.295V20.8826H117.925ZM133.441 20.8826V32.675C133.441 34.8144 132.904 36.3935 131.83 37.4123C130.756 38.431 129.12 38.9404 126.946 38.9404C123.162 38.9404 121.117 37.5651 120.759 34.8398H124.364C124.492 35.4256 124.773 35.8586 125.208 36.1133C125.617 36.368 126.23 36.5208 127.023 36.5208C128.148 36.5208 128.915 36.2407 129.324 35.6803C129.708 35.12 129.912 34.2795 129.938 33.1079L129.963 31.6307C128.966 32.9806 127.611 33.6683 125.923 33.6683C124.185 33.6683 122.83 33.0825 121.807 31.9109C120.784 30.7393 120.298 29.1602 120.298 27.199C120.298 25.187 120.81 23.5824 121.884 22.3598C122.932 21.1373 124.338 20.5261 126.077 20.5261C126.997 20.5261 127.739 20.7043 128.353 21.0354C128.966 21.3665 129.503 21.9014 130.014 22.64V20.8826H133.441ZM126.921 23.3532C125.949 23.3532 125.208 23.6843 124.671 24.3465C124.134 25.0087 123.852 25.951 123.852 27.1736C123.852 28.3197 124.134 29.2366 124.696 29.9243C125.259 30.6119 126 30.9685 126.921 30.9685C127.867 30.9685 128.608 30.6119 129.145 29.9243C129.708 29.2111 129.963 28.2687 129.963 27.0972C129.963 25.9256 129.708 25.0087 129.145 24.3465C128.608 23.6843 127.867 23.3532 126.921 23.3532ZM140.02 15.8906V22.6655C141.043 21.2647 142.449 20.577 144.188 20.577C147.256 20.577 148.816 22.1816 148.816 25.4416V34.0503H145.185V26.3076C145.185 25.3907 145.006 24.703 144.699 24.2446C144.367 23.7607 143.753 23.5314 142.858 23.5314C141.759 23.5314 141.017 23.8625 140.608 24.5757C140.199 25.2634 140.02 26.1803 140.02 27.3264V34.0248H136.441V15.8906H140.02ZM158.833 20.8826V23.3532H156.148V29.5422C156.148 29.9243 156.148 30.2044 156.174 30.3827C156.174 30.561 156.25 30.7393 156.353 30.943C156.455 31.1213 156.608 31.2487 156.813 31.2996C157.018 31.3505 157.324 31.376 157.733 31.376C158.168 31.376 158.526 31.376 158.833 31.3251V34.0758C157.938 34.1522 157.197 34.1776 156.634 34.1776C155.049 34.1776 153.949 33.923 153.387 33.3626C152.824 32.8023 152.543 31.7326 152.543 30.1535V23.3277H150.344V20.8826H152.543V16.9094H156.148V20.8826H158.833Z" fill="#2DE1D5"/>
<path d="M67.5019 19.0862C67.2127 19.3742 66.8454 19.5717 66.445 19.6545C66.0447 19.7373 65.6289 19.7017 65.2485 19.5521C64.8682 19.4026 64.5402 19.1456 64.3045 18.8127C64.069 18.4798 63.9361 18.0856 63.9225 17.6785C63.909 17.2715 64.015 16.8693 64.2278 16.5216C64.4405 16.1738 64.7507 15.8955 65.1201 15.721C65.4896 15.5465 65.9021 15.4834 66.3072 15.5394C66.7121 15.5954 67.0919 15.7681 67.3997 16.0362L66.8983 16.6072C66.7021 16.4365 66.4604 16.3265 66.2025 16.2908C65.9445 16.2551 65.6818 16.2954 65.4465 16.4065C65.2112 16.5176 65.0136 16.6948 64.8782 16.9163C64.7425 17.1379 64.675 17.394 64.6836 17.6532C64.6924 17.9125 64.7769 18.1636 64.9269 18.3755C65.0771 18.5876 65.2861 18.7513 65.5282 18.8465C65.7705 18.9418 66.0354 18.9644 66.2902 18.9117C66.5453 18.859 66.7792 18.7332 66.9634 18.5497L67.5019 19.0862Z" fill="#4B8BEF"/>
<path d="M66.033 18.0801C66.2864 18.0801 66.4918 17.8755 66.4918 17.623C66.4918 17.3706 66.2864 17.166 66.033 17.166C65.7796 17.166 65.5742 17.3706 65.5742 17.623C65.5742 17.8755 65.7796 18.0801 66.033 18.0801Z" fill="#4B8BEF"/>
<mask id="mask0_2870_1605" style="mask-type:luminance" maskUnits="userSpaceOnUse" x="154" y="7" width="9" height="9">
<path d="M163 7.16406H154.61V15.5212H163V7.16406Z" fill="white"/>
</mask>
<g mask="url(#mask0_2870_1605)">
<path d="M158.036 10.103H157.012V12.7355H156.313V10.103H155.31V9.60156H158.036V10.103ZM159.33 9.60156L160.204 11.865L161.046 9.60156H161.951V12.7355H161.252V11.865L161.329 10.3816L160.424 12.7355H159.952L159.05 10.385L159.12 11.865V12.7355H158.421V9.60156H159.33Z" fill="black"/>
</g>
</g>
<defs>
<clipPath id="clip0_2870_1605">
<rect width="163" height="39" fill="white"/>
</clipPath>
</defs>
</svg>
