<svg width="141" height="54" viewBox="0 0 141 54" fill="none" xmlns="http://www.w3.org/2000/svg">
<g clip-path="url(#clip0_3024_1607)">
<mask id="mask0_3024_1607" style="mask-type:luminance" maskUnits="userSpaceOnUse" x="0" y="0" width="141" height="54">
<path d="M140.848 0H0V53.7586H140.848V0Z" fill="white"/>
</mask>
<g mask="url(#mask0_3024_1607)">
<path d="M40.5948 17.5576C40.4597 17.3822 40.2859 17.2404 40.087 17.1434C39.8881 17.0464 39.6695 16.9968 39.448 16.9985H37.4123V9.42209C37.4134 9.03926 37.2632 8.67148 36.9951 8.39842C36.7267 8.1254 36.3615 7.9691 35.9788 7.96344H31.2122V5.24684C31.2122 4.8606 31.059 4.49013 30.7862 4.21668C30.5134 3.94323 30.1434 3.78912 29.7571 3.78819H25.0084V1.45865C25.0084 1.07241 24.8553 0.70194 24.5825 0.428495C24.3097 0.155047 23.9396 0.000948986 23.5534 0H17.3496C16.9634 0.000948986 16.5933 0.155047 16.3205 0.428495C16.0478 0.70194 15.8946 1.07241 15.8946 1.45865V3.78819H11.1459C10.7631 3.79385 10.398 3.95015 10.1296 4.22317C9.86129 4.49622 9.71134 4.86401 9.71234 5.24684V7.95627H4.94216C4.75107 7.95674 4.56194 7.99483 4.38562 8.06841C4.20925 8.14195 4.04909 8.24954 3.91433 8.38498C3.77954 8.52041 3.67274 8.68112 3.60006 8.8578C3.52737 9.03452 3.4902 9.22383 3.49067 9.41492V16.9985H1.45502C1.23558 16.999 1.0191 17.0491 0.821783 17.1452C0.624467 17.2412 0.451426 17.3806 0.315609 17.5529C0.179792 17.7253 0.0847169 17.9262 0.0375003 18.1404C-0.00971608 18.3547 -0.00785127 18.577 0.0429554 18.7904C0.992689 22.6431 4.84898 40.2222 5.83097 44.186C6.20778 45.7704 7.10938 47.1807 8.3892 48.1881C9.66905 49.1952 11.2519 49.74 12.8805 49.7339H28.0046C29.633 49.7421 31.2163 49.1999 32.4975 48.1946C33.7786 47.1893 34.6821 45.7805 35.0613 44.1967C36.0325 40.2544 39.8924 22.6933 40.8529 18.8048C40.9063 18.5904 40.9102 18.3667 40.8643 18.1505C40.8181 17.9345 40.7238 17.7317 40.5877 17.5576H40.5948ZM34.5022 10.8807V16.9985H33.6672C33.3889 16.9963 33.1161 17.0751 32.882 17.2253C32.6478 17.3754 32.4623 17.5905 32.3483 17.8443C32.06 18.4648 31.682 19.0396 31.2265 19.5502V10.8807H34.5022ZM28.2913 6.7019V21.8224C27.2487 22.3838 26.1431 22.8193 24.9977 23.1198V6.7019H28.2913ZM22.0983 2.91372V23.6359C21.556 23.686 21.0076 23.7111 20.4533 23.7111C19.8942 23.7111 19.3459 23.686 18.8047 23.6359V2.91372H22.0983ZM15.8946 6.7019V23.1198C14.7492 22.8193 13.6436 22.3838 12.601 21.8224V6.7019H15.8946ZM6.39723 10.8807H9.69442V19.5502C9.24145 19.0391 8.86593 18.4644 8.57982 17.8443C8.46575 17.5905 8.28035 17.3754 8.04615 17.2253C7.81197 17.0751 7.53913 16.9963 7.26095 16.9985H6.39723V10.8807ZM32.2479 43.4943C32.0253 44.4476 31.4842 45.2963 30.714 45.9002C29.9438 46.5044 28.9905 46.8277 28.0118 46.8166H12.8805C11.9017 46.8277 10.9485 46.5044 10.1783 45.9002C9.40807 45.2963 8.86697 44.4476 8.64434 43.4943C7.67668 39.5699 4.11069 23.3348 3.29356 19.9086H6.36855C8.75185 23.9584 14.2531 26.6213 20.4461 26.6213C26.6391 26.6213 32.1368 23.9584 34.5201 19.9086H37.6094C36.7851 23.3671 33.2192 39.6201 32.2587 43.4943H32.2479Z" fill="#83C76F"/>
<path d="M20.4533 31.8613C19.4058 31.8585 18.3809 32.1666 17.5085 32.7465C16.6361 33.3264 15.9554 34.1521 15.5526 35.1191C15.1497 36.0861 15.0429 37.1508 15.2455 38.1787C15.4481 39.2066 15.9511 40.1509 16.6909 40.8928C17.4306 41.6343 18.3738 42.14 19.401 42.3453C20.4282 42.5507 21.4932 42.4468 22.4613 42.0464C23.4294 41.6465 24.257 40.9681 24.8393 40.0972C25.4216 39.2263 25.7324 38.2024 25.7324 37.1548C25.7324 35.7533 25.1767 34.4091 24.187 33.4168C23.1974 32.4245 21.8547 31.8651 20.4533 31.8613ZM20.4533 39.5345C19.9823 39.5359 19.5215 39.3976 19.1293 39.137C18.737 38.8761 18.4308 38.5052 18.2496 38.0705C18.0684 37.6357 18.0203 37.1569 18.1112 36.695C18.2023 36.233 18.4284 35.8081 18.7609 35.4746C19.0934 35.1411 19.5174 34.9137 19.9792 34.8213C20.441 34.7289 20.9199 34.7756 21.3551 34.9555C21.7904 35.1354 22.1625 35.4404 22.4243 35.8319C22.6861 36.2233 22.8258 36.6839 22.8258 37.1548C22.8258 37.7848 22.5761 38.3887 22.1314 38.8349C21.6866 39.2811 21.0832 39.5327 20.4533 39.5345Z" fill="#83C76F"/>
<path d="M53.288 28.0673C53.288 28.8641 53.1396 29.5632 52.8429 30.1648C52.5461 30.7662 52.1436 31.2701 51.6358 31.6763C51.1283 32.0747 50.5345 32.3755 49.855 32.5786C49.1751 32.7817 48.4486 32.8832 47.6752 32.8832C47.152 32.8832 46.6638 32.8403 46.2105 32.7543C45.7654 32.6684 45.3708 32.5669 45.0271 32.4497C44.6834 32.3247 44.3945 32.1958 44.1601 32.063C43.9336 31.9302 43.7695 31.813 43.6677 31.7115C43.5663 31.6099 43.4921 31.4654 43.4451 31.2779C43.4061 31.0826 43.3867 30.8053 43.3867 30.446C43.3867 30.2038 43.3946 30.0007 43.41 29.8366C43.4258 29.6726 43.4491 29.5398 43.4803 29.4383C43.5193 29.3367 43.5663 29.2664 43.6211 29.2273C43.6835 29.1805 43.7537 29.157 43.8318 29.157C43.9412 29.157 44.0935 29.2234 44.2888 29.3562C44.492 29.4812 44.7497 29.6218 45.0622 29.778C45.3747 29.9343 45.7456 30.0788 46.1754 30.2116C46.613 30.3366 47.1169 30.3991 47.6871 30.3991C48.0619 30.3991 48.3977 30.3561 48.6948 30.2702C48.9916 30.1765 49.2417 30.0476 49.4446 29.8835C49.6557 29.7195 49.8159 29.5163 49.9252 29.2742C50.0345 29.032 50.0893 28.7625 50.0893 28.4657C50.0893 28.122 49.9954 27.829 49.808 27.5868C49.6206 27.3369 49.3744 27.1181 49.0697 26.9307C48.773 26.7354 48.4332 26.5557 48.0505 26.3917C47.6673 26.2198 47.2731 26.0401 46.8667 25.8526C46.4606 25.6652 46.066 25.4542 45.6833 25.2199C45.3005 24.9777 44.9568 24.6926 44.6522 24.3645C44.3555 24.0286 44.1132 23.6341 43.9257 23.181C43.7383 22.7279 43.6444 22.185 43.6444 21.5522C43.6444 20.8257 43.7774 20.1891 44.0429 19.6423C44.3164 19.0876 44.6794 18.6306 45.1324 18.2713C45.5933 17.9041 46.1323 17.6307 46.7495 17.4511C47.3745 17.2714 48.0347 17.1815 48.73 17.1815C49.0894 17.1815 49.4485 17.2089 49.808 17.2635C50.1671 17.3182 50.5033 17.3925 50.8158 17.4862C51.1283 17.5799 51.4054 17.6854 51.6476 17.8026C51.8899 17.9198 52.0501 18.0174 52.1282 18.0955C52.206 18.1736 52.2569 18.2401 52.2805 18.2947C52.3117 18.3494 52.335 18.4236 52.3508 18.5173C52.3741 18.6033 52.3898 18.7166 52.3974 18.8572C52.4053 18.99 52.4092 19.1579 52.4092 19.361C52.4092 19.5876 52.4013 19.7789 52.3859 19.9352C52.378 20.0914 52.3587 20.2203 52.3271 20.3219C52.3038 20.4234 52.2648 20.4976 52.2099 20.5445C52.1633 20.5914 52.0967 20.6148 52.011 20.6148C51.925 20.6148 51.7881 20.5601 51.6007 20.4508C51.4132 20.3414 51.1828 20.2242 50.9093 20.0992C50.6359 19.9665 50.3198 19.8493 49.9603 19.7477C49.6009 19.6384 49.2063 19.5837 48.7769 19.5837C48.4407 19.5837 48.1479 19.6266 47.8978 19.7126C47.648 19.7907 47.4369 19.904 47.2652 20.0524C47.1011 20.193 46.976 20.3648 46.8903 20.5679C46.8122 20.771 46.7732 20.9859 46.7732 21.2124C46.7732 21.5483 46.8628 21.8413 47.0427 22.0912C47.2301 22.3334 47.476 22.5521 47.7809 22.7474C48.0931 22.9349 48.4447 23.1146 48.8353 23.2864C49.226 23.4505 49.6245 23.6263 50.0306 23.8137C50.4366 24.0012 50.8352 24.2161 51.2258 24.4582C51.6164 24.6926 51.9641 24.9777 52.2687 25.3136C52.5733 25.6417 52.8196 26.0323 53.007 26.4854C53.1944 26.9307 53.288 27.458 53.288 28.0673ZM61.6546 31.1842C61.6546 31.5279 61.631 31.7935 61.5844 31.981C61.5453 32.1607 61.4905 32.2895 61.4202 32.3677C61.35 32.438 61.2442 32.5044 61.1038 32.5669C60.9712 32.6216 60.811 32.6684 60.6235 32.7075C60.4436 32.7543 60.2443 32.7895 60.0257 32.8129C59.815 32.8364 59.6 32.8481 59.3813 32.8481C58.7954 32.8481 58.2875 32.7739 57.8582 32.6255C57.4285 32.4771 57.0729 32.2505 56.7916 31.9458C56.5106 31.6334 56.3035 31.2428 56.1705 30.774C56.0379 30.3053 55.9716 29.7507 55.9716 29.1101V23.7552H54.7176C54.5692 23.7552 54.456 23.6653 54.3778 23.4857C54.2997 23.2982 54.2606 22.9896 54.2606 22.56C54.2606 22.3334 54.2685 22.142 54.2839 21.9858C54.3076 21.8296 54.3388 21.7085 54.3778 21.6225C54.4169 21.5288 54.4639 21.4624 54.5183 21.4234C54.581 21.3843 54.6513 21.3648 54.7294 21.3648H55.9716V19.0329C55.9716 18.9548 55.991 18.8845 56.03 18.822C56.077 18.7595 56.1551 18.7088 56.2644 18.6697C56.3816 18.6228 56.5339 18.5916 56.7214 18.5759C56.9167 18.5525 57.155 18.5408 57.436 18.5408C57.7252 18.5408 57.9635 18.5525 58.151 18.5759C58.3463 18.5916 58.4986 18.6228 58.6079 18.6697C58.7172 18.7088 58.7954 18.7595 58.8423 18.822C58.8893 18.8845 58.9126 18.9548 58.9126 19.0329V21.3648H61.1858C61.264 21.3648 61.3303 21.3843 61.3851 21.4234C61.4475 21.4624 61.4983 21.5288 61.5374 21.6225C61.5765 21.7085 61.6037 21.8296 61.6195 21.9858C61.6428 22.142 61.6546 22.3334 61.6546 22.56C61.6546 22.9896 61.6155 23.2982 61.5374 23.4857C61.4593 23.6653 61.346 23.7552 61.1977 23.7552H58.9126V28.6649C58.9126 29.2352 59.0025 29.6648 59.1821 29.9538C59.3616 30.2351 59.682 30.3757 60.1429 30.3757C60.2992 30.3757 60.4397 30.3639 60.5647 30.3405C60.6898 30.3093 60.7991 30.278 60.893 30.2467C60.9944 30.2077 61.0765 30.1765 61.1389 30.153C61.2091 30.1218 61.2718 30.1062 61.3263 30.1062C61.3733 30.1062 61.4163 30.1218 61.4553 30.153C61.5023 30.1765 61.5374 30.2312 61.5607 30.3171C61.5844 30.3952 61.6037 30.5045 61.6195 30.6452C61.6428 30.7858 61.6546 30.9655 61.6546 31.1842ZM74.1223 26.8838C74.1223 27.7743 74.0051 28.5868 73.7707 29.3211C73.5363 30.0554 73.1808 30.6881 72.7041 31.2193C72.2278 31.7505 71.63 32.1607 70.9115 32.4497C70.1929 32.7387 69.3532 32.8832 68.3923 32.8832C67.4627 32.8832 66.6542 32.7543 65.9668 32.4965C65.2794 32.2388 64.7088 31.8638 64.2558 31.3717C63.8028 30.8795 63.467 30.2741 63.248 29.5554C63.0294 28.8367 62.9201 28.0165 62.9201 27.0947C62.9201 26.2042 63.0373 25.3917 63.2717 24.6574C63.5136 23.9153 63.873 23.2825 64.3497 22.7591C64.826 22.228 65.4199 21.8178 66.1305 21.5288C66.8495 21.2398 67.6892 21.0952 68.65 21.0952C69.5876 21.0952 70.3997 21.2242 71.0874 21.4819C71.7748 21.7319 72.3411 22.103 72.7862 22.5951C73.2396 23.0873 73.5754 23.6927 73.794 24.4114C74.0126 25.13 74.1223 25.9542 74.1223 26.8838ZM71.0874 27.0009C71.0874 26.4854 71.0444 26.0128 70.9584 25.5831C70.8803 25.1457 70.7434 24.7668 70.5484 24.4465C70.3531 24.1262 70.0911 23.8762 69.7632 23.6966C69.4428 23.5169 69.0367 23.4271 68.5447 23.4271C68.1071 23.4271 67.7243 23.5091 67.396 23.6731C67.0681 23.8294 66.7986 24.0637 66.5879 24.3762C66.3768 24.6809 66.2166 25.0519 66.1072 25.4894C66.0058 25.919 65.9549 26.4112 65.9549 26.9658C65.9549 27.4814 65.9979 27.9579 66.084 28.3954C66.1696 28.825 66.3065 29.2 66.494 29.5203C66.6893 29.8405 66.9509 30.0905 67.2792 30.2702C67.6071 30.4421 68.0132 30.528 68.4977 30.528C68.9428 30.528 69.3295 30.4499 69.6578 30.2936C69.9858 30.1296 70.2553 29.8952 70.4664 29.5906C70.6771 29.2859 70.8333 28.9188 70.9348 28.4891C71.0366 28.0516 71.0874 27.5556 71.0874 27.0009ZM83.1799 22.7357C83.1799 23.0169 83.172 23.2474 83.1566 23.4271C83.1408 23.6067 83.1175 23.7473 83.0864 23.8489C83.0548 23.9505 83.0118 24.0208 82.9573 24.0598C82.9104 24.0989 82.848 24.1184 82.7699 24.1184C82.7072 24.1184 82.6369 24.1067 82.5588 24.0833C82.4807 24.052 82.3911 24.0208 82.2893 23.9895C82.1958 23.9583 82.09 23.9309 81.9728 23.9075C81.856 23.8762 81.727 23.8606 81.5865 23.8606C81.4224 23.8606 81.2582 23.8958 81.0941 23.9661C80.9303 24.0286 80.7583 24.1301 80.5787 24.2707C80.4067 24.4114 80.2232 24.5988 80.0279 24.8332C79.8404 25.0675 79.6372 25.3566 79.4186 25.7003V32.2154C79.4186 32.2934 79.3949 32.3638 79.3483 32.4263C79.3014 32.481 79.2193 32.5278 79.1021 32.5669C78.9928 32.6059 78.8445 32.6333 78.657 32.6489C78.4696 32.6723 78.2312 32.6841 77.942 32.6841C77.6532 32.6841 77.4148 32.6723 77.2274 32.6489C77.04 32.6333 76.8876 32.6059 76.7704 32.5669C76.6611 32.5278 76.583 32.481 76.5361 32.4263C76.4891 32.3638 76.4658 32.2934 76.4658 32.2154V21.7631C76.4658 21.685 76.4852 21.6186 76.5242 21.5639C76.5633 21.5014 76.6335 21.4507 76.7353 21.4116C76.8367 21.3726 76.9658 21.3452 77.122 21.3296C77.2858 21.3062 77.489 21.2944 77.7313 21.2944C77.9811 21.2944 78.1882 21.3062 78.3524 21.3296C78.5162 21.3452 78.6412 21.3726 78.7273 21.4116C78.8208 21.4507 78.8875 21.5014 78.9265 21.5639C78.9656 21.6186 78.9849 21.685 78.9849 21.7631V23.0638C79.2584 22.6732 79.5161 22.3529 79.7583 22.103C80.0006 21.8452 80.2311 21.6421 80.4497 21.4936C80.6683 21.3452 80.8873 21.2437 81.1059 21.189C81.3245 21.1265 81.5435 21.0952 81.7621 21.0952C81.8635 21.0952 81.9728 21.1031 82.09 21.1187C82.2072 21.1265 82.3284 21.146 82.4534 21.1773C82.5785 21.2007 82.6878 21.232 82.7814 21.271C82.8753 21.3023 82.9416 21.3374 82.9806 21.3765C83.0276 21.4155 83.0588 21.4585 83.0745 21.5054C83.0978 21.5522 83.1175 21.6186 83.133 21.7046C83.1487 21.7827 83.1605 21.9038 83.1681 22.0678C83.176 22.2319 83.1799 22.4545 83.1799 22.7357ZM94.3703 26.6846C94.3703 27.0439 94.2882 27.3095 94.1244 27.4814C93.9682 27.6533 93.7492 27.7392 93.4682 27.7392H87.1054C87.1054 28.1845 87.1562 28.5907 87.2577 28.9578C87.367 29.3172 87.5351 29.6257 87.7616 29.8835C87.996 30.1335 88.2927 30.3249 88.6522 30.4577C89.0192 30.5905 89.4568 30.6569 89.9646 30.6569C90.48 30.6569 90.933 30.6217 91.3236 30.5514C91.7143 30.4733 92.0501 30.3913 92.3314 30.3053C92.6206 30.2116 92.8586 30.1296 93.0464 30.0593C93.2338 29.9812 93.3862 29.9421 93.5033 29.9421C93.5736 29.9421 93.632 29.9577 93.679 29.989C93.7259 30.0124 93.765 30.0593 93.7961 30.1296C93.8273 30.1999 93.847 30.3014 93.8549 30.4343C93.8703 30.5592 93.8782 30.7194 93.8782 30.9147C93.8782 31.0865 93.8743 31.235 93.8664 31.3599C93.8585 31.4771 93.847 31.5787 93.8313 31.6646C93.8159 31.7505 93.7922 31.8247 93.761 31.8872C93.7298 31.9419 93.6868 31.9966 93.632 32.0513C93.5854 32.106 93.4485 32.1802 93.222 32.2739C92.9955 32.3677 92.7063 32.4614 92.3551 32.5551C92.0035 32.6411 91.601 32.7153 91.148 32.7778C90.695 32.8481 90.2105 32.8832 89.6951 32.8832C88.7654 32.8832 87.949 32.7661 87.2458 32.5317C86.5506 32.2974 85.9689 31.9419 85.5001 31.4654C85.0313 30.9889 84.6798 30.3874 84.4454 29.6609C84.2189 28.9344 84.1056 28.0829 84.1056 27.1064C84.1056 26.1768 84.2268 25.341 84.469 24.5988C84.7109 23.8489 85.0625 23.2162 85.5234 22.7006C85.9843 22.1772 86.543 21.7788 87.1993 21.5054C87.863 21.232 88.6092 21.0952 89.437 21.0952C90.3122 21.0952 91.058 21.2242 91.6752 21.4819C92.3002 21.7397 92.812 22.0991 93.2102 22.56C93.6087 23.013 93.9015 23.552 94.089 24.177C94.2768 24.8019 94.3703 25.4816 94.3703 26.2159V26.6846ZM91.5111 25.8409C91.5347 25.0128 91.3666 24.3645 91.0075 23.8958C90.6559 23.4193 90.109 23.181 89.3668 23.181C88.9919 23.181 88.6636 23.2513 88.3827 23.3919C88.1092 23.5325 87.8788 23.7239 87.6913 23.9661C87.5114 24.2005 87.3709 24.4817 87.2695 24.8097C87.1756 25.13 87.1211 25.4738 87.1054 25.8409H91.5111ZM102.924 17.7791C102.924 18.0057 102.916 18.1893 102.901 18.3299C102.885 18.4627 102.862 18.5681 102.83 18.6463C102.799 18.7166 102.764 18.7673 102.725 18.7986C102.686 18.822 102.643 18.8337 102.596 18.8337C102.542 18.8337 102.479 18.822 102.409 18.7986C102.346 18.7673 102.264 18.7361 102.162 18.7049C102.069 18.6736 101.956 18.6463 101.823 18.6228C101.69 18.5916 101.534 18.5759 101.354 18.5759C101.143 18.5759 100.96 18.6111 100.803 18.6814C100.655 18.7439 100.53 18.8494 100.429 18.9978C100.327 19.1384 100.253 19.3259 100.206 19.5602C100.159 19.7868 100.135 20.068 100.135 20.4039V21.3648H102.046C102.116 21.3648 102.178 21.3843 102.233 21.4234C102.295 21.4624 102.346 21.5288 102.385 21.6225C102.424 21.7085 102.452 21.8296 102.467 21.9858C102.491 22.142 102.503 22.3334 102.503 22.56C102.503 22.9896 102.463 23.2982 102.385 23.4857C102.307 23.6653 102.194 23.7552 102.046 23.7552H100.135V32.2154C100.135 32.2934 100.112 32.3638 100.065 32.4263C100.018 32.481 99.94 32.5278 99.8307 32.5669C99.7214 32.6059 99.5691 32.6333 99.3738 32.6489C99.1785 32.6723 98.9401 32.6841 98.6592 32.6841C98.3778 32.6841 98.1395 32.6723 97.9442 32.6489C97.7567 32.6333 97.6044 32.6059 97.4872 32.5669C97.3779 32.5278 97.2998 32.481 97.2528 32.4263C97.2138 32.3638 97.1944 32.2934 97.1944 32.2154V23.7552H95.882C95.7336 23.7552 95.6204 23.6653 95.5422 23.4857C95.4716 23.2982 95.4365 22.9896 95.4365 22.56C95.4365 22.3334 95.4444 22.142 95.4602 21.9858C95.4835 21.8296 95.5107 21.7085 95.5422 21.6225C95.5813 21.5288 95.6279 21.4624 95.6827 21.4234C95.7451 21.3843 95.8157 21.3648 95.8938 21.3648H97.1944V20.4859C97.1944 19.775 97.2647 19.154 97.4051 18.6228C97.546 18.0838 97.7646 17.6385 98.0614 17.287C98.366 16.9277 98.7488 16.6582 99.2096 16.4785C99.6784 16.2988 100.229 16.209 100.862 16.209C101.166 16.209 101.456 16.2363 101.729 16.291C102.003 16.3379 102.217 16.3926 102.374 16.4551C102.53 16.5097 102.635 16.5644 102.69 16.6191C102.744 16.666 102.787 16.7402 102.819 16.8417C102.858 16.9355 102.885 17.0604 102.901 17.2167C102.916 17.3651 102.924 17.5526 102.924 17.7791ZM110.928 22.7357C110.928 23.0169 110.92 23.2474 110.904 23.4271C110.889 23.6067 110.865 23.7473 110.834 23.8489C110.802 23.9505 110.759 24.0208 110.705 24.0598C110.658 24.0989 110.595 24.1184 110.517 24.1184C110.455 24.1184 110.385 24.1067 110.306 24.0833C110.228 24.052 110.138 24.0208 110.037 23.9895C109.943 23.9583 109.838 23.9309 109.721 23.9075C109.603 23.8762 109.474 23.8606 109.334 23.8606C109.17 23.8606 109.006 23.8958 108.842 23.9661C108.678 24.0286 108.506 24.1301 108.326 24.2707C108.154 24.4114 107.971 24.5988 107.776 24.8332C107.588 25.0675 107.385 25.3566 107.166 25.7003V32.2154C107.166 32.2934 107.143 32.3638 107.096 32.4263C107.049 32.481 106.967 32.5278 106.85 32.5669C106.74 32.6059 106.592 32.6333 106.404 32.6489C106.217 32.6723 105.979 32.6841 105.69 32.6841C105.4 32.6841 105.162 32.6723 104.975 32.6489C104.787 32.6333 104.635 32.6059 104.518 32.5669C104.408 32.5278 104.33 32.481 104.283 32.4263C104.237 32.3638 104.213 32.2934 104.213 32.2154V21.7631C104.213 21.685 104.233 21.6186 104.272 21.5639C104.311 21.5014 104.381 21.4507 104.483 21.4116C104.584 21.3726 104.713 21.3452 104.869 21.3296C105.033 21.3062 105.237 21.2944 105.479 21.2944C105.729 21.2944 105.936 21.3062 106.1 21.3296C106.264 21.3452 106.389 21.3726 106.475 21.4116C106.568 21.4507 106.635 21.5014 106.674 21.5639C106.713 21.6186 106.733 21.685 106.733 21.7631V23.0638C107.006 22.6732 107.264 22.3529 107.506 22.103C107.748 21.8452 107.978 21.6421 108.197 21.4936C108.416 21.3452 108.635 21.2437 108.854 21.189C109.072 21.1265 109.291 21.0952 109.509 21.0952C109.611 21.0952 109.721 21.1031 109.838 21.1187C109.955 21.1265 110.076 21.146 110.201 21.1773C110.326 21.2007 110.435 21.232 110.529 21.271C110.623 21.3023 110.689 21.3374 110.728 21.3765C110.775 21.4155 110.806 21.4585 110.822 21.5054C110.846 21.5522 110.865 21.6186 110.881 21.7046C110.896 21.7827 110.908 21.9038 110.916 22.0678C110.924 22.2319 110.928 22.4545 110.928 22.7357ZM115.697 32.2154C115.697 32.2934 115.673 32.3638 115.626 32.4263C115.579 32.481 115.497 32.5278 115.38 32.5669C115.271 32.6059 115.123 32.6333 114.935 32.6489C114.747 32.6723 114.509 32.6841 114.22 32.6841C113.931 32.6841 113.693 32.6723 113.505 32.6489C113.318 32.6333 113.165 32.6059 113.048 32.5669C112.939 32.5278 112.861 32.481 112.814 32.4263C112.767 32.3638 112.744 32.2934 112.744 32.2154V21.7866C112.744 21.7085 112.767 21.6421 112.814 21.5874C112.861 21.5249 112.939 21.4741 113.048 21.4351C113.165 21.3882 113.318 21.353 113.505 21.3296C113.693 21.3062 113.931 21.2944 114.22 21.2944C114.509 21.2944 114.747 21.3062 114.935 21.3296C115.123 21.353 115.271 21.3882 115.38 21.4351C115.497 21.4741 115.579 21.5249 115.626 21.5874C115.673 21.6421 115.697 21.7085 115.697 21.7866V32.2154ZM115.919 18.2244C115.919 18.8181 115.798 19.2282 115.556 19.4548C115.314 19.6813 114.865 19.7946 114.208 19.7946C113.545 19.7946 113.095 19.6852 112.861 19.4665C112.634 19.2477 112.521 18.8533 112.521 18.283C112.521 17.6893 112.638 17.2792 112.873 17.0526C113.115 16.8183 113.568 16.7011 114.232 16.7011C114.888 16.7011 115.333 16.8144 115.568 17.0409C115.802 17.2596 115.919 17.6542 115.919 18.2244ZM128.305 26.6846C128.305 27.0439 128.223 27.3095 128.059 27.4814C127.902 27.6533 127.684 27.7392 127.402 27.7392H121.04C121.04 28.1845 121.09 28.5907 121.192 28.9578C121.302 29.3172 121.469 29.6257 121.696 29.8835C121.93 30.1335 122.227 30.3249 122.586 30.4577C122.954 30.5905 123.391 30.6569 123.899 30.6569C124.415 30.6569 124.868 30.6217 125.258 30.5514C125.649 30.4733 125.985 30.3913 126.266 30.3053C126.555 30.2116 126.793 30.1296 126.981 30.0593C127.168 29.9812 127.32 29.9421 127.438 29.9421C127.508 29.9421 127.567 29.9577 127.614 29.989C127.66 30.0124 127.699 30.0593 127.731 30.1296C127.762 30.1999 127.781 30.3014 127.789 30.4343C127.805 30.5592 127.813 30.7194 127.813 30.9147C127.813 31.0865 127.809 31.235 127.801 31.3599C127.793 31.4771 127.781 31.5787 127.766 31.6646C127.75 31.7505 127.727 31.8247 127.696 31.8872C127.664 31.9419 127.621 31.9966 127.567 32.0513C127.52 32.106 127.383 32.1802 127.157 32.2739C126.93 32.3677 126.641 32.4614 126.289 32.5551C125.938 32.6411 125.536 32.7153 125.083 32.7778C124.629 32.8481 124.145 32.8832 123.629 32.8832C122.7 32.8832 121.884 32.7661 121.18 32.5317C120.485 32.2974 119.903 31.9419 119.434 31.4654C118.966 30.9889 118.614 30.3874 118.38 29.6609C118.153 28.9344 118.04 28.0829 118.04 27.1064C118.04 26.1768 118.161 25.341 118.403 24.5988C118.646 23.8489 118.997 23.2162 119.458 22.7006C119.919 22.1772 120.477 21.7788 121.133 21.5054C121.798 21.232 122.544 21.0952 123.372 21.0952C124.246 21.0952 124.993 21.2242 125.61 21.4819C126.235 21.7397 126.746 22.0991 127.145 22.56C127.543 23.013 127.836 23.552 128.024 24.177C128.211 24.8019 128.305 25.4816 128.305 26.2159V26.6846ZM125.446 25.8409C125.469 25.0128 125.301 24.3645 124.942 23.8958C124.59 23.4193 124.044 23.181 123.301 23.181C122.926 23.181 122.598 23.2513 122.317 23.3919C122.044 23.5325 121.813 23.7239 121.626 23.9661C121.446 24.2005 121.305 24.4817 121.204 24.8097C121.11 25.13 121.055 25.4738 121.04 25.8409H125.446ZM138.101 29.2625C138.101 29.8562 137.988 30.3796 137.761 30.8326C137.542 31.2857 137.23 31.6646 136.823 31.9693C136.417 32.2739 135.937 32.5005 135.382 32.6489C134.828 32.8051 134.226 32.8832 133.578 32.8832C133.187 32.8832 132.812 32.852 132.453 32.7895C132.101 32.7348 131.785 32.6645 131.504 32.5786C131.223 32.4849 130.988 32.3911 130.801 32.2974C130.613 32.2036 130.476 32.1177 130.39 32.0396C130.305 31.9537 130.238 31.8247 130.191 31.6529C130.144 31.4732 130.121 31.2115 130.121 30.8678C130.121 30.6413 130.129 30.4616 130.144 30.3288C130.16 30.1882 130.184 30.0788 130.215 30.0007C130.246 29.9148 130.285 29.8601 130.332 29.8366C130.379 29.8054 130.437 29.7898 130.508 29.7898C130.594 29.7898 130.719 29.8406 130.883 29.9421C131.054 30.0358 131.266 30.1413 131.515 30.2585C131.765 30.3757 132.054 30.485 132.383 30.5866C132.718 30.6881 133.097 30.7389 133.519 30.7389C133.785 30.7389 134.019 30.7116 134.222 30.6569C134.433 30.6022 134.613 30.5241 134.761 30.4225C134.918 30.321 135.035 30.1921 135.113 30.0358C135.191 29.8796 135.23 29.7 135.23 29.4968C135.23 29.2625 135.156 29.0633 135.007 28.8992C134.867 28.7274 134.675 28.5789 134.433 28.454C134.199 28.329 133.929 28.2118 133.624 28.1024C133.328 27.993 133.019 27.872 132.699 27.7392C132.387 27.6064 132.078 27.4541 131.773 27.2822C131.476 27.1103 131.207 26.8994 130.965 26.6494C130.73 26.3995 130.539 26.0987 130.39 25.7472C130.25 25.3956 130.18 24.9738 130.18 24.4817C130.18 23.9817 130.277 23.5247 130.472 23.1107C130.668 22.6889 130.949 22.3295 131.316 22.0327C131.683 21.7358 132.129 21.5054 132.652 21.3413C133.183 21.1773 133.777 21.0952 134.433 21.0952C134.761 21.0952 135.078 21.1187 135.382 21.1656C135.695 21.2124 135.976 21.271 136.226 21.3413C136.476 21.4116 136.687 21.4898 136.859 21.5757C137.031 21.6538 137.152 21.7241 137.222 21.7866C137.3 21.8413 137.355 21.8999 137.386 21.9624C137.417 22.017 137.441 22.0873 137.456 22.1733C137.472 22.2514 137.484 22.3529 137.491 22.478C137.507 22.5951 137.515 22.7435 137.515 22.9232C137.515 23.1341 137.507 23.306 137.491 23.4388C137.484 23.5716 137.464 23.6771 137.433 23.7552C137.409 23.8333 137.374 23.888 137.327 23.9192C137.28 23.9427 137.226 23.9544 137.163 23.9544C137.093 23.9544 136.984 23.9153 136.835 23.8372C136.687 23.7512 136.499 23.6614 136.273 23.5677C136.054 23.474 135.796 23.388 135.5 23.3099C135.21 23.224 134.878 23.181 134.504 23.181C134.238 23.181 134.007 23.2084 133.812 23.263C133.617 23.3177 133.457 23.3958 133.332 23.4974C133.207 23.5989 133.113 23.72 133.05 23.8606C132.988 23.9934 132.957 24.1379 132.957 24.2942C132.957 24.5363 133.031 24.7395 133.179 24.9035C133.328 25.0675 133.523 25.2121 133.765 25.337C134.007 25.4621 134.281 25.5792 134.585 25.6886C134.898 25.7979 135.21 25.919 135.523 26.0518C135.843 26.1768 136.156 26.3252 136.46 26.4971C136.773 26.669 137.05 26.8799 137.292 27.1299C137.534 27.3798 137.73 27.6806 137.878 28.0321C138.027 28.3758 138.101 28.786 138.101 29.2625Z" fill="white"/>
<path d="M48.0125 46.1731C47.3993 46.5193 46.7184 46.6924 45.969 46.6924C45.0977 46.6924 44.3924 46.4114 43.8534 45.8495C43.3169 45.2875 43.0488 44.5442 43.0488 43.6188C43.0488 42.6738 43.3467 41.8989 43.9427 41.2943C44.5415 40.6872 45.2992 40.3833 46.2159 40.3833C46.88 40.3833 47.4377 40.4912 47.8889 40.7069V41.499C47.395 41.1868 46.8105 41.0305 46.1349 41.0305C45.4511 41.0305 44.8906 41.266 44.4534 41.7373C44.0165 42.2082 43.7979 42.8186 43.7979 43.5676C43.7979 44.3396 44.0007 44.947 44.4068 45.3897C44.8125 45.8298 45.363 46.0494 46.0582 46.0494C46.5353 46.0494 46.9481 45.9545 47.2972 45.7645V44.0532H45.9604V43.406H48.0125V46.1731ZM52.844 44.5851H49.7661C49.7776 45.0703 49.9081 45.4452 50.1579 45.709C50.4077 45.9731 50.751 46.105 51.1882 46.105C51.6792 46.105 52.1304 45.9434 52.5419 45.6197V46.2752C52.1588 46.5533 51.6524 46.6924 51.0223 46.6924C50.4062 46.6924 49.9224 46.4953 49.5705 46.1007C49.2185 45.7032 49.0426 45.1456 49.0426 44.4277C49.0426 43.7493 49.2343 43.1974 49.6174 42.7716C50.0034 42.343 50.4815 42.129 51.052 42.129C51.6222 42.129 52.0638 42.3132 52.3759 42.6824C52.6881 43.0512 52.844 43.5637 52.844 44.2191V44.5851ZM52.129 43.9934C52.1261 43.5905 52.0283 43.2769 51.8351 43.0526C51.6452 42.8286 51.3796 42.7164 51.0391 42.7164C50.7098 42.7164 50.4302 42.834 50.2005 43.0698C49.9708 43.3053 49.8289 43.6131 49.7747 43.9934H52.129ZM55.7262 46.6924C55.0818 46.6924 54.5668 46.4896 54.1808 46.0835C53.7977 45.6749 53.6063 45.1345 53.6063 44.4618C53.6063 43.7296 53.8063 43.1576 54.2062 42.7462C54.6066 42.3347 55.1474 42.129 55.8283 42.129C56.4784 42.129 56.9849 42.329 57.3483 42.729C57.7142 43.1293 57.8973 43.6841 57.8973 44.3937C57.8973 45.089 57.7002 45.6466 57.3056 46.0667C56.9139 46.4838 56.3874 46.6924 55.7262 46.6924ZM55.7774 42.7164C55.3287 42.7164 54.9743 42.8694 54.713 43.1762C54.4517 43.4798 54.3213 43.8998 54.3213 44.4363C54.3213 44.9528 54.4532 45.3599 54.7173 45.6581C54.9811 45.9559 55.3345 46.105 55.7774 46.105C56.2286 46.105 56.5749 45.9588 56.816 45.6663C57.0601 45.3742 57.182 44.9585 57.182 44.4191C57.182 43.8744 57.0601 43.4543 56.816 43.159C56.5749 42.8641 56.2286 42.7164 55.7774 42.7164ZM58.7488 46.4329V45.6835C59.1291 45.9645 59.5477 46.105 60.0046 46.105C60.6175 46.105 60.9239 45.9007 60.9239 45.4918C60.9239 45.3757 60.897 45.2778 60.8433 45.1983C60.792 45.1158 60.7211 45.0434 60.6304 44.9811C60.5422 44.9187 60.4372 44.8632 60.3154 44.8151C60.196 44.7639 60.067 44.7116 59.928 44.6575C59.7348 44.5808 59.5645 44.5044 59.4169 44.4277C59.2725 44.3482 59.1502 44.2604 59.051 44.1636C58.9546 44.0643 58.8807 43.9521 58.8295 43.8274C58.7815 43.7027 58.7571 43.5565 58.7571 43.3891C58.7571 43.1845 58.804 43.0046 58.8976 42.8483C58.9915 42.6895 59.1162 42.5573 59.2725 42.4523C59.4284 42.3444 59.6058 42.2638 59.8043 42.2097C60.0061 42.1559 60.2132 42.129 60.4261 42.129C60.8035 42.129 61.1411 42.1942 61.4393 42.3247V43.0314C61.1185 42.8214 60.7494 42.7164 60.3322 42.7164C60.2018 42.7164 60.0839 42.7318 59.9788 42.763C59.8738 42.7917 59.7832 42.8325 59.7065 42.8867C59.6326 42.9404 59.5746 43.006 59.5319 43.0823C59.4921 43.1562 59.4724 43.2386 59.4724 43.3293C59.4724 43.4429 59.4921 43.5378 59.5319 43.6145C59.5746 43.6912 59.6355 43.7593 59.7151 43.8188C59.7946 43.8787 59.891 43.9324 60.0046 43.9808C60.1179 44.0288 60.2473 44.0815 60.3921 44.1382C60.5849 44.212 60.758 44.2887 60.9114 44.3682C61.0644 44.4446 61.1952 44.5327 61.3031 44.632C61.4106 44.7284 61.493 44.8406 61.5497 44.9682C61.6095 45.0961 61.6393 45.2477 61.6393 45.4237C61.6393 45.6395 61.5909 45.8269 61.4945 45.9857C61.4009 46.1448 61.2744 46.2767 61.1157 46.3817C60.9565 46.4867 60.7738 46.5648 60.5666 46.6157C60.3595 46.667 60.1423 46.6924 59.915 46.6924C59.4667 46.6924 59.0778 46.606 58.7488 46.4329ZM64.5383 46.6924C63.8939 46.6924 63.3789 46.4896 62.9929 46.0835C62.6098 45.6749 62.4184 45.1345 62.4184 44.4618C62.4184 43.7296 62.6184 43.1576 63.0184 42.7462C63.4187 42.3347 63.9595 42.129 64.6404 42.129C65.2906 42.129 65.797 42.329 66.1604 42.729C66.5263 43.1293 66.7094 43.6841 66.7094 44.3937C66.7094 45.089 66.5123 45.6466 66.1177 46.0667C65.726 46.4838 65.1995 46.6924 64.5383 46.6924ZM64.5895 42.7164C64.1408 42.7164 63.7864 42.8694 63.5251 43.1762C63.2639 43.4798 63.1334 43.8998 63.1334 44.4363C63.1334 44.9528 63.2653 45.3599 63.5294 45.6581C63.7932 45.9559 64.1466 46.105 64.5895 46.105C65.0407 46.105 65.387 45.9588 65.6282 45.6663C65.8722 45.3742 65.9941 44.9585 65.9941 44.4191C65.9941 43.8744 65.8722 43.4543 65.6282 43.159C65.387 42.8641 65.0407 42.7164 64.5895 42.7164ZM70.7961 46.3903C70.4614 46.5917 70.064 46.6924 69.6041 46.6924C68.9827 46.6924 68.4802 46.491 68.0971 46.0878C67.7169 45.6821 67.5269 45.1571 67.5269 44.5127C67.5269 43.7948 67.7326 43.2185 68.1441 42.7845C68.5555 42.3473 69.1045 42.129 69.7916 42.129C70.1747 42.129 70.5123 42.2 70.8047 42.3415V43.0569C70.4811 42.83 70.1349 42.7164 69.7661 42.7164C69.3203 42.7164 68.9544 42.8766 68.6677 43.1974C68.3838 43.5153 68.2419 43.9339 68.2419 44.4532C68.2419 44.9642 68.3752 45.3671 68.6422 45.6624C68.9117 45.9573 69.2723 46.105 69.7235 46.105C70.1037 46.105 70.4614 45.9785 70.7961 45.7262V46.3903ZM72.2096 41.1241C72.0846 41.1241 71.9781 41.0818 71.8903 40.9965C71.8021 40.9112 71.7584 40.8033 71.7584 40.6729C71.7584 40.5424 71.8021 40.4345 71.8903 40.3492C71.9781 40.2614 72.0846 40.2174 72.2096 40.2174C72.3372 40.2174 72.4451 40.2614 72.5329 40.3492C72.6239 40.4345 72.6695 40.5424 72.6695 40.6729C72.6695 40.798 72.6239 40.9044 72.5329 40.9922C72.4451 41.0804 72.3372 41.1241 72.2096 41.1241ZM72.5501 46.5903H71.852V42.2312H72.5501V46.5903ZM77.0837 46.5903H76.3856V45.909H76.3688C76.0648 46.4315 75.6179 46.6924 75.0277 46.6924C74.5933 46.6924 74.2528 46.5774 74.0059 46.3476C73.7618 46.1179 73.64 45.8126 73.64 45.4323C73.64 44.6177 74.1195 44.1439 75.0789 44.0106L76.3856 43.8274C76.3856 43.0866 76.0863 42.7164 75.4875 42.7164C74.9624 42.7164 74.4883 42.8953 74.0657 43.2526V42.5376C74.494 42.2652 74.9879 42.129 75.547 42.129C76.5716 42.129 77.0837 42.6709 77.0837 43.755V46.5903ZM76.3856 44.3851L75.3341 44.5299C75.0108 44.5754 74.7668 44.656 74.6019 44.7725C74.4374 44.8861 74.355 45.089 74.355 45.3814C74.355 45.5939 74.4302 45.7685 74.5808 45.905C74.7338 46.0383 74.937 46.105 75.1893 46.105C75.5359 46.105 75.8208 45.9842 76.0451 45.743C76.272 45.499 76.3856 45.1911 76.3856 44.8195V44.3851ZM79.0975 46.5903H78.3994V40.1367H79.0975V46.5903ZM83.6183 45.9602H83.6014V48.5955H82.9033V42.2312H83.6014V42.9974H83.6183C83.962 42.4182 84.4641 42.129 85.1253 42.129C85.6873 42.129 86.1259 42.3247 86.441 42.7164C86.756 43.1053 86.9133 43.6274 86.9133 44.2829C86.9133 45.0123 86.7359 45.5968 86.3811 46.0369C86.0267 46.4738 85.5411 46.6924 84.9253 46.6924C84.3605 46.6924 83.9251 46.4483 83.6183 45.9602ZM83.6014 44.2019V44.8109C83.6014 45.1714 83.7179 45.4778 83.9505 45.7305C84.186 45.9799 84.4842 46.105 84.8443 46.105C85.2672 46.105 85.598 45.9434 85.8364 45.6197C86.0776 45.2961 86.1983 44.8463 86.1983 44.27C86.1983 43.7848 86.0862 43.4045 85.8618 43.1293C85.6378 42.854 85.3339 42.7164 84.9508 42.7164C84.5451 42.7164 84.2186 42.8583 83.9717 43.1422C83.7247 43.4232 83.6014 43.7762 83.6014 44.2019ZM90.3019 42.9375C90.1801 42.844 90.0041 42.7971 89.774 42.7971C89.4762 42.7971 89.2264 42.9375 89.025 43.2185C88.8261 43.4995 88.7268 43.8826 88.7268 44.3682V46.5903H88.0286V42.2312H88.7268V43.1293H88.744C88.8433 42.8229 88.9952 42.5845 89.1995 42.4139C89.4038 42.2408 89.6321 42.1545 89.8847 42.1545C90.0664 42.1545 90.2055 42.1742 90.3019 42.214V42.9375ZM92.8816 46.6924C92.2376 46.6924 91.7226 46.4896 91.3366 46.0835C90.9535 45.6749 90.7617 45.1345 90.7617 44.4618C90.7617 43.7296 90.9617 43.1576 91.362 42.7462C91.7624 42.3347 92.3028 42.129 92.9841 42.129C93.6339 42.129 94.1403 42.329 94.5037 42.729C94.87 43.1293 95.0527 43.6841 95.0527 44.3937C95.0527 45.089 94.8556 45.6466 94.461 46.0667C94.0697 46.4838 93.5432 46.6924 92.8816 46.6924ZM92.9329 42.7164C92.4845 42.7164 92.1297 42.8694 91.8684 43.1762C91.6075 43.4798 91.4771 43.8998 91.4771 44.4363C91.4771 44.9528 91.609 45.3599 91.8727 45.6581C92.1369 45.9559 92.4902 46.105 92.9329 46.105C93.3841 46.105 93.7303 45.9588 93.9715 45.6663C94.2155 45.3742 94.3378 44.9585 94.3378 44.4191C94.3378 43.8744 94.2155 43.4543 93.9715 43.159C93.7303 42.8641 93.3841 42.7164 92.9329 42.7164ZM102.358 46.5903H101.66V44.0873C101.66 43.6045 101.585 43.2554 101.434 43.04C101.287 42.8243 101.037 42.7164 100.685 42.7164C100.387 42.7164 100.133 42.8526 99.9229 43.125C99.7158 43.3974 99.6122 43.7239 99.6122 44.1041V46.5903H98.914V44.002C98.914 43.1451 98.5832 42.7164 97.922 42.7164C97.6156 42.7164 97.3629 42.8454 97.1644 43.1038C96.9658 43.359 96.8666 43.6927 96.8666 44.1041V46.5903H96.1684V42.2312H96.8666V42.9207H96.8834C97.1927 42.3928 97.6439 42.129 98.237 42.129C98.5352 42.129 98.7947 42.2125 99.0162 42.3799C99.2377 42.5447 99.3893 42.7616 99.4717 43.0314C99.7953 42.4297 100.278 42.129 100.919 42.129C101.878 42.129 102.358 42.7207 102.358 43.9041V46.5903ZM105.5 46.6924C104.855 46.6924 104.34 46.4896 103.954 46.0835C103.571 45.6749 103.38 45.1345 103.38 44.4618C103.38 43.7296 103.58 43.1576 103.98 42.7462C104.38 42.3347 104.921 42.129 105.602 42.129C106.252 42.129 106.758 42.329 107.122 42.729C107.488 43.1293 107.671 43.6841 107.671 44.3937C107.671 45.089 107.473 45.6466 107.079 46.0667C106.688 46.4838 106.161 46.6924 105.5 46.6924ZM105.551 42.7164C105.102 42.7164 104.748 42.8694 104.487 43.1762C104.225 43.4798 104.095 43.8998 104.095 44.4363C104.095 44.9528 104.227 45.3599 104.491 45.6581C104.755 45.9559 105.108 46.105 105.551 46.105C106.002 46.105 106.348 45.9588 106.589 45.6663C106.834 45.3742 106.956 44.9585 106.956 44.4191C106.956 43.8744 106.834 43.4543 106.589 43.159C106.348 42.8641 106.002 42.7164 105.551 42.7164ZM110.808 46.5476C110.644 46.6386 110.427 46.6838 110.157 46.6838C109.393 46.6838 109.012 46.258 109.012 45.4069V42.8272H108.263V42.2312H109.012V41.1667L109.71 40.9413V42.2312H110.808V42.8272H109.71V45.2832C109.71 45.5757 109.76 45.7842 109.859 45.909C109.958 46.034 110.123 46.0964 110.353 46.0964C110.529 46.0964 110.681 46.0484 110.808 45.9516V46.5476ZM115.244 44.5851H112.166C112.178 45.0703 112.308 45.4452 112.558 45.709C112.808 45.9731 113.151 46.105 113.588 46.105C114.079 46.105 114.53 45.9434 114.942 45.6197V46.2752C114.559 46.5533 114.052 46.6924 113.422 46.6924C112.806 46.6924 112.323 46.4953 111.971 46.1007C111.619 45.7032 111.443 45.1456 111.443 44.4277C111.443 43.7493 111.634 43.1974 112.017 42.7716C112.403 42.343 112.882 42.129 113.452 42.129C114.022 42.129 114.464 42.3132 114.776 42.6824C115.088 43.0512 115.244 43.5637 115.244 44.2191V44.5851ZM114.529 43.9934C114.526 43.5905 114.428 43.2769 114.235 43.0526C114.045 42.8286 113.78 42.7164 113.439 42.7164C113.11 42.7164 112.83 42.834 112.601 43.0698C112.371 43.3053 112.229 43.6131 112.175 43.9934H114.529Z" fill="white"/>
</g>
</g>
<defs>
<clipPath id="clip0_3024_1607">
<rect width="140.848" height="53.7586" rx="26.8793" fill="white"/>
</clipPath>
</defs>
</svg>
