<svg width="203" height="47" viewBox="0 0 203 47" fill="none" xmlns="http://www.w3.org/2000/svg">
<path d="M46.5791 23.29C46.5791 20.23 45.9791 17.2 44.8091 14.38C43.6391 11.55 41.9191 8.99 39.7591 6.82C37.5991 4.66 35.0291 2.94 32.1991 1.77C29.3791 0.6 26.3491 0 23.2891 0V23.29H46.5791Z" fill="#F397CE"/>
<path d="M44.81 37.67C43.64 34.84 41.92 32.28 39.76 30.11C37.6 27.95 35.03 26.23 32.2 25.06C29.37 23.89 26.35 23.29 23.29 23.29H0C0 26.35 0.6 29.38 1.77 32.2C2.94 35.03 4.66 37.59 6.82 39.76C8.98 41.92 11.55 43.64 14.38 44.81C17.21 45.98 20.23 46.58 23.29 46.58H46.58C46.58 43.52 45.98 40.49 44.81 37.67Z" fill="#D494FB"/>
<path d="M23.2891 23.29C23.2891 26.35 23.8891 29.38 25.0591 32.2C26.2291 35.03 27.9491 37.59 30.1091 39.76C32.2691 41.92 34.8391 43.64 37.6691 44.81C40.4991 45.98 43.5191 46.58 46.5791 46.58V23.29H23.2891Z" fill="#E2078A"/>
<path d="M59.1797 15.3403V15.4503H67.4797V40.0103H73.0697V15.4503H81.5497V10.5703H59.1797V15.3403ZM108.52 16.1003L108.6 16.0403L108.54 15.9503C105.96 11.9703 102.15 10.5703 98.4897 10.5703C95.3997 10.5703 92.1197 11.4403 89.6097 13.7403C87.0997 16.0403 85.3797 19.7703 85.3797 25.4403C85.3797 30.2903 86.6697 33.9303 88.9597 36.3703C91.2497 38.8003 94.5297 40.0103 98.4697 40.0103C102.41 40.0103 105.46 38.7003 108.33 36.0403L108.41 35.9703L108.35 35.8903L105.62 32.4303L105.55 32.3403L105.46 32.4203C103.31 34.3603 101.17 35.4203 98.7797 35.4203C96.1697 35.4203 94.2397 34.4603 92.9597 32.7003C91.6697 30.9403 91.0297 28.3603 91.0297 25.1003C91.0297 21.8403 91.7597 19.3803 93.0397 17.7403C94.3097 16.1003 96.1297 15.2603 98.3297 15.2603C100.88 15.2603 102.85 16.5303 104.65 18.8103L104.72 18.8903L104.81 18.8303L108.53 16.1003H108.52ZM121.63 10.6903H121.55L121.52 10.7703L111.63 39.8703L111.58 40.0203H117.07L117.1 39.9403L119.66 32.3203H129.69L132.29 39.9403L132.32 40.0203H138.2L138.15 39.8703L127.87 10.7703L127.84 10.6903H121.64H121.63ZM142.17 10.6903H142.06V40.0103H147.62V28.4203H151.84C152.58 28.4203 153.13 28.6403 153.58 29.0203C154.03 29.4003 154.37 29.9603 154.67 30.6303L158.78 39.9503L158.81 40.0203H164.79L164.72 39.8603L159.99 29.4503C159.6 28.6003 159.27 27.9703 158.88 27.5003C158.54 27.0903 158.14 26.8003 157.61 26.5703C160.06 25.5703 162.58 23.1403 162.58 18.8203C162.58 15.8403 161.54 13.8003 159.67 12.5103C157.81 11.2303 155.15 10.7003 151.92 10.7003H142.16L142.17 10.6903ZM168.93 10.6903H168.82V40.0103H186.9V35.1503H174.39V27.4603H184.85V22.6403H174.39V15.5603H186.6V10.7003H168.94L168.93 10.6903ZM120.79 28.0503L124.63 15.9403L128.55 28.0503H120.79ZM157.05 19.3903C157.05 21.0003 156.57 22.2403 155.71 23.0703C154.85 23.9003 153.61 24.3403 152.06 24.3403H147.81V15.2303H150.8C152.85 15.2303 154.42 15.3503 155.47 15.9303C155.99 16.2203 156.39 16.6203 156.65 17.1703C156.92 17.7303 157.06 18.4503 157.06 19.3903H157.05Z" fill="#441F63"/>
</svg>
